Ponnala.ufo
<glyph name="exclam" format="1">
  <advance width="222"/>
  <unicode hex="0021"/>
  <outline>
    <contour>
      <point x="157" y="198" type="qcurve" name="hr00"/>
      <point x="157" y="198"/>
      <point x="56" y="198" type="qcurve"/>
      <point x="56" y="198"/>
      <point x="23" y="433" type="qcurve"/>
      <point x="23" y="433"/>
      <point x="23" y="497" type="qcurve"/>
      <point x="23" y="497"/>
      <point x="192" y="497" type="qcurve"/>
      <point x="192" y="497"/>
      <point x="192" y="433" type="qcurve"/>
      <point x="192" y="433"/>
    </contour>
    <contour>
      <point x="112" y="-11" type="qcurve"/>
      <point x="103" y="-11"/>
      <point x="80" y="-8"/>
      <point x="60" y="3"/>
      <point x="46" y="22"/>
      <point x="46" y="37" type="qcurve"/>
      <point x="46" y="52"/>
      <point x="60" y="72"/>
      <point x="80" y="83"/>
      <point x="103" y="87"/>
      <point x="112" y="87" type="qcurve"/>
      <point x="121" y="87"/>
      <point x="145" y="83"/>
      <point x="166" y="72"/>
      <point x="181" y="52"/>
      <point x="181" y="37" type="qcurve"/>
      <point x="181" y="21"/>
      <point x="166" y="2"/>
      <point x="145" y="-8"/>
      <point x="121" y="-11"/>
    </contour>
  </outline>
</glyph>
<glyph name="quotedbl" format="1">
  <advance width="326"/>
  <unicode hex="0022"/>
  <outline>
    <contour>
      <point x="277" y="288" type="qcurve" name="hr00"/>
      <point x="277" y="288"/>
      <point x="209" y="288" type="qcurve"/>
      <point x="209" y="288"/>
      <point x="186" y="495" type="qcurve"/>
      <point x="186" y="495"/>
      <point x="306" y="495" type="qcurve"/>
      <point x="306" y="495"/>
    </contour>
    <contour>
      <point x="106" y="288" type="qcurve"/>
      <point x="106" y="288"/>
      <point x="39" y="288" type="qcurve"/>
      <point x="39" y="288"/>
      <point x="16" y="495" type="qcurve"/>
      <point x="16" y="495"/>
      <point x="135" y="495" type="qcurve"/>
      <point x="135" y="495"/>
    </contour>
  </outline>
</glyph>
<glyph name="numbersign" format="1">
  <advance width="431"/>
  <unicode hex="0023"/>
  <outline>
    <contour>
      <point x="394" y="311" type="qcurve"/>
      <point x="394" y="311"/>
      <point x="346" y="311" type="qcurve"/>
      <point x="346" y="311"/>
      <point x="310" y="154" type="qcurve"/>
      <point x="310" y="154"/>
      <point x="358" y="154" type="qcurve"/>
      <point x="358" y="154"/>
      <point x="345" y="94" type="qcurve"/>
      <point x="345" y="94"/>
      <point x="295" y="94" type="qcurve"/>
      <point x="295" y="94"/>
      <point x="273" y="0" type="qcurve"/>
      <point x="273" y="0"/>
      <point x="207" y="0" type="qcurve"/>
      <point x="207" y="0"/>
      <point x="229" y="94" type="qcurve" name="hr01"/>
      <point x="229" y="94"/>
      <point x="135" y="94" type="qcurve"/>
      <point x="135" y="94"/>
      <point x="113" y="0" type="qcurve" name="hr02"/>
      <point x="113" y="0"/>
      <point x="47" y="0" type="qcurve"/>
      <point x="47" y="0"/>
      <point x="68" y="94" type="qcurve" name="hr03"/>
      <point x="68" y="94"/>
      <point x="22" y="94" type="qcurve"/>
      <point x="22" y="94"/>
      <point x="35" y="154" type="qcurve" name="hr04"/>
      <point x="35" y="154"/>
      <point x="82" y="154" type="qcurve"/>
      <point x="82" y="154"/>
      <point x="117" y="311" type="qcurve"/>
      <point x="117" y="311"/>
      <point x="72" y="311" type="qcurve"/>
      <point x="72" y="311"/>
      <point x="85" y="371" type="qcurve"/>
      <point x="85" y="371"/>
      <point x="132" y="371" type="qcurve"/>
      <point x="132" y="371"/>
      <point x="159" y="495" type="qcurve" name="hr05"/>
      <point x="159" y="495"/>
      <point x="228" y="495" type="qcurve"/>
      <point x="228" y="495"/>
      <point x="200" y="371" type="qcurve" name="hr06"/>
      <point x="200" y="371"/>
      <point x="292" y="371" type="qcurve"/>
      <point x="292" y="371"/>
      <point x="319" y="495" type="qcurve" name="hr07"/>
      <point x="319" y="495"/>
      <point x="389" y="495" type="qcurve"/>
      <point x="389" y="495"/>
      <point x="360" y="371" type="qcurve" name="hr08"/>
      <point x="360" y="371"/>
      <point x="407" y="371" type="qcurve"/>
      <point x="407" y="371"/>
    </contour>
    <contour>
      <point x="185" y="311" type="qcurve" name="hr09"/>
      <point x="185" y="311"/>
      <point x="149" y="154" type="qcurve"/>
      <point x="149" y="154"/>
      <point x="243" y="154" type="qcurve"/>
      <point x="243" y="154"/>
      <point x="277" y="311" type="qcurve"/>
      <point x="277" y="311"/>
    </contour>
  </outline>
</glyph>
<glyph name="dollar" format="1">
  <advance width="403"/>
  <unicode hex="0024"/>
  <outline>
    <contour>
      <point x="347" y="446" type="line"/>
      <point x="347" y="429"/>
      <point x="346" y="392"/>
      <point x="345" y="376" type="qcurve"/>
      <point x="344" y="358"/>
      <point x="344" y="340" type="qcurve"/>
      <point x="340" y="339"/>
      <point x="335" y="339" type="qcurve"/>
      <point x="330" y="338"/>
      <point x="322" y="338" type="qcurve" name="hr01"/>
      <point x="304" y="338" type="line"/>
      <point x="299" y="346"/>
      <point x="283" y="368"/>
      <point x="262" y="387"/>
      <point x="237" y="399"/>
      <point x="224" y="398" type="qcurve"/>
      <point x="224" y="292" type="line"/>
      <point x="258" y="283"/>
      <point x="304" y="266"/>
      <point x="324" y="254" type="qcurve"/>
      <point x="367" y="228"/>
      <point x="391" y="149"/>
      <point x="361" y="73"/>
      <point x="283" y="16"/>
      <point x="224" y="14" type="qcurve"/>
      <point x="224" y="-41" type="line"/>
      <point x="184" y="-41" type="line"/>
      <point x="184" y="16" type="line"/>
      <point x="151" y="22"/>
      <point x="104" y="36"/>
      <point x="74" y="50" type="qcurve"/>
      <point x="55" y="25" type="line"/>
      <point x="19" y="25" type="line"/>
      <point x="19" y="143" type="line"/>
      <point x="68" y="143" type="line" name="hr02"/>
      <point x="73" y="129"/>
      <point x="93" y="101"/>
      <point x="122" y="78"/>
      <point x="161" y="63"/>
      <point x="184" y="63" type="qcurve"/>
      <point x="184" y="190" type="line"/>
      <point x="154" y="197"/>
      <point x="94" y="214"/>
      <point x="47" y="244"/>
      <point x="17" y="291"/>
      <point x="17" y="327" type="qcurve"/>
      <point x="17" y="390"/>
      <point x="107" y="455"/>
      <point x="186" y="458" type="qcurve"/>
      <point x="186" y="520" type="line"/>
      <point x="224" y="520" type="line"/>
      <point x="224" y="457" type="line"/>
      <point x="245" y="449"/>
      <point x="275" y="438"/>
      <point x="296" y="427" type="qcurve"/>
      <point x="303" y="435"/>
      <point x="307" y="439" type="qcurve"/>
      <point x="314" y="446" type="line"/>
      <point x="327" y="446" type="line"/>
      <point x="334" y="446" type="line"/>
      <point x="338" y="446" type="line"/>
    </contour>
    <contour>
      <point x="186" y="414" type="line"/>
      <point x="148" y="418"/>
      <point x="112" y="392"/>
      <point x="110" y="372" type="qcurve"/>
      <point x="108" y="351"/>
      <point x="141" y="316"/>
      <point x="186" y="305" type="qcurve"/>
    </contour>
    <contour>
      <point x="296" y="117" type="qcurve"/>
      <point x="296" y="136"/>
      <point x="266" y="171"/>
      <point x="224" y="179" type="qcurve"/>
      <point x="224" y="66" type="line" name="hr03"/>
      <point x="265" y="66"/>
      <point x="295" y="99"/>
    </contour>
  </outline>
</glyph>
<glyph name="percent" format="1">
  <advance width="803"/>
  <unicode hex="0025"/>
  <outline>
    <contour>
      <point x="741" y="44" type="qcurve"/>
      <point x="724" y="20"/>
      <point x="670" y="-5"/>
      <point x="641" y="-5" type="qcurve"/>
      <point x="566" y="-5"/>
      <point x="494" y="80"/>
      <point x="494" y="152" type="qcurve"/>
      <point x="494" y="175"/>
      <point x="502" y="219"/>
      <point x="511" y="239" type="qcurve"/>
      <point x="525" y="271"/>
      <point x="576" y="312"/>
      <point x="634" y="326"/>
      <point x="694" y="314"/>
      <point x="743" y="276"/>
      <point x="774" y="210"/>
      <point x="774" y="163" type="qcurve"/>
      <point x="774" y="132"/>
      <point x="759" y="70"/>
    </contour>
    <contour>
      <point x="386" y="0" type="line"/>
      <point x="283" y="0" type="line"/>
      <point x="384" y="494" type="line"/>
      <point x="487" y="494" type="line"/>
    </contour>
    <contour>
      <point x="264" y="226" type="qcurve"/>
      <point x="247" y="201"/>
      <point x="194" y="176"/>
      <point x="164" y="176" type="qcurve"/>
      <point x="122" y="176"/>
      <point x="61" y="210"/>
      <point x="25" y="265"/>
      <point x="12" y="334"/>
      <point x="22" y="402"/>
      <point x="55" y="462"/>
      <point x="83" y="482" type="qcurve"/>
      <point x="115" y="504"/>
      <point x="157" y="504" type="qcurve"/>
      <point x="212" y="504"/>
      <point x="279" y="446"/>
      <point x="305" y="361"/>
      <point x="290" y="264"/>
    </contour>
    <contour>
      <point x="683" y="172" type="line"/>
      <point x="683" y="204"/>
      <point x="661" y="241"/>
      <point x="631" y="251"/>
      <point x="600" y="235"/>
      <point x="592" y="215" type="qcurve"/>
      <point x="587" y="203"/>
      <point x="586" y="172"/>
      <point x="586" y="159" type="qcurve"/>
      <point x="586" y="148"/>
      <point x="589" y="117"/>
      <point x="600" y="90" name="hr02"/>
      <point x="618" y="71"/>
      <point x="633" y="71" type="qcurve"/>
      <point x="650" y="71"/>
      <point x="673" y="89"/>
      <point x="678" y="104" type="qcurve"/>
      <point x="683" y="120"/>
      <point x="683" y="138" type="qcurve" name="hr01"/>
    </contour>
    <contour>
      <point x="206" y="356" type="qcurve"/>
      <point x="205" y="365"/>
      <point x="204" y="382"/>
      <point x="202" y="390" type="qcurve"/>
      <point x="197" y="408"/>
      <point x="174" y="429"/>
      <point x="148" y="432"/>
      <point x="123" y="416"/>
      <point x="116" y="398" type="qcurve"/>
      <point x="111" y="386"/>
      <point x="109" y="354"/>
      <point x="109" y="341" type="qcurve"/>
      <point x="109" y="295"/>
      <point x="143" y="250"/>
      <point x="181" y="254"/>
      <point x="210" y="306"/>
    </contour>
  </outline>
</glyph>
<glyph name="ampersand" format="1">
  <advance width="853"/>
  <unicode hex="0026"/>
  <outline>
    <contour>
      <point x="352" y="112" type="curve" name="hr00"/>
      <point x="213" y="36"/>
      <point x="69" y="176"/>
      <point x="173" y="284" type="curve"/>
      <point x="234" y="229"/>
      <point x="291" y="171"/>
    </contour>
    <contour>
      <point x="252" y="393" type="curve"/>
      <point x="232" y="410"/>
      <point x="195" y="444"/>
      <point x="195" y="469" type="curve" smooth="yes"/>
      <point x="195" y="500"/>
      <point x="224" y="516"/>
      <point x="255" y="516" type="curve" smooth="yes"/>
      <point x="326" y="516"/>
      <point x="316" y="422"/>
    </contour>
    <contour>
      <point x="600" y="-7" type="curve" smooth="yes"/>
      <point x="656" y="-21"/>
      <point x="707" y="24"/>
      <point x="667" y="70" type="curve"/>
      <point x="613" y="16"/>
      <point x="529" y="123"/>
      <point x="508" y="140" type="curve"/>
      <point x="559" y="194"/>
      <point x="582" y="228"/>
      <point x="670" y="289" type="curve"/>
      <point x="615" y="269"/>
      <point x="476" y="355"/>
      <point x="504" y="275" type="curve"/>
      <point x="531" y="229"/>
      <point x="480" y="195"/>
      <point x="465" y="186" type="curve"/>
      <point x="295" y="351" type="line"/>
      <point x="437" y="452"/>
      <point x="365" y="584"/>
      <point x="221" y="579" type="curve" smooth="yes"/>
      <point x="87" y="574"/>
      <point x="37" y="440"/>
      <point x="117" y="347" type="curve"/>
      <point x="-29" y="281"/>
      <point x="-45" y="94"/>
      <point x="108" y="31" type="curve" smooth="yes"/>
      <point x="143" y="17"/>
      <point x="252" y="4"/>
      <point x="252" y="-45" type="curve"/>
      <point x="255" y="-45" type="line"/>
      <point x="261" y="2"/>
      <point x="370" y="39"/>
      <point x="404" y="60" type="curve"/>
      <point x="432" y="32"/>
      <point x="430" y="16"/>
      <point x="422" y="-19" type="curve"/>
      <point x="474" y="4"/>
      <point x="533" y="10"/>
    </contour>
  </outline>
</glyph>
<glyph name="quotesingle" format="1">
  <advance width="217"/>
  <unicode hex="0027"/>
  <outline>
    <contour>
      <point x="114" y="529" type="qcurve" name="hr00"/>
      <point x="114" y="529"/>
      <point x="69" y="529" type="qcurve"/>
      <point x="69" y="529"/>
      <point x="69" y="862" type="qcurve"/>
      <point x="69" y="862"/>
      <point x="142" y="862" type="qcurve"/>
      <point x="142" y="862"/>
    </contour>
  </outline>
</glyph>
<glyph name="parenleft" format="1">
  <advance width="444"/>
  <unicode hex="0028"/>
  <outline>
    <contour>
      <point x="392" y="-33" type="curve" name="hr00"/>
      <point x="382" y="-37"/>
      <point x="372" y="-39"/>
      <point x="361" y="-39" type="curve" smooth="yes"/>
      <point x="305" y="-39"/>
      <point x="260" y="-4"/>
      <point x="227" y="66" type="curve" smooth="yes"/>
      <point x="200" y="122"/>
      <point x="186" y="181"/>
      <point x="186" y="244" type="curve" smooth="yes"/>
      <point x="186" y="311"/>
      <point x="200" y="373"/>
      <point x="227" y="429" type="curve" smooth="yes"/>
      <point x="261" y="500"/>
      <point x="308" y="534"/>
      <point x="369" y="531" type="curve"/>
      <point x="357" y="536"/>
      <point x="342" y="539"/>
      <point x="325" y="539" type="curve" smooth="yes"/>
      <point x="267" y="539"/>
      <point x="214" y="516"/>
      <point x="167" y="470" type="curve" smooth="yes"/>
      <point x="148" y="451"/>
      <point x="128" y="410"/>
      <point x="108" y="346" type="curve" smooth="yes"/>
      <point x="89" y="285"/>
      <point x="70" y="249"/>
      <point x="51" y="236" type="curve"/>
      <point x="74" y="224"/>
      <point x="93" y="192"/>
      <point x="107" y="141" type="curve" smooth="yes"/>
      <point x="124" y="81"/>
      <point x="138" y="42"/>
      <point x="152" y="25" type="curve" smooth="yes"/>
      <point x="199" y="-32"/>
      <point x="252" y="-61"/>
      <point x="310" y="-61" type="curve" smooth="yes"/>
      <point x="341" y="-61"/>
      <point x="368" y="-52"/>
    </contour>
  </outline>
</glyph>
<glyph name="parenright" format="1">
  <advance width="442"/>
  <unicode hex="0029"/>
  <outline>
    <contour>
      <point x="51" y="-33" type="curve" name="hr00"/>
      <point x="75" y="-52"/>
      <point x="102" y="-61"/>
      <point x="133" y="-61" type="curve" smooth="yes"/>
      <point x="191" y="-61"/>
      <point x="244" y="-32"/>
      <point x="291" y="25" type="curve" smooth="yes"/>
      <point x="305" y="42"/>
      <point x="319" y="81"/>
      <point x="336" y="141" type="curve" smooth="yes"/>
      <point x="350" y="192"/>
      <point x="369" y="224"/>
      <point x="392" y="236" type="curve"/>
      <point x="373" y="249"/>
      <point x="354" y="285"/>
      <point x="335" y="346" type="curve" smooth="yes"/>
      <point x="315" y="410"/>
      <point x="295" y="451"/>
      <point x="276" y="470" type="curve" smooth="yes"/>
      <point x="229" y="516"/>
      <point x="176" y="539"/>
      <point x="118" y="539" type="curve" smooth="yes"/>
      <point x="101" y="539"/>
      <point x="86" y="536"/>
      <point x="74" y="531" type="curve"/>
      <point x="135" y="534"/>
      <point x="182" y="500"/>
      <point x="216" y="429" type="curve" smooth="yes"/>
      <point x="243" y="373"/>
      <point x="257" y="311"/>
      <point x="257" y="244" type="curve" smooth="yes"/>
      <point x="257" y="181"/>
      <point x="243" y="122"/>
      <point x="216" y="66" type="curve" smooth="yes"/>
      <point x="183" y="-4"/>
      <point x="138" y="-39"/>
      <point x="82" y="-39" type="curve" smooth="yes"/>
      <point x="71" y="-39"/>
      <point x="61" y="-37"/>
    </contour>
  </outline>
</glyph>
<glyph name="asterisk" format="1">
  <advance width="411"/>
  <unicode hex="002A"/>
  <outline>
    <contour>
      <point x="384" y="171" type="qcurve" name="hr00"/>
      <point x="373" y="155"/>
      <point x="335" y="146"/>
      <point x="311" y="160" type="qcurve"/>
      <point x="300" y="167"/>
      <point x="289" y="179" type="qcurve"/>
      <point x="276" y="190"/>
      <point x="270" y="198" type="qcurve"/>
      <point x="248" y="224" type="line"/>
      <point x="230" y="245" type="line"/>
      <point x="238" y="218" type="line"/>
      <point x="241" y="207"/>
      <point x="246" y="191"/>
      <point x="247" y="186" type="qcurve"/>
      <point x="250" y="178"/>
      <point x="253" y="160" type="qcurve"/>
      <point x="256" y="143"/>
      <point x="256" y="131" type="qcurve"/>
      <point x="256" y="105"/>
      <point x="242" y="91" type="qcurve"/>
      <point x="227" y="76"/>
      <point x="207" y="76" type="qcurve"/>
      <point x="186" y="76"/>
      <point x="173" y="91" type="qcurve"/>
      <point x="158" y="104"/>
      <point x="158" y="131" type="qcurve"/>
      <point x="158" y="144"/>
      <point x="161" y="159" type="qcurve"/>
      <point x="167" y="186" type="line"/>
      <point x="176" y="218" type="line"/>
      <point x="184" y="245" type="line"/>
      <point x="166" y="224" type="line"/>
      <point x="144" y="198" type="line"/>
      <point x="138" y="191"/>
      <point x="125" y="179" type="qcurve"/>
      <point x="113" y="167"/>
      <point x="103" y="160" type="qcurve"/>
      <point x="80" y="146"/>
      <point x="41" y="155"/>
      <point x="30" y="171" type="qcurve"/>
      <point x="19" y="186"/>
      <point x="26" y="228"/>
      <point x="48" y="242" type="qcurve"/>
      <point x="63" y="252"/>
      <point x="84" y="260" type="qcurve"/>
      <point x="95" y="264"/>
      <point x="119" y="271"/>
      <point x="133" y="276" type="qcurve"/>
      <point x="171" y="288" type="line"/>
      <point x="134" y="300" type="line"/>
      <point x="105" y="310"/>
      <point x="63" y="324"/>
      <point x="48" y="334" type="qcurve"/>
      <point x="26" y="348"/>
      <point x="19" y="390"/>
      <point x="30" y="405" type="qcurve"/>
      <point x="41" y="422"/>
      <point x="80" y="430"/>
      <point x="103" y="416" type="qcurve"/>
      <point x="108" y="413"/>
      <point x="119" y="403"/>
      <point x="125" y="397" type="qcurve"/>
      <point x="138" y="386"/>
      <point x="144" y="378" type="qcurve"/>
      <point x="166" y="353" type="line"/>
      <point x="184" y="331" type="line"/>
      <point x="176" y="358" type="line"/>
      <point x="167" y="390" type="line"/>
      <point x="161" y="417" type="line"/>
      <point x="158" y="433"/>
      <point x="158" y="446" type="qcurve"/>
      <point x="158" y="471"/>
      <point x="173" y="486" type="qcurve"/>
      <point x="186" y="501"/>
      <point x="207" y="501" type="qcurve"/>
      <point x="227" y="501"/>
      <point x="242" y="486" type="qcurve"/>
      <point x="256" y="470"/>
      <point x="256" y="446" type="qcurve"/>
      <point x="256" y="427"/>
      <point x="250" y="400" type="qcurve"/>
      <point x="248" y="393"/>
      <point x="245" y="383"/>
      <point x="244" y="378" type="qcurve"/>
      <point x="242" y="373"/>
      <point x="239" y="361"/>
      <point x="236" y="353" type="qcurve"/>
      <point x="230" y="331" type="line"/>
      <point x="248" y="353" type="line"/>
      <point x="256" y="361"/>
      <point x="265" y="373"/>
      <point x="270" y="378" type="qcurve"/>
      <point x="289" y="398" type="line"/>
      <point x="295" y="403"/>
      <point x="306" y="413"/>
      <point x="311" y="416" type="qcurve"/>
      <point x="335" y="430"/>
      <point x="373" y="422"/>
      <point x="384" y="405" type="qcurve"/>
      <point x="395" y="390"/>
      <point x="388" y="348"/>
      <point x="366" y="334" type="qcurve"/>
      <point x="351" y="325"/>
      <point x="330" y="316" type="qcurve"/>
      <point x="280" y="300" type="line"/>
      <point x="242" y="288" type="line"/>
      <point x="281" y="276" type="line"/>
      <point x="309" y="268"/>
      <point x="351" y="252"/>
      <point x="366" y="242" type="qcurve"/>
      <point x="388" y="228"/>
      <point x="395" y="186"/>
    </contour>
  </outline>
</glyph>
<glyph name="plus" format="1">
  <advance width="278"/>
  <unicode hex="002B"/>
  <outline>
    <contour>
      <point x="179" y="158" type="qcurve" name="hr00"/>
      <point x="179" y="158"/>
      <point x="179" y="73" type="qcurve"/>
      <point x="179" y="73"/>
      <point x="101" y="73" type="qcurve"/>
      <point x="101" y="73"/>
      <point x="101" y="158" type="qcurve"/>
      <point x="101" y="158"/>
      <point x="18" y="158" type="qcurve"/>
      <point x="18" y="158"/>
      <point x="18" y="232" type="qcurve"/>
      <point x="18" y="232"/>
      <point x="101" y="232" type="qcurve"/>
      <point x="101" y="232"/>
      <point x="101" y="321" type="qcurve"/>
      <point x="101" y="321"/>
      <point x="179" y="321" type="qcurve"/>
      <point x="179" y="321"/>
      <point x="179" y="232" type="qcurve"/>
      <point x="179" y="232"/>
      <point x="260" y="232" type="qcurve"/>
      <point x="260" y="232"/>
      <point x="260" y="158" type="qcurve"/>
      <point x="260" y="158"/>
    </contour>
  </outline>
</glyph>
<glyph name="comma" format="1">
  <advance width="218"/>
  <unicode hex="002C"/>
  <outline>
    <contour>
      <point x="192" y="27" type="qcurve"/>
      <point x="192" y="-58"/>
      <point x="113" y="-137"/>
      <point x="29" y="-137" type="qcurve"/>
      <point x="29" y="-68" type="line"/>
      <point x="51" y="-68"/>
      <point x="73" y="-58"/>
      <point x="79" y="-50" type="qcurve" name="hr01"/>
      <point x="81" y="-47"/>
      <point x="83" y="-41"/>
      <point x="84" y="-36" type="qcurve"/>
      <point x="86" y="-26"/>
      <point x="87" y="-13"/>
      <point x="87" y="0" type="qcurve"/>
      <point x="29" y="0" type="line"/>
      <point x="29" y="112" type="line"/>
      <point x="185" y="112" type="line" name="hr02"/>
      <point x="188" y="88"/>
      <point x="192" y="46"/>
    </contour>
  </outline>
</glyph>
<glyph name="period" format="1">
  <advance width="207"/>
  <unicode hex="002E"/>
  <outline>
    <contour>
      <point x="190" y="68" type="qcurve" name="hr00"/>
      <point x="190" y="33"/>
      <point x="164" y="12" type="qcurve"/>
      <point x="141" y="-8"/>
      <point x="102" y="-8" type="qcurve"/>
      <point x="65" y="-8"/>
      <point x="42" y="12" type="qcurve"/>
      <point x="18" y="33"/>
      <point x="18" y="68" type="qcurve"/>
      <point x="18" y="103"/>
      <point x="41" y="123" type="qcurve"/>
      <point x="64" y="143"/>
      <point x="102" y="143" type="qcurve"/>
      <point x="140" y="143"/>
      <point x="165" y="123" type="qcurve"/>
      <point x="190" y="101"/>
    </contour>
  </outline>
</glyph>
<glyph name="slash" format="1">
  <advance width="291"/>
  <unicode hex="002F"/>
  <outline>
    <contour>
      <point x="124" y="0" type="qcurve" name="hr00"/>
      <point x="124" y="0"/>
      <point x="16" y="0" type="qcurve"/>
      <point x="16" y="0"/>
      <point x="166" y="495" type="qcurve"/>
      <point x="166" y="495"/>
      <point x="277" y="495" type="qcurve"/>
      <point x="277" y="495"/>
    </contour>
  </outline>
</glyph>
<glyph name="zero" format="1">
  <advance width="592"/>
  <unicode hex="0030"/>
  <outline>
    <contour>
      <point x="395" y="314" type="curve" smooth="yes" name="hr00"/>
      <point x="395" y="279"/>
      <point x="381" y="250"/>
      <point x="354" y="226" type="curve" smooth="yes"/>
      <point x="327" y="202"/>
      <point x="297" y="190"/>
      <point x="263" y="190" type="curve" smooth="yes"/>
      <point x="227" y="190"/>
      <point x="196" y="202"/>
      <point x="171" y="225" type="curve" smooth="yes"/>
      <point x="146" y="249"/>
      <point x="133" y="279"/>
      <point x="133" y="314" type="curve" smooth="yes"/>
      <point x="133" y="350"/>
      <point x="146" y="380"/>
      <point x="171" y="404" type="curve" smooth="yes"/>
      <point x="196" y="429"/>
      <point x="227" y="441"/>
      <point x="263" y="441" type="curve" smooth="yes"/>
      <point x="339" y="441"/>
      <point x="395" y="389"/>
    </contour>
    <contour>
      <point x="522" y="254" type="curve" smooth="yes"/>
      <point x="522" y="321"/>
      <point x="497" y="377"/>
      <point x="447" y="424" type="curve" smooth="yes"/>
      <point x="397" y="471"/>
      <point x="338" y="494"/>
      <point x="271" y="494" type="curve" smooth="yes"/>
      <point x="188" y="494"/>
      <point x="122" y="470"/>
      <point x="73" y="422" type="curve" smooth="yes"/>
      <point x="24" y="375"/>
      <point x="0" y="310"/>
      <point x="0" y="227" type="curve" smooth="yes"/>
      <point x="0" y="157"/>
      <point x="26" y="100"/>
      <point x="79" y="57" type="curve" smooth="yes"/>
      <point x="94" y="44"/>
      <point x="127" y="27"/>
      <point x="178" y="7" type="curve" smooth="yes"/>
      <point x="223" y="-10"/>
      <point x="251" y="-26"/>
      <point x="261" y="-41" type="curve"/>
      <point x="268" y="-29"/>
      <point x="298" y="-10"/>
      <point x="349" y="15" type="curve" smooth="yes"/>
      <point x="403" y="41"/>
      <point x="439" y="65"/>
      <point x="458" y="88" type="curve" smooth="yes"/>
      <point x="501" y="140"/>
      <point x="522" y="195"/>
    </contour>
  </outline>
</glyph>
<glyph name="one" format="1">
  <advance width="352"/>
  <unicode hex="0031"/>
  <outline>
    <contour>
      <point x="0" y="0" type="line"/>
      <point x="0" y="0"/>
      <point x="0" y="73" type="qcurve"/>
      <point x="7" y="69"/>
      <point x="18" y="69" type="qcurve"/>
      <point x="31" y="69"/>
      <point x="42" y="76" type="qcurve"/>
      <point x="58" y="83"/>
      <point x="56" y="95" type="qcurve"/>
      <point x="56" y="95"/>
      <point x="56" y="338" type="qcurve"/>
      <point x="56" y="354"/>
      <point x="43" y="354" type="qcurve"/>
      <point x="15" y="354"/>
      <point x="15" y="331" type="qcurve"/>
      <point x="21" y="333"/>
      <point x="23" y="333" type="qcurve"/>
      <point x="40" y="333"/>
      <point x="40" y="316" type="qcurve"/>
      <point x="40" y="299"/>
      <point x="23" y="299" type="qcurve"/>
      <point x="6" y="299"/>
      <point x="6" y="316" type="qcurve"/>
      <point x="6" y="316"/>
      <point x="6" y="354" type="qcurve"/>
      <point x="6" y="354"/>
      <point x="5" y="354" type="qcurve"/>
      <point x="5" y="354"/>
      <point x="5" y="418" type="qcurve"/>
      <point x="36" y="418"/>
      <point x="55" y="443" type="qcurve"/>
      <point x="74" y="466"/>
      <point x="78" y="496" type="qcurve" name="hr01"/>
      <point x="78" y="496"/>
      <point x="231" y="496" type="qcurve"/>
      <point x="231" y="496"/>
      <point x="231" y="88" type="qcurve"/>
      <point x="231" y="68"/>
      <point x="265" y="68" type="qcurve"/>
      <point x="270" y="68"/>
      <point x="278" y="69"/>
      <point x="282" y="70" type="qcurve"/>
      <point x="282" y="0" type="line"/>
    </contour>
  </outline>
</glyph>
<glyph name="two" format="1">
  <advance width="594"/>
  <unicode hex="0032"/>
  <outline>
    <contour>
      <point x="524" y="134" type="qcurve"/>
      <point x="524" y="80"/>
      <point x="486" y="40" type="qcurve"/>
      <point x="448" y="2"/>
      <point x="397" y="2" type="qcurve"/>
      <point x="350" y="2"/>
      <point x="278" y="37" type="qcurve"/>
      <point x="207" y="73"/>
      <point x="169" y="73" type="qcurve"/>
      <point x="133" y="73"/>
      <point x="108" y="55" type="qcurve" name="hr01"/>
      <point x="79" y="35"/>
      <point x="80" y="2" type="qcurve"/>
      <point x="43" y="13"/>
      <point x="0" y="74"/>
      <point x="0" y="116" type="qcurve"/>
      <point x="0" y="162"/>
      <point x="27" y="206" type="qcurve"/>
      <point x="68" y="275"/>
      <point x="181" y="294" type="qcurve"/>
      <point x="224" y="302"/>
      <point x="272" y="312"/>
      <point x="279" y="314" type="qcurve"/>
      <point x="335" y="334"/>
      <point x="335" y="384" type="qcurve"/>
      <point x="335" y="412"/>
      <point x="294" y="446"/>
      <point x="266" y="446" type="qcurve"/>
      <point x="174" y="446"/>
      <point x="174" y="363" type="qcurve"/>
      <point x="174" y="350" type="line"/>
      <point x="174" y="344"/>
      <point x="179" y="335"/>
      <point x="190" y="330"/>
      <point x="202" y="332" type="qcurve"/>
      <point x="201" y="334"/>
      <point x="201" y="339" type="qcurve"/>
      <point x="201" y="356"/>
      <point x="217" y="356" type="qcurve"/>
      <point x="234" y="356"/>
      <point x="234" y="339" type="qcurve"/>
      <point x="234" y="322"/>
      <point x="217" y="322" type="qcurve"/>
      <point x="13" y="322" type="line"/>
      <point x="8" y="376"/>
      <point x="49" y="420" type="qcurve" name="hr02"/>
      <point x="116" y="495"/>
      <point x="277" y="495" type="qcurve"/>
      <point x="351" y="495"/>
      <point x="416" y="462" type="qcurve"/>
      <point x="497" y="421"/>
      <point x="497" y="355" type="qcurve"/>
      <point x="497" y="223"/>
      <point x="282" y="223" type="qcurve"/>
      <point x="51" y="223"/>
      <point x="51" y="115" type="qcurve"/>
      <point x="51" y="90"/>
      <point x="62" y="79" type="qcurve"/>
      <point x="102" y="187"/>
      <point x="234" y="187" type="qcurve"/>
      <point x="276" y="187"/>
      <point x="339" y="164" type="qcurve" name="hr03"/>
      <point x="388" y="146"/>
      <point x="427" y="146" type="qcurve"/>
      <point x="479" y="146"/>
      <point x="479" y="186" type="qcurve" name="hr04"/>
      <point x="479" y="197"/>
      <point x="466" y="217" type="qcurve"/>
      <point x="524" y="204"/>
    </contour>
  </outline>
</glyph>
<glyph name="three" format="1">
  <advance width="560"/>
  <unicode hex="0033"/>
  <outline>
    <contour>
      <point x="214" y="337" type="curve" name="hr00"/>
      <point x="186" y="332"/>
      <point x="182" y="353"/>
      <point x="182" y="372" type="curve" smooth="yes"/>
      <point x="182" y="408"/>
      <point x="211" y="436"/>
      <point x="254" y="436" type="curve" smooth="yes"/>
      <point x="307" y="436"/>
      <point x="333" y="415"/>
      <point x="333" y="372" type="curve" smooth="yes"/>
      <point x="333" y="323"/>
      <point x="304" y="298"/>
      <point x="245" y="298" type="curve" smooth="yes"/>
      <point x="239" y="298"/>
      <point x="234" y="298"/>
      <point x="229" y="299" type="curve"/>
      <point x="229" y="251" type="line"/>
      <point x="238" y="265"/>
      <point x="255" y="272"/>
      <point x="279" y="272" type="curve" smooth="yes"/>
      <point x="298" y="272"/>
      <point x="315" y="267"/>
      <point x="329" y="258" type="curve" smooth="yes"/>
      <point x="345" y="247"/>
      <point x="353" y="232"/>
      <point x="353" y="213" type="curve" smooth="yes"/>
      <point x="353" y="186"/>
      <point x="336" y="165"/>
      <point x="303" y="150" type="curve" smooth="yes"/>
      <point x="278" y="139"/>
      <point x="250" y="134"/>
      <point x="218" y="134" type="curve" smooth="yes"/>
      <point x="185" y="134"/>
      <point x="153" y="143"/>
      <point x="121" y="160" type="curve" smooth="yes"/>
      <point x="83" y="180"/>
      <point x="64" y="205"/>
      <point x="64" y="235" type="curve" smooth="yes"/>
      <point x="64" y="254"/>
      <point x="66" y="267"/>
      <point x="69" y="274" type="curve"/>
      <point x="49" y="269"/>
      <point x="32" y="253"/>
      <point x="18" y="228" type="curve" smooth="yes"/>
      <point x="6" y="205"/>
      <point x="0" y="182"/>
      <point x="0" y="159" type="curve" smooth="yes"/>
      <point x="0" y="110"/>
      <point x="25" y="70"/>
      <point x="75" y="39" type="curve" smooth="yes"/>
      <point x="85" y="33"/>
      <point x="114" y="21"/>
      <point x="163" y="4" type="curve" smooth="yes"/>
      <point x="202" y="-9"/>
      <point x="224" y="-22"/>
      <point x="231" y="-35" type="curve"/>
      <point x="240" y="-22"/>
      <point x="267" y="-7"/>
      <point x="310" y="8" type="curve" smooth="yes"/>
      <point x="361" y="27"/>
      <point x="393" y="41"/>
      <point x="408" y="51" type="curve" smooth="yes"/>
      <point x="463" y="88"/>
      <point x="490" y="134"/>
      <point x="490" y="187" type="curve" smooth="yes"/>
      <point x="490" y="236"/>
      <point x="468" y="272"/>
      <point x="424" y="294" type="curve"/>
      <point x="449" y="311"/>
      <point x="462" y="334"/>
      <point x="462" y="363" type="curve" smooth="yes"/>
      <point x="462" y="410"/>
      <point x="435" y="445"/>
      <point x="382" y="468" type="curve" smooth="yes"/>
      <point x="342" y="486"/>
      <point x="295" y="495"/>
      <point x="242" y="495" type="curve" smooth="yes"/>
      <point x="181" y="495"/>
      <point x="131" y="483"/>
      <point x="92" y="458" type="curve" smooth="yes"/>
      <point x="45" y="429"/>
      <point x="23" y="385"/>
      <point x="26" y="327" type="curve"/>
      <point x="229" y="327" type="line" smooth="yes"/>
      <point x="240" y="327"/>
      <point x="246" y="333"/>
      <point x="246" y="344" type="curve" smooth="yes"/>
      <point x="246" y="355"/>
      <point x="240" y="361"/>
      <point x="229" y="361" type="curve" smooth="yes"/>
      <point x="218" y="361"/>
      <point x="213" y="355"/>
      <point x="213" y="344" type="curve" smooth="yes"/>
      <point x="213" y="341"/>
      <point x="213" y="339"/>
    </contour>
  </outline>
</glyph>
<glyph name="four" format="1">
  <advance width="649"/>
  <unicode hex="0034"/>
  <outline>
    <contour>
      <point x="268" y="395" type="qcurve" name="hr00"/>
      <point x="268" y="395"/>
      <point x="78" y="189" type="qcurve"/>
      <point x="78" y="189"/>
      <point x="268" y="189" type="qcurve"/>
      <point x="268" y="189"/>
    </contour>
    <contour>
      <point x="444" y="119" type="line"/>
      <point x="444" y="119"/>
      <point x="444" y="72" type="qcurve"/>
      <point x="444" y="62"/>
      <point x="485" y="64" type="qcurve"/>
      <point x="485" y="64"/>
      <point x="485" y="0" type="qcurve"/>
      <point x="485" y="0"/>
      <point x="213" y="0" type="qcurve"/>
      <point x="213" y="0"/>
      <point x="213" y="64" type="qcurve"/>
      <point x="248" y="64"/>
      <point x="246" y="63" type="qcurve"/>
      <point x="258" y="64"/>
      <point x="258" y="71" type="qcurve"/>
      <point x="258" y="71"/>
      <point x="258" y="121" type="qcurve"/>
      <point x="258" y="121"/>
      <point x="0" y="121" type="qcurve"/>
      <point x="0" y="121"/>
      <point x="0" y="189" type="qcurve"/>
      <point x="61" y="256"/>
      <point x="200" y="407"/>
      <point x="281" y="492" type="qcurve"/>
      <point x="445" y="492" type="line"/>
      <point x="445" y="189" type="line"/>
      <point x="579" y="189" type="line"/>
      <point x="579" y="119" type="line"/>
    </contour>
  </outline>
</glyph>
<glyph name="five" format="1">
  <advance width="523"/>
  <unicode hex="0035"/>
  <outline>
    <contour>
      <point x="400" y="397" type="curve" name="hr00"/>
      <point x="398" y="398"/>
      <point x="396" y="398"/>
      <point x="393" y="398" type="curve" smooth="yes"/>
      <point x="382" y="398"/>
      <point x="376" y="393"/>
      <point x="376" y="382" type="curve" smooth="yes"/>
      <point x="376" y="371"/>
      <point x="382" y="365"/>
      <point x="393" y="365" type="curve" smooth="yes"/>
      <point x="406" y="365"/>
      <point x="413" y="371"/>
      <point x="413" y="382" type="curve" smooth="yes"/>
      <point x="413" y="492" type="line"/>
      <point x="51" y="492" type="line"/>
      <point x="51" y="267" type="line"/>
      <point x="121" y="267" type="line"/>
      <point x="122" y="284"/>
      <point x="136" y="299"/>
      <point x="162" y="312" type="curve" smooth="yes"/>
      <point x="185" y="323"/>
      <point x="205" y="329"/>
      <point x="224" y="329" type="curve" smooth="yes"/>
      <point x="279" y="329"/>
      <point x="326" y="298"/>
      <point x="326" y="245" type="curve" smooth="yes"/>
      <point x="326" y="211"/>
      <point x="309" y="184"/>
      <point x="276" y="165" type="curve" smooth="yes"/>
      <point x="248" y="150"/>
      <point x="216" y="142"/>
      <point x="179" y="142" type="curve" smooth="yes"/>
      <point x="148" y="142"/>
      <point x="120" y="149"/>
      <point x="93" y="162" type="curve" smooth="yes"/>
      <point x="62" y="178"/>
      <point x="43" y="200"/>
      <point x="37" y="227" type="curve"/>
      <point x="28" y="227"/>
      <point x="19" y="220"/>
      <point x="11" y="205" type="curve" smooth="yes"/>
      <point x="4" y="193"/>
      <point x="0" y="181"/>
      <point x="0" y="170" type="curve" smooth="yes"/>
      <point x="0" y="114"/>
      <point x="21" y="70"/>
      <point x="64" y="37" type="curve" smooth="yes"/>
      <point x="74" y="30"/>
      <point x="101" y="17"/>
      <point x="146" y="-2" type="curve" smooth="yes"/>
      <point x="182" y="-17"/>
      <point x="202" y="-30"/>
      <point x="207" y="-43" type="curve"/>
      <point x="212" y="-30"/>
      <point x="236" y="-15"/>
      <point x="277" y="2" type="curve" smooth="yes"/>
      <point x="327" y="23"/>
      <point x="359" y="39"/>
      <point x="374" y="50" type="curve" smooth="yes"/>
      <point x="427" y="91"/>
      <point x="453" y="141"/>
      <point x="453" y="202" type="curve" smooth="yes"/>
      <point x="453" y="254"/>
      <point x="433" y="297"/>
      <point x="394" y="330" type="curve" smooth="yes"/>
      <point x="357" y="361"/>
      <point x="311" y="377"/>
      <point x="258" y="377" type="curve" smooth="yes"/>
      <point x="201" y="377"/>
      <point x="154" y="360"/>
      <point x="119" y="326" type="curve"/>
      <point x="119" y="418" type="line"/>
      <point x="388" y="418" type="line"/>
      <point x="398" y="417"/>
      <point x="402" y="410"/>
    </contour>
  </outline>
</glyph>
<glyph name="six" format="1">
  <advance width="557"/>
  <unicode hex="0036"/>
  <outline>
    <contour>
      <point x="362" y="207" type="qcurve"/>
      <point x="362" y="250"/>
      <point x="328" y="277" type="qcurve"/>
      <point x="293" y="304"/>
      <point x="250" y="304" type="qcurve"/>
      <point x="229" y="304"/>
      <point x="191" y="288"/>
      <point x="161" y="261"/>
      <point x="144" y="225"/>
      <point x="144" y="204" type="qcurve"/>
      <point x="144" y="172"/>
      <point x="178" y="145" type="qcurve"/>
      <point x="213" y="119"/>
      <point x="245" y="119" type="qcurve"/>
      <point x="286" y="119"/>
      <point x="321" y="142" type="qcurve"/>
      <point x="362" y="169"/>
    </contour>
    <contour>
      <point x="487" y="197" type="qcurve"/>
      <point x="487" y="102"/>
      <point x="412" y="45" type="qcurve"/>
      <point x="394" y="31"/>
      <point x="316" y="2" type="qcurve"/>
      <point x="252" y="-22"/>
      <point x="241" y="-42" type="qcurve"/>
      <point x="230" y="-21"/>
      <point x="168" y="2" type="qcurve"/>
      <point x="133" y="15"/>
      <point x="89" y="35"/>
      <point x="80" y="42" type="qcurve"/>
      <point x="0" y="104"/>
      <point x="0" y="228" type="qcurve" name="hr01"/>
      <point x="0" y="347"/>
      <point x="71" y="418" type="qcurve"/>
      <point x="141" y="490"/>
      <point x="261" y="490" type="qcurve"/>
      <point x="415" y="490"/>
      <point x="455" y="378" type="qcurve"/>
      <point x="292" y="378" type="line"/>
      <point x="275" y="378"/>
      <point x="275" y="395" type="qcurve"/>
      <point x="275" y="412"/>
      <point x="292" y="412" type="qcurve"/>
      <point x="308" y="412"/>
      <point x="308" y="395" type="qcurve"/>
      <point x="308" y="390"/>
      <point x="307" y="388" type="qcurve"/>
      <point x="319" y="386"/>
      <point x="327" y="391" type="qcurve"/>
      <point x="296" y="440"/>
      <point x="240" y="440" type="qcurve"/>
      <point x="178" y="440"/>
      <point x="131" y="399" type="qcurve"/>
      <point x="83" y="358"/>
      <point x="82" y="297" type="qcurve"/>
      <point x="152" y="370"/>
      <point x="255" y="370" type="qcurve"/>
      <point x="342" y="370"/>
      <point x="409" y="327" type="qcurve"/>
      <point x="487" y="277"/>
    </contour>
  </outline>
</glyph>
<glyph name="seven" format="1">
  <advance width="523"/>
  <unicode hex="0037"/>
  <outline>
    <contour>
      <point x="126" y="384" type="curve" name="hr00"/>
      <point x="119" y="383"/>
      <point x="101" y="390"/>
      <point x="101" y="401" type="curve" smooth="yes"/>
      <point x="101" y="431" type="line"/>
      <point x="269" y="431" type="line"/>
      <point x="221" y="400"/>
      <point x="181" y="352"/>
      <point x="150" y="286" type="curve" smooth="yes"/>
      <point x="121" y="223"/>
      <point x="106" y="161"/>
      <point x="106" y="99" type="curve" smooth="yes"/>
      <point x="106" y="61"/>
      <point x="113" y="28"/>
      <point x="126" y="0" type="curve"/>
      <point x="335" y="0" type="line"/>
      <point x="312" y="33"/>
      <point x="296" y="62"/>
      <point x="288" y="86" type="curve" smooth="yes"/>
      <point x="279" y="111"/>
      <point x="276" y="142"/>
      <point x="276" y="181" type="curve" smooth="yes"/>
      <point x="276" y="224"/>
      <point x="291" y="274"/>
      <point x="320" y="330" type="curve" smooth="yes"/>
      <point x="353" y="394"/>
      <point x="389" y="426"/>
      <point x="427" y="426" type="curve" smooth="yes"/>
      <point x="436" y="426"/>
      <point x="445" y="424"/>
      <point x="454" y="420" type="curve"/>
      <point x="454" y="492" type="line"/>
      <point x="0" y="492" type="line"/>
      <point x="0" y="374" type="line"/>
      <point x="141" y="374" type="line" smooth="yes"/>
      <point x="152" y="374"/>
      <point x="158" y="380"/>
      <point x="158" y="391" type="curve" smooth="yes"/>
      <point x="158" y="402"/>
      <point x="152" y="408"/>
      <point x="141" y="408" type="curve" smooth="yes"/>
      <point x="130" y="408"/>
      <point x="125" y="402"/>
      <point x="125" y="391" type="curve" smooth="yes"/>
      <point x="125" y="388"/>
      <point x="125" y="386"/>
    </contour>
  </outline>
</glyph>
<glyph name="eight" format="1">
  <advance width="525"/>
  <unicode hex="0038"/>
  <outline>
    <contour>
      <point x="335" y="219" type="qcurve"/>
      <point x="335" y="250"/>
      <point x="302" y="267" type="qcurve"/>
      <point x="277" y="280"/>
      <point x="241" y="280" type="qcurve"/>
      <point x="137" y="280"/>
      <point x="137" y="219" type="qcurve" name="hr01"/>
      <point x="137" y="187"/>
      <point x="166" y="170" type="qcurve"/>
      <point x="191" y="156"/>
      <point x="223" y="156" type="qcurve"/>
      <point x="264" y="156"/>
      <point x="294" y="168" type="qcurve"/>
      <point x="335" y="185"/>
    </contour>
    <contour>
      <point x="309" y="358" type="qcurve"/>
      <point x="309" y="411"/>
      <point x="228" y="411" type="qcurve" name="hr02"/>
      <point x="204" y="411"/>
      <point x="182" y="399" type="qcurve"/>
      <point x="156" y="384"/>
      <point x="156" y="362" type="qcurve"/>
      <point x="156" y="314"/>
      <point x="231" y="314" type="qcurve"/>
      <point x="252" y="314"/>
      <point x="278" y="326" type="qcurve"/>
      <point x="309" y="339"/>
    </contour>
    <contour>
      <point x="454" y="172" type="qcurve"/>
      <point x="454" y="121"/>
      <point x="411" y="45"/>
      <point x="363" y="25" type="qcurve"/>
      <point x="289" y="-5" type="line" name="hr03"/>
      <point x="246" y="-23"/>
      <point x="235" y="-43" type="qcurve"/>
      <point x="221" y="-25"/>
      <point x="166" y="-4" type="qcurve"/>
      <point x="132" y="10"/>
      <point x="90" y="29"/>
      <point x="81" y="34" type="qcurve"/>
      <point x="0" y="85"/>
      <point x="0" y="172" type="qcurve"/>
      <point x="0" y="217"/>
      <point x="52" y="284"/>
      <point x="95" y="293" type="qcurve"/>
      <point x="45" y="338"/>
      <point x="45" y="376" type="qcurve"/>
      <point x="45" y="433"/>
      <point x="103" y="461" type="qcurve" name="hr04"/>
      <point x="163" y="490"/>
      <point x="225" y="490" type="qcurve"/>
      <point x="417" y="490"/>
      <point x="417" y="377" type="qcurve"/>
      <point x="417" y="349"/>
      <point x="399" y="330" type="qcurve"/>
      <point x="388" y="318"/>
      <point x="361" y="296" type="qcurve"/>
      <point x="454" y="258"/>
    </contour>
  </outline>
</glyph>
<glyph name="nine" format="1">
  <advance width="532"/>
  <unicode hex="0039"/>
  <outline>
    <contour>
      <point x="318" y="333" type="qcurve"/>
      <point x="318" y="382"/>
      <point x="296" y="413" type="qcurve"/>
      <point x="271" y="450"/>
      <point x="223" y="450" type="qcurve"/>
      <point x="173" y="450"/>
      <point x="146" y="409" type="qcurve"/>
      <point x="122" y="373"/>
      <point x="122" y="321" type="qcurve"/>
      <point x="122" y="270"/>
      <point x="147" y="238" type="qcurve"/>
      <point x="174" y="200"/>
      <point x="222" y="200" type="qcurve"/>
      <point x="271" y="200"/>
      <point x="297" y="244" type="qcurve"/>
      <point x="318" y="280"/>
    </contour>
    <contour>
      <point x="462" y="248" type="qcurve"/>
      <point x="462" y="78"/>
      <point x="355" y="21" type="qcurve"/>
      <point x="346" y="16"/>
      <point x="277" y="-6" type="qcurve"/>
      <point x="225" y="-22"/>
      <point x="206" y="-43" type="qcurve"/>
      <point x="193" y="-22"/>
      <point x="138" y="-6" type="qcurve"/>
      <point x="69" y="14"/>
      <point x="59" y="21" type="qcurve"/>
      <point x="18" y="46"/>
      <point x="-2" y="98" type="qcurve"/>
      <point x="-2" y="98"/>
      <point x="158" y="98" type="qcurve"/>
      <point x="175" y="98"/>
      <point x="175" y="81" type="qcurve" name="hr01"/>
      <point x="175" y="64"/>
      <point x="158" y="64" type="qcurve"/>
      <point x="142" y="64"/>
      <point x="142" y="81" type="qcurve"/>
      <point x="142" y="86"/>
      <point x="143" y="88" type="qcurve"/>
      <point x="131" y="90"/>
      <point x="123" y="86" type="qcurve"/>
      <point x="154" y="34"/>
      <point x="208" y="34" type="qcurve"/>
      <point x="273" y="34"/>
      <point x="306" y="78" type="qcurve"/>
      <point x="335" y="118"/>
      <point x="334" y="185" type="qcurve"/>
      <point x="302" y="159"/>
      <point x="271" y="152" type="qcurve"/>
      <point x="254" y="148"/>
      <point x="202" y="148" type="qcurve"/>
      <point x="127" y="148"/>
      <point x="68" y="186" type="qcurve"/>
      <point x="1" y="229"/>
      <point x="1" y="301" type="qcurve"/>
      <point x="1" y="392"/>
      <point x="69" y="446" type="qcurve"/>
      <point x="134" y="496"/>
      <point x="226" y="496" type="qcurve"/>
      <point x="327" y="496"/>
      <point x="395" y="424" type="qcurve"/>
      <point x="462" y="353"/>
    </contour>
  </outline>
</glyph>
<glyph name="colon" format="1">
  <advance width="221"/>
  <unicode hex="003A"/>
  <outline>
    <contour>
      <point x="196" y="71" type="qcurve" name="hr00"/>
      <point x="196" y="36"/>
      <point x="171" y="15" type="qcurve"/>
      <point x="147" y="-5"/>
      <point x="109" y="-5" type="qcurve"/>
      <point x="72" y="-5"/>
      <point x="48" y="15" type="qcurve"/>
      <point x="24" y="36"/>
      <point x="24" y="71" type="qcurve"/>
      <point x="24" y="105"/>
      <point x="48" y="125" type="qcurve"/>
      <point x="71" y="145"/>
      <point x="109" y="145" type="qcurve"/>
      <point x="149" y="145"/>
      <point x="172" y="125" type="qcurve"/>
      <point x="196" y="105"/>
    </contour>
    <contour>
      <point x="196" y="258" type="qcurve"/>
      <point x="196" y="223"/>
      <point x="171" y="202" type="qcurve"/>
      <point x="147" y="182"/>
      <point x="109" y="182" type="qcurve"/>
      <point x="72" y="182"/>
      <point x="48" y="202" type="qcurve"/>
      <point x="24" y="223"/>
      <point x="24" y="258" type="qcurve"/>
      <point x="24" y="292"/>
      <point x="48" y="313" type="qcurve"/>
      <point x="73" y="333"/>
      <point x="109" y="333" type="qcurve"/>
      <point x="147" y="333"/>
      <point x="172" y="313" type="qcurve"/>
      <point x="196" y="292"/>
    </contour>
  </outline>
</glyph>
<glyph name="semicolon" format="1">
  <advance width="220"/>
  <unicode hex="003B"/>
  <outline>
    <contour>
      <point x="195" y="27" type="qcurve" name="hr02"/>
      <point x="195" y="-58"/>
      <point x="116" y="-137"/>
      <point x="32" y="-137" type="qcurve"/>
      <point x="32" y="-68" type="line"/>
      <point x="54" y="-68"/>
      <point x="76" y="-58"/>
      <point x="82" y="-50" type="qcurve"/>
      <point x="86" y="-45"/>
      <point x="89" y="-27"/>
      <point x="89" y="-20" type="qcurve"/>
      <point x="90" y="-15"/>
      <point x="90" y="0" type="qcurve"/>
      <point x="32" y="0" type="line"/>
      <point x="32" y="112" type="line"/>
      <point x="188" y="112" type="line"/>
      <point x="191" y="88"/>
      <point x="195" y="46"/>
    </contour>
    <contour>
      <point x="201" y="258" type="qcurve"/>
      <point x="201" y="224"/>
      <point x="176" y="202" type="qcurve"/>
      <point x="150" y="181"/>
      <point x="113" y="181" type="qcurve"/>
      <point x="77" y="181"/>
      <point x="53" y="202" type="qcurve" name="hr01"/>
      <point x="29" y="223"/>
      <point x="29" y="258" type="qcurve"/>
      <point x="29" y="292"/>
      <point x="52" y="312" type="qcurve"/>
      <point x="75" y="332"/>
      <point x="113" y="332" type="qcurve"/>
      <point x="153" y="332"/>
      <point x="177" y="312" type="qcurve"/>
      <point x="201" y="292"/>
    </contour>
  </outline>
</glyph>
<glyph name="less" format="1">
  <advance width="277"/>
  <unicode hex="003C"/>
  <outline>
    <contour>
      <point x="17" y="176" type="qcurve" name="hr00"/>
      <point x="17" y="176"/>
      <point x="17" y="289" type="qcurve"/>
      <point x="17" y="289"/>
      <point x="235" y="470" type="qcurve"/>
      <point x="235" y="470"/>
      <point x="235" y="328" type="qcurve"/>
      <point x="235" y="328"/>
      <point x="134" y="232" type="qcurve"/>
      <point x="134" y="232"/>
      <point x="235" y="136" type="qcurve"/>
      <point x="235" y="136"/>
      <point x="235" y="-6" type="qcurve"/>
      <point x="235" y="-6"/>
    </contour>
  </outline>
</glyph>
<glyph name="equal" format="1">
  <advance width="257"/>
  <unicode hex="003D"/>
  <outline>
    <contour>
      <point x="30" y="52" type="qcurve" name="hr00"/>
      <point x="30" y="52"/>
      <point x="30" y="120" type="qcurve"/>
      <point x="30" y="120"/>
      <point x="228" y="120" type="qcurve"/>
      <point x="228" y="120"/>
      <point x="228" y="52" type="qcurve"/>
      <point x="228" y="52"/>
    </contour>
    <contour>
      <point x="30" y="164" type="qcurve"/>
      <point x="30" y="164"/>
      <point x="30" y="232" type="qcurve"/>
      <point x="30" y="232"/>
      <point x="228" y="232" type="qcurve"/>
      <point x="228" y="232"/>
      <point x="228" y="164" type="qcurve"/>
      <point x="228" y="164"/>
    </contour>
  </outline>
</glyph>
<glyph name="greater" format="1">
  <advance width="277"/>
  <unicode hex="003E"/>
  <outline>
    <contour>
      <point x="42" y="-6" type="qcurve" name="hr00"/>
      <point x="42" y="-6"/>
      <point x="42" y="136" type="qcurve"/>
      <point x="42" y="136"/>
      <point x="143" y="232" type="qcurve"/>
      <point x="143" y="232"/>
      <point x="42" y="328" type="qcurve"/>
      <point x="42" y="328"/>
      <point x="42" y="470" type="qcurve"/>
      <point x="42" y="470"/>
      <point x="260" y="289" type="qcurve"/>
      <point x="260" y="289"/>
      <point x="260" y="176" type="qcurve"/>
      <point x="260" y="176"/>
    </contour>
  </outline>
</glyph>
<glyph name="question" format="1">
  <advance width="354"/>
  <unicode hex="003F"/>
  <outline>
    <contour>
      <point x="222" y="31" type="qcurve"/>
      <point x="222" y="-5"/>
      <point x="191" y="-24" type="qcurve"/>
      <point x="156" y="-45"/>
      <point x="153" y="-55" type="qcurve"/>
      <point x="146" y="-47"/>
      <point x="113" y="-24" type="qcurve"/>
      <point x="85" y="-5"/>
      <point x="85" y="28" type="qcurve"/>
      <point x="85" y="55"/>
      <point x="126" y="99"/>
      <point x="153" y="99" type="qcurve"/>
      <point x="182" y="99"/>
      <point x="222" y="61"/>
    </contour>
    <contour>
      <point x="285" y="395" type="qcurve" name="hr01"/>
      <point x="285" y="353"/>
      <point x="248" y="323" type="qcurve"/>
      <point x="230" y="312"/>
      <point x="194" y="291"/>
      <point x="176" y="280" type="qcurve"/>
      <point x="140" y="257"/>
      <point x="140" y="233" type="qcurve"/>
      <point x="140" y="207"/>
      <point x="169" y="207" type="qcurve" name="hr02"/>
      <point x="196" y="207"/>
      <point x="196" y="228" type="qcurve"/>
      <point x="196" y="242"/>
      <point x="179" y="251" type="qcurve"/>
      <point x="185" y="253"/>
      <point x="188" y="253" type="qcurve"/>
      <point x="205" y="253"/>
      <point x="224" y="220"/>
      <point x="224" y="202" type="qcurve"/>
      <point x="224" y="173"/>
      <point x="208" y="157" type="qcurve"/>
      <point x="199" y="148"/>
      <point x="173" y="136" type="qcurve" name="hr03"/>
      <point x="152" y="126"/>
      <point x="145" y="114" type="qcurve"/>
      <point x="136" y="126"/>
      <point x="115" y="136" type="qcurve"/>
      <point x="94" y="147"/>
      <point x="84" y="157" type="qcurve"/>
      <point x="69" y="175"/>
      <point x="69" y="206" type="qcurve"/>
      <point x="69" y="252"/>
      <point x="115" y="283" type="qcurve"/>
      <point x="136" y="294"/>
      <point x="178" y="318"/>
      <point x="200" y="329" type="qcurve" name="hr04"/>
      <point x="246" y="359"/>
      <point x="246" y="402" type="qcurve"/>
      <point x="246" y="416"/>
      <point x="232" y="439"/>
      <point x="209" y="456"/>
      <point x="180" y="466"/>
      <point x="165" y="466" type="qcurve"/>
      <point x="135" y="466"/>
      <point x="116" y="454" type="qcurve"/>
      <point x="92" y="437"/>
      <point x="92" y="411" type="qcurve"/>
      <point x="92" y="380"/>
      <point x="115" y="380" type="qcurve"/>
      <point x="127" y="380"/>
      <point x="127" y="389" type="qcurve"/>
      <point x="145" y="389" type="line"/>
      <point x="145" y="367" type="line"/>
      <point x="145" y="358"/>
      <point x="134" y="343"/>
      <point x="117" y="332"/>
      <point x="97" y="325"/>
      <point x="88" y="325" type="qcurve"/>
      <point x="70" y="325"/>
      <point x="40" y="333"/>
      <point x="29" y="340" type="qcurve" name="hr05"/>
      <point x="1" y="358"/>
      <point x="1" y="391" type="qcurve"/>
      <point x="1" y="497"/>
      <point x="150" y="497" type="qcurve"/>
      <point x="205" y="497"/>
      <point x="241" y="474" type="qcurve"/>
      <point x="285" y="447"/>
    </contour>
  </outline>
</glyph>
<glyph name="at" format="1">
  <advance width="579"/>
  <unicode hex="0040"/>
  <outline>
    <contour>
      <point x="524" y="111" type="qcurve"/>
      <point x="508" y="95"/>
      <point x="467" y="79"/>
      <point x="443" y="76" type="qcurve"/>
      <point x="421" y="72"/>
      <point x="377" y="71"/>
      <point x="357" y="72" type="qcurve"/>
      <point x="352" y="102" type="line"/>
      <point x="333" y="83"/>
      <point x="279" y="67"/>
      <point x="262" y="67" type="qcurve"/>
      <point x="243" y="67"/>
      <point x="215" y="86"/>
      <point x="197" y="117"/>
      <point x="188" y="158"/>
      <point x="188" y="179" type="qcurve"/>
      <point x="188" y="223"/>
      <point x="241" y="275"/>
      <point x="311" y="291"/>
      <point x="383" y="273"/>
      <point x="401" y="248" type="qcurve"/>
      <point x="414" y="229"/>
      <point x="417" y="188" type="qcurve"/>
      <point x="419" y="168"/>
      <point x="417" y="127"/>
      <point x="418" y="98" type="qcurve"/>
      <point x="447" y="97"/>
      <point x="482" y="119"/>
      <point x="500" y="152"/>
      <point x="506" y="191"/>
      <point x="506" y="208" type="qcurve"/>
      <point x="506" y="255"/>
      <point x="466" y="321"/>
      <point x="402" y="361"/>
      <point x="322" y="376"/>
      <point x="242" y="369"/>
      <point x="170" y="341"/>
      <point x="146" y="318" type="qcurve"/>
      <point x="116" y="288"/>
      <point x="90" y="213"/>
      <point x="90" y="172" type="qcurve" name="hr01"/>
      <point x="90" y="121"/>
      <point x="130" y="48"/>
      <point x="194" y="1"/>
      <point x="276" y="-21"/>
      <point x="318" y="-21" type="qcurve"/>
      <point x="337" y="-21"/>
      <point x="357" y="-18" type="qcurve"/>
      <point x="366" y="-55" type="line"/>
      <point x="323" y="-63"/>
      <point x="231" y="-56"/>
      <point x="191" y="-42" type="qcurve"/>
      <point x="136" y="-23"/>
      <point x="62" y="46"/>
      <point x="25" y="131"/>
      <point x="24" y="223"/>
      <point x="59" y="309"/>
      <point x="130" y="379"/>
      <point x="183" y="399" type="qcurve"/>
      <point x="222" y="413"/>
      <point x="308" y="422"/>
      <point x="393" y="410"/>
      <point x="469" y="378"/>
      <point x="528" y="326"/>
      <point x="562" y="254"/>
      <point x="562" y="208" type="qcurve"/>
      <point x="562" y="149"/>
    </contour>
    <contour>
      <point x="350" y="204" type="line"/>
      <point x="350" y="221"/>
      <point x="336" y="250"/>
      <point x="319" y="255" type="qcurve"/>
      <point x="298" y="261"/>
      <point x="272" y="239"/>
      <point x="267" y="225" type="qcurve"/>
      <point x="265" y="218"/>
      <point x="266" y="181"/>
      <point x="274" y="143"/>
      <point x="291" y="113"/>
      <point x="305" y="113" type="qcurve"/>
      <point x="316" y="113"/>
      <point x="339" y="121"/>
      <point x="350" y="132" type="qcurve"/>
    </contour>
  </outline>
</glyph>
<glyph name="A" format="1">
  <advance width="501"/>
  <unicode hex="0041"/>
  <outline>
    <contour>
      <point x="265" y="0" type="line" name="hr00"/>
      <point x="265" y="0"/>
      <point x="265" y="80" type="qcurve"/>
      <point x="265" y="80"/>
      <point x="320" y="80" type="qcurve"/>
      <point x="308" y="132"/>
      <point x="294" y="173"/>
      <point x="278" y="173" type="qcurve"/>
      <point x="170" y="172" type="line"/>
      <point x="163" y="170"/>
      <point x="153" y="169"/>
      <point x="146" y="166"/>
      <point x="141" y="157"/>
      <point x="138" y="147" type="qcurve"/>
      <point x="136" y="140"/>
      <point x="132" y="120"/>
      <point x="129" y="110" type="qcurve"/>
      <point x="126" y="100"/>
      <point x="138" y="88"/>
      <point x="155" y="82"/>
      <point x="173" y="80"/>
      <point x="177" y="80" type="qcurve"/>
      <point x="186" y="80" type="line"/>
      <point x="186" y="0" type="line"/>
      <point x="1" y="0" type="line"/>
      <point x="1" y="81" type="line"/>
      <point x="45" y="87"/>
      <point x="62" y="125" type="qcurve"/>
      <point x="64" y="131"/>
      <point x="70" y="154"/>
      <point x="75" y="170" type="qcurve"/>
      <point x="138" y="416" type="line"/>
      <point x="62" y="416" type="line"/>
      <point x="62" y="495" type="line"/>
      <point x="355" y="495" type="line"/>
      <point x="452" y="123" type="line"/>
      <point x="458" y="101"/>
      <point x="473" y="82"/>
      <point x="487" y="80" type="qcurve"/>
      <point x="498" y="80" type="line"/>
      <point x="498" y="0" type="line"/>
    </contour>
    <contour>
      <point x="218" y="419" type="line"/>
      <point x="159" y="216" type="line"/>
      <point x="281" y="216" type="line"/>
    </contour>
  </outline>
</glyph>
<glyph name="B" format="1">
  <advance width="508"/>
  <unicode hex="0042"/>
  <outline>
    <contour>
      <point x="27" y="83" type="qcurve"/>
      <point x="27" y="83"/>
      <point x="84" y="83" type="qcurve"/>
      <point x="84" y="83"/>
      <point x="84" y="417" type="qcurve"/>
      <point x="84" y="417"/>
      <point x="29" y="417" type="qcurve"/>
      <point x="29" y="417"/>
      <point x="29" y="495" type="qcurve"/>
      <point x="29" y="495"/>
      <point x="280" y="495" type="qcurve"/>
      <point x="313" y="495"/>
      <point x="381" y="489"/>
      <point x="435" y="466"/>
      <point x="470" y="419"/>
      <point x="470" y="377" type="qcurve"/>
      <point x="470" y="324"/>
      <point x="399" y="262"/>
      <point x="348" y="260" type="qcurve"/>
      <point x="386" y="257"/>
      <point x="440" y="234"/>
      <point x="475" y="199"/>
      <point x="491" y="154"/>
      <point x="491" y="130" type="qcurve"/>
      <point x="491" y="98"/>
      <point x="468" y="46"/>
      <point x="446" y="33" type="qcurve"/>
      <point x="417" y="16"/>
      <point x="356" y="-7"/>
      <point x="325" y="-18" type="qcurve"/>
      <point x="301" y="-26"/>
      <point x="262" y="-46"/>
      <point x="249" y="-58" type="qcurve"/>
      <point x="227" y="-40"/>
      <point x="158" y="-22"/>
      <point x="122" y="-17" type="qcurve"/>
      <point x="102" y="-15"/>
      <point x="64" y="-11"/>
      <point x="49" y="-9" type="qcurve"/>
      <point x="39" y="-7"/>
      <point x="29" y="-9"/>
      <point x="27" y="-6" type="qcurve"/>
      <point x="28" y="16"/>
      <point x="27" y="66"/>
    </contour>
    <contour>
      <point x="281" y="417" type="qcurve"/>
      <point x="201" y="417" type="line"/>
      <point x="201" y="280" type="line"/>
      <point x="212" y="280"/>
      <point x="242" y="279"/>
      <point x="273" y="281"/>
      <point x="301" y="285"/>
      <point x="312" y="290" type="qcurve"/>
      <point x="332" y="299"/>
      <point x="345" y="334"/>
      <point x="345" y="354" type="qcurve"/>
      <point x="345" y="383"/>
      <point x="309" y="417"/>
    </contour>
    <contour>
      <point x="304" y="226" type="qcurve"/>
      <point x="294" y="230"/>
      <point x="267" y="232"/>
      <point x="239" y="232"/>
      <point x="211" y="231"/>
      <point x="201" y="230" type="qcurve" name="hr01"/>
      <point x="201" y="83" type="line"/>
      <point x="211" y="83"/>
      <point x="241" y="82"/>
      <point x="273" y="84"/>
      <point x="303" y="87"/>
      <point x="312" y="92" type="qcurve"/>
      <point x="348" y="109"/>
      <point x="348" y="157" type="qcurve"/>
      <point x="349" y="186"/>
      <point x="324" y="219"/>
    </contour>
  </outline>
</glyph>
<glyph name="C" format="1">
  <advance width="469"/>
  <unicode hex="0043"/>
  <outline>
    <contour>
      <point x="444" y="62" type="line"/>
      <point x="435" y="46"/>
      <point x="388" y="24"/>
      <point x="331" y="2"/>
      <point x="274" y="-25"/>
      <point x="254" y="-46" type="qcurve"/>
      <point x="231" y="-26"/>
      <point x="175" y="0"/>
      <point x="146" y="14" type="qcurve"/>
      <point x="73" y="48"/>
      <point x="17" y="169"/>
      <point x="17" y="246" type="qcurve"/>
      <point x="17" y="295"/>
      <point x="41" y="388"/>
      <point x="92" y="460"/>
      <point x="171" y="504"/>
      <point x="226" y="504" type="qcurve"/>
      <point x="263" y="504"/>
      <point x="324" y="484"/>
      <point x="351" y="457" type="qcurve"/>
      <point x="369" y="494" type="line"/>
      <point x="441" y="494" type="line"/>
      <point x="441" y="326" type="line"/>
      <point x="379" y="326" type="line"/>
      <point x="376" y="359"/>
      <point x="346" y="404"/>
      <point x="303" y="426"/>
      <point x="254" y="423"/>
      <point x="213" y="393"/>
      <point x="186" y="334"/>
      <point x="186" y="289" type="qcurve"/>
      <point x="186" y="258"/>
      <point x="185" y="196"/>
      <point x="191" y="165" type="qcurve"/>
      <point x="200" y="121"/>
      <point x="257" y="77"/>
      <point x="320" y="76"/>
      <point x="374" y="121"/>
      <point x="380" y="166" type="qcurve" name="hr01"/>
      <point x="444" y="166" type="line"/>
      <point x="444" y="141" type="line"/>
      <point x="444" y="109" type="line"/>
      <point x="444" y="80" type="line"/>
    </contour>
  </outline>
</glyph>
<glyph name="D" format="1">
  <advance width="549"/>
  <unicode hex="0044"/>
  <outline>
    <contour>
      <point x="238" y="-86" type="qcurve" name="hr00"/>
      <point x="220" y="-68"/>
      <point x="169" y="-44"/>
      <point x="112" y="-27"/>
      <point x="55" y="-15"/>
      <point x="30" y="-10" type="qcurve"/>
      <point x="30" y="85" type="line"/>
      <point x="84" y="85" type="line"/>
      <point x="84" y="419" type="line"/>
      <point x="28" y="419" type="line"/>
      <point x="28" y="495" type="line"/>
      <point x="281" y="495" type="line"/>
      <point x="405" y="495"/>
      <point x="532" y="378"/>
      <point x="532" y="252" type="qcurve"/>
      <point x="532" y="166"/>
      <point x="453" y="44"/>
      <point x="381" y="2" type="qcurve"/>
      <point x="365" y="-7"/>
      <point x="325" y="-26"/>
      <point x="285" y="-48"/>
      <point x="250" y="-72"/>
    </contour>
    <contour>
      <point x="195" y="419" type="qcurve"/>
      <point x="195" y="85" type="line"/>
      <point x="255" y="85" type="line"/>
      <point x="289" y="85"/>
      <point x="337" y="117"/>
      <point x="366" y="169"/>
      <point x="378" y="234"/>
      <point x="375" y="299"/>
      <point x="359" y="358"/>
      <point x="345" y="378" type="qcurve"/>
      <point x="334" y="394"/>
      <point x="297" y="410"/>
      <point x="255" y="418"/>
      <point x="213" y="419"/>
    </contour>
  </outline>
</glyph>
<glyph name="E" format="1">
  <advance width="454"/>
  <unicode hex="0045"/>
  <outline>
    <contour>
      <point x="30" y="0" type="qcurve"/>
      <point x="30" y="0"/>
      <point x="30" y="80" type="qcurve"/>
      <point x="30" y="80"/>
      <point x="83" y="80" type="qcurve"/>
      <point x="83" y="80"/>
      <point x="83" y="416" type="qcurve"/>
      <point x="83" y="416"/>
      <point x="30" y="416" type="qcurve"/>
      <point x="30" y="416"/>
      <point x="30" y="495" type="qcurve"/>
      <point x="30" y="495"/>
      <point x="417" y="495" type="qcurve"/>
      <point x="417" y="495"/>
      <point x="417" y="318" type="qcurve"/>
      <point x="417" y="318"/>
      <point x="361" y="318" type="qcurve" name="hr01"/>
      <point x="361" y="318"/>
      <point x="336" y="416" type="qcurve"/>
      <point x="336" y="416"/>
      <point x="210" y="416" type="qcurve" name="hr02"/>
      <point x="210" y="416"/>
      <point x="210" y="286" type="qcurve"/>
      <point x="210" y="286"/>
      <point x="299" y="286" type="qcurve"/>
      <point x="299" y="286"/>
      <point x="299" y="209" type="qcurve"/>
      <point x="299" y="209"/>
      <point x="210" y="209" type="qcurve"/>
      <point x="210" y="209"/>
      <point x="210" y="80" type="qcurve"/>
      <point x="210" y="80"/>
      <point x="338" y="80" type="qcurve"/>
      <point x="338" y="80"/>
      <point x="346" y="115" type="qcurve"/>
      <point x="346" y="115"/>
      <point x="363" y="188" type="qcurve"/>
      <point x="363" y="188"/>
      <point x="420" y="188" type="qcurve"/>
      <point x="420" y="188"/>
      <point x="420" y="0" type="qcurve"/>
      <point x="420" y="0"/>
    </contour>
  </outline>
</glyph>
<glyph name="F" format="1">
  <advance width="429"/>
  <unicode hex="0046"/>
  <outline>
    <contour>
      <point x="359" y="314" type="qcurve"/>
      <point x="359" y="314"/>
      <point x="337" y="416" type="qcurve"/>
      <point x="337" y="416"/>
      <point x="214" y="416" type="qcurve"/>
      <point x="214" y="416"/>
      <point x="214" y="291" type="qcurve"/>
      <point x="214" y="291"/>
      <point x="302" y="291" type="qcurve"/>
      <point x="302" y="291"/>
      <point x="302" y="211" type="qcurve" name="hr01"/>
      <point x="302" y="211"/>
      <point x="214" y="211" type="qcurve"/>
      <point x="214" y="211"/>
      <point x="214" y="80" type="qcurve" name="hr02"/>
      <point x="214" y="80"/>
      <point x="286" y="80" type="qcurve"/>
      <point x="286" y="80"/>
      <point x="286" y="0" type="qcurve"/>
      <point x="286" y="0"/>
      <point x="31" y="0" type="qcurve"/>
      <point x="31" y="0"/>
      <point x="31" y="80" type="qcurve" name="hr03"/>
      <point x="31" y="80"/>
      <point x="84" y="80" type="qcurve"/>
      <point x="84" y="80"/>
      <point x="84" y="416" type="qcurve" name="hr04"/>
      <point x="84" y="416"/>
      <point x="31" y="416" type="qcurve"/>
      <point x="31" y="416"/>
      <point x="31" y="495" type="qcurve" name="hr05"/>
      <point x="31" y="495"/>
      <point x="419" y="495" type="qcurve"/>
      <point x="419" y="495"/>
      <point x="419" y="314" type="qcurve"/>
      <point x="419" y="314"/>
    </contour>
  </outline>
</glyph>
<glyph name="G" format="1">
  <advance width="525"/>
  <unicode hex="0047"/>
  <outline>
    <contour>
      <point x="435" y="1" type="line"/>
      <point x="435" y="1"/>
      <point x="415" y="47" type="qcurve"/>
      <point x="377" y="12"/>
      <point x="312" y="-9"/>
      <point x="279" y="-9" type="qcurve"/>
      <point x="211" y="-9"/>
      <point x="111" y="35"/>
      <point x="46" y="107"/>
      <point x="14" y="199"/>
      <point x="14" y="247" type="qcurve"/>
      <point x="14" y="296"/>
      <point x="47" y="388"/>
      <point x="109" y="460"/>
      <point x="202" y="504"/>
      <point x="262" y="504" type="qcurve"/>
      <point x="289" y="504"/>
      <point x="344" y="489"/>
      <point x="376" y="466" type="qcurve" name="hr01"/>
      <point x="396" y="494" type="line"/>
      <point x="470" y="494" type="line"/>
      <point x="470" y="310" type="line"/>
      <point x="411" y="310" type="line"/>
      <point x="408" y="331"/>
      <point x="395" y="370"/>
      <point x="370" y="400"/>
      <point x="331" y="419"/>
      <point x="303" y="419" type="qcurve"/>
      <point x="263" y="420"/>
      <point x="214" y="384"/>
      <point x="187" y="328"/>
      <point x="178" y="260"/>
      <point x="178" y="230" type="qcurve"/>
      <point x="178" y="189"/>
      <point x="196" y="129"/>
      <point x="227" y="88"/>
      <point x="267" y="67"/>
      <point x="289" y="66" type="qcurve"/>
      <point x="309" y="64"/>
      <point x="347" y="79"/>
      <point x="374" y="109"/>
      <point x="383" y="154"/>
      <point x="373" y="183" type="qcurve"/>
      <point x="326" y="183" type="line"/>
      <point x="326" y="245" type="line"/>
      <point x="494" y="245" type="line"/>
      <point x="494" y="1" type="line"/>
    </contour>
  </outline>
</glyph>
<glyph name="H" format="1">
  <advance width="582"/>
  <unicode hex="0048"/>
  <outline>
    <contour>
      <point x="326" y="0" type="qcurve"/>
      <point x="326" y="0"/>
      <point x="326" y="80" type="qcurve"/>
      <point x="326" y="80"/>
      <point x="374" y="80" type="qcurve"/>
      <point x="374" y="80"/>
      <point x="374" y="209" type="qcurve" name="hr01"/>
      <point x="374" y="209"/>
      <point x="208" y="209" type="qcurve"/>
      <point x="208" y="209"/>
      <point x="208" y="80" type="qcurve"/>
      <point x="208" y="80"/>
      <point x="259" y="80" type="qcurve"/>
      <point x="259" y="80"/>
      <point x="259" y="0" type="qcurve" name="hr02"/>
      <point x="259" y="0"/>
      <point x="32" y="0" type="qcurve"/>
      <point x="32" y="0"/>
      <point x="32" y="80" type="qcurve" name="hr03"/>
      <point x="32" y="80"/>
      <point x="80" y="80" type="qcurve"/>
      <point x="80" y="80"/>
      <point x="80" y="416" type="qcurve"/>
      <point x="80" y="416"/>
      <point x="32" y="416" type="qcurve"/>
      <point x="32" y="416"/>
      <point x="32" y="495" type="qcurve" name="hr04"/>
      <point x="32" y="495"/>
      <point x="259" y="495" type="qcurve"/>
      <point x="259" y="495"/>
      <point x="259" y="416" type="qcurve"/>
      <point x="259" y="416"/>
      <point x="208" y="416" type="qcurve"/>
      <point x="208" y="416"/>
      <point x="208" y="286" type="qcurve" name="hr05"/>
      <point x="208" y="286"/>
      <point x="374" y="286" type="qcurve"/>
      <point x="374" y="286"/>
      <point x="374" y="416" type="qcurve" name="hr06"/>
      <point x="374" y="416"/>
      <point x="325" y="416" type="qcurve"/>
      <point x="325" y="416"/>
      <point x="325" y="495" type="qcurve"/>
      <point x="325" y="495"/>
      <point x="548" y="495" type="qcurve"/>
      <point x="548" y="495"/>
      <point x="548" y="416" type="qcurve" name="hr07"/>
      <point x="548" y="416"/>
      <point x="502" y="416" type="qcurve"/>
      <point x="502" y="416"/>
      <point x="502" y="80" type="qcurve"/>
      <point x="502" y="80"/>
      <point x="550" y="80" type="qcurve"/>
      <point x="550" y="80"/>
      <point x="550" y="0" type="qcurve"/>
      <point x="550" y="0"/>
    </contour>
  </outline>
</glyph>
<glyph name="I" format="1">
  <advance width="328"/>
  <unicode hex="0049"/>
  <outline>
    <contour>
      <point x="245" y="416" type="qcurve" name="hr00"/>
      <point x="245" y="416"/>
      <point x="245" y="80" type="qcurve"/>
      <point x="245" y="80"/>
      <point x="295" y="80" type="qcurve"/>
      <point x="295" y="80"/>
      <point x="295" y="0" type="qcurve"/>
      <point x="295" y="0"/>
      <point x="32" y="0" type="qcurve"/>
      <point x="32" y="0"/>
      <point x="32" y="80" type="qcurve"/>
      <point x="32" y="80"/>
      <point x="84" y="80" type="qcurve"/>
      <point x="84" y="80"/>
      <point x="84" y="416" type="qcurve"/>
      <point x="84" y="416"/>
      <point x="33" y="416" type="qcurve"/>
      <point x="33" y="416"/>
      <point x="33" y="495" type="qcurve"/>
      <point x="33" y="495"/>
      <point x="296" y="495" type="qcurve"/>
      <point x="296" y="495"/>
      <point x="296" y="416" type="qcurve"/>
      <point x="296" y="416"/>
    </contour>
  </outline>
</glyph>
<glyph name="J" format="1">
  <advance width="401"/>
  <unicode hex="004A"/>
  <outline>
    <contour>
      <point x="73" y="170" type="line"/>
      <point x="74" y="156"/>
      <point x="79" y="125"/>
      <point x="91" y="100"/>
      <point x="114" y="83"/>
      <point x="132" y="82" type="qcurve" name="hr01"/>
      <point x="150" y="82"/>
      <point x="172" y="96"/>
      <point x="185" y="120"/>
      <point x="190" y="152"/>
      <point x="190" y="169" type="qcurve"/>
      <point x="190" y="417" type="line"/>
      <point x="138" y="417" type="line" name="hr02"/>
      <point x="138" y="495" type="line"/>
      <point x="387" y="495" type="line"/>
      <point x="387" y="417" type="line"/>
      <point x="337" y="417" type="line"/>
      <point x="337" y="138" type="line"/>
      <point x="337" y="70"/>
      <point x="299" y="30" type="qcurve"/>
      <point x="279" y="11"/>
      <point x="226" y="-9"/>
      <point x="190" y="-9" type="qcurve"/>
      <point x="158" y="-9"/>
      <point x="95" y="14"/>
      <point x="68" y="46" type="qcurve"/>
      <point x="68" y="-4" type="line"/>
      <point x="9" y="-4" type="line"/>
      <point x="9" y="170" type="line" name="hr03"/>
    </contour>
  </outline>
</glyph>
<glyph name="K" format="1">
  <advance width="549"/>
  <unicode hex="004B"/>
  <outline>
    <contour>
      <point x="443" y="0" type="line"/>
      <point x="397" y="0"/>
      <point x="351" y="37"/>
      <point x="351" y="82" type="qcurve"/>
      <point x="351" y="119" type="line"/>
      <point x="351" y="141"/>
      <point x="342" y="182"/>
      <point x="320" y="210"/>
      <point x="297" y="210" type="qcurve"/>
      <point x="202" y="210" type="line"/>
      <point x="202" y="80" type="line" name="hr01"/>
      <point x="263" y="80" type="line"/>
      <point x="264" y="60"/>
      <point x="265" y="20"/>
      <point x="265" y="0" type="qcurve"/>
      <point x="32" y="0" type="line"/>
      <point x="32" y="80" type="line"/>
      <point x="80" y="80" type="line"/>
      <point x="80" y="416" type="line" name="hr02"/>
      <point x="32" y="416" type="line"/>
      <point x="32" y="495" type="line"/>
      <point x="263" y="495" type="line"/>
      <point x="263" y="416" type="line" name="hr03"/>
      <point x="202" y="416" type="line"/>
      <point x="202" y="266" type="line" name="hr04"/>
      <point x="353" y="391" type="line"/>
      <point x="353" y="495" type="line"/>
      <point x="521" y="495" type="line"/>
      <point x="521" y="416" type="line" name="hr05"/>
      <point x="486" y="416" type="line"/>
      <point x="466" y="394"/>
      <point x="420" y="346"/>
      <point x="377" y="303"/>
      <point x="342" y="269"/>
      <point x="334" y="260" type="qcurve"/>
      <point x="350" y="260"/>
      <point x="401" y="255"/>
      <point x="449" y="238"/>
      <point x="484" y="206"/>
      <point x="484" y="179" type="qcurve"/>
      <point x="484" y="162"/>
      <point x="483" y="127"/>
      <point x="491" y="99"/>
      <point x="513" y="80"/>
      <point x="536" y="80" type="qcurve"/>
      <point x="538" y="0" type="line"/>
    </contour>
  </outline>
</glyph>
<glyph name="L" format="1">
  <advance width="433"/>
  <unicode hex="004C"/>
  <outline>
    <contour>
      <point x="33" y="0" type="qcurve"/>
      <point x="33" y="0"/>
      <point x="33" y="80" type="qcurve"/>
      <point x="33" y="80"/>
      <point x="81" y="80" type="qcurve"/>
      <point x="81" y="80"/>
      <point x="81" y="416" type="qcurve"/>
      <point x="81" y="416"/>
      <point x="32" y="416" type="qcurve"/>
      <point x="32" y="416"/>
      <point x="32" y="495" type="qcurve"/>
      <point x="32" y="495"/>
      <point x="284" y="495" type="qcurve"/>
      <point x="284" y="495"/>
      <point x="284" y="416" type="qcurve" name="hr01"/>
      <point x="284" y="416"/>
      <point x="212" y="416" type="qcurve"/>
      <point x="212" y="416"/>
      <point x="212" y="80" type="qcurve"/>
      <point x="212" y="80"/>
      <point x="331" y="80" type="qcurve"/>
      <point x="331" y="80"/>
      <point x="360" y="195" type="qcurve" name="hr02"/>
      <point x="360" y="195"/>
      <point x="422" y="195" type="qcurve"/>
      <point x="422" y="195"/>
      <point x="422" y="0" type="qcurve"/>
      <point x="422" y="0"/>
    </contour>
  </outline>
</glyph>
<glyph name="M" format="1">
  <advance width="734"/>
  <unicode hex="004D"/>
  <outline>
    <contour>
      <point x="165" y="100" type="qcurve"/>
      <point x="165" y="100"/>
      <point x="164" y="101" type="qcurve"/>
      <point x="179" y="84"/>
      <point x="203" y="81" type="qcurve"/>
      <point x="203" y="81"/>
      <point x="203" y="0" type="qcurve"/>
      <point x="203" y="0"/>
      <point x="31" y="0" type="qcurve"/>
      <point x="31" y="0"/>
      <point x="31" y="81" type="qcurve"/>
      <point x="47" y="84"/>
      <point x="68" y="100"/>
      <point x="80" y="122"/>
      <point x="84" y="150"/>
      <point x="84" y="164" type="qcurve"/>
      <point x="84" y="416" type="line" name="hr01"/>
      <point x="30" y="416" type="line"/>
      <point x="29" y="495" type="line"/>
      <point x="267" y="495" type="line"/>
      <point x="381" y="209" type="line" name="hr02"/>
      <point x="481" y="495" type="line"/>
      <point x="702" y="495" type="line"/>
      <point x="702" y="416" type="line"/>
      <point x="654" y="416" type="line"/>
      <point x="654" y="80" type="line"/>
      <point x="704" y="80" type="line"/>
      <point x="704" y="0" type="line"/>
      <point x="483" y="0" type="line"/>
      <point x="483" y="80" type="line" name="hr03"/>
      <point x="543" y="80" type="line"/>
      <point x="543" y="412" type="line"/>
      <point x="390" y="0" type="line"/>
      <point x="316" y="0" type="line" name="hr04"/>
      <point x="151" y="404" type="line"/>
      <point x="151" y="137" type="line"/>
      <point x="151" y="128"/>
      <point x="159" y="107"/>
    </contour>
  </outline>
</glyph>
<glyph name="N" format="1">
  <advance width="572"/>
  <unicode hex="004E"/>
  <outline>
    <contour>
      <point x="502" y="348" type="qcurve"/>
      <point x="502" y="348"/>
      <point x="502" y="0" type="qcurve" name="hr01"/>
      <point x="502" y="0"/>
      <point x="333" y="0" type="qcurve"/>
      <point x="333" y="0"/>
      <point x="149" y="356" type="qcurve"/>
      <point x="149" y="356"/>
      <point x="149" y="148" type="qcurve"/>
      <point x="149" y="89"/>
      <point x="200" y="81" type="qcurve" name="hr02"/>
      <point x="200" y="81"/>
      <point x="200" y="0" type="qcurve"/>
      <point x="200" y="0"/>
      <point x="30" y="0" type="qcurve"/>
      <point x="30" y="0"/>
      <point x="30" y="82" type="qcurve"/>
      <point x="63" y="88"/>
      <point x="84" y="128"/>
      <point x="84" y="162" type="qcurve"/>
      <point x="84" y="418" type="line" name="hr03"/>
      <point x="32" y="418" type="line"/>
      <point x="32" y="495" type="line"/>
      <point x="242" y="495" type="line"/>
      <point x="434" y="114" type="line" name="hr04"/>
      <point x="434" y="347" type="line"/>
      <point x="434" y="376"/>
      <point x="412" y="414"/>
      <point x="383" y="416" type="qcurve" name="hr05"/>
      <point x="383" y="495" type="line"/>
      <point x="553" y="495" type="line"/>
      <point x="553" y="415" type="line"/>
      <point x="529" y="410"/>
      <point x="502" y="377"/>
    </contour>
  </outline>
</glyph>
<glyph name="O" format="1">
  <advance width="532"/>
  <unicode hex="004F"/>
  <outline>
    <contour>
      <point x="265" y="-40" type="qcurve" name="hr00"/>
      <point x="237" y="-13"/>
      <point x="181" y="9"/>
      <point x="126" y="31"/>
      <point x="73" y="71"/>
      <point x="48" y="117" type="qcurve"/>
      <point x="16" y="178"/>
      <point x="16" y="247" type="qcurve"/>
      <point x="16" y="333"/>
      <point x="90" y="448"/>
      <point x="201" y="505"/>
      <point x="331" y="505"/>
      <point x="442" y="447"/>
      <point x="516" y="333"/>
      <point x="516" y="247" type="qcurve"/>
      <point x="516" y="213"/>
      <point x="500" y="147"/>
      <point x="483" y="118" type="qcurve"/>
      <point x="465" y="86"/>
      <point x="429" y="48"/>
      <point x="393" y="25"/>
      <point x="357" y="12"/>
      <point x="320" y="-2"/>
      <point x="284" y="-22"/>
    </contour>
    <contour>
      <point x="348" y="348" type="qcurve"/>
      <point x="340" y="385"/>
      <point x="295" y="424"/>
      <point x="244" y="428"/>
      <point x="197" y="395"/>
      <point x="187" y="359" type="qcurve"/>
      <point x="182" y="342"/>
      <point x="177" y="288"/>
      <point x="177" y="229"/>
      <point x="180" y="172"/>
      <point x="184" y="153" type="qcurve"/>
      <point x="192" y="113"/>
      <point x="237" y="70"/>
      <point x="288" y="67"/>
      <point x="335" y="103"/>
      <point x="345" y="143" type="qcurve"/>
      <point x="349" y="160"/>
      <point x="355" y="214"/>
      <point x="356" y="273"/>
      <point x="352" y="329"/>
    </contour>
  </outline>
</glyph>
<glyph name="P" format="1">
  <advance width="504"/>
  <unicode hex="0050"/>
  <outline>
    <contour>
      <point x="297" y="183" type="qcurve"/>
      <point x="285" y="183"/>
      <point x="237" y="186"/>
      <point x="208" y="191" type="qcurve"/>
      <point x="208" y="80" type="line"/>
      <point x="277" y="80" type="line"/>
      <point x="277" y="0" type="line"/>
      <point x="30" y="0" type="line"/>
      <point x="30" y="80" type="line"/>
      <point x="82" y="80" type="line"/>
      <point x="82" y="416" type="line"/>
      <point x="32" y="416" type="line"/>
      <point x="32" y="495" type="line"/>
      <point x="251" y="495" type="line"/>
      <point x="303" y="495"/>
      <point x="391" y="489"/>
      <point x="457" y="461"/>
      <point x="494" y="399"/>
      <point x="495" y="344" type="qcurve" name="hr01"/>
      <point x="496" y="298"/>
      <point x="468" y="236"/>
      <point x="415" y="199"/>
      <point x="342" y="183"/>
    </contour>
    <contour>
      <point x="281" y="416" type="qcurve"/>
      <point x="208" y="416" type="line"/>
      <point x="208" y="256" type="line"/>
      <point x="233" y="256"/>
      <point x="285" y="261"/>
      <point x="327" y="278"/>
      <point x="354" y="312"/>
      <point x="354" y="341" type="qcurve" name="hr02"/>
      <point x="354" y="379"/>
      <point x="316" y="413"/>
    </contour>
  </outline>
</glyph>
<glyph name="Q" format="1">
  <advance width="538"/>
  <unicode hex="0051"/>
  <outline>
    <contour>
      <point x="464" y="80" type="qcurve" name="hr00"/>
      <point x="464" y="80"/>
      <point x="532" y="80" type="qcurve"/>
      <point x="532" y="80"/>
      <point x="532" y="1" type="qcurve"/>
      <point x="497" y="1"/>
      <point x="426" y="3"/>
      <point x="391" y="1" type="qcurve"/>
      <point x="361" y="-1"/>
      <point x="302" y="-9"/>
      <point x="272" y="-9" type="qcurve"/>
      <point x="208" y="-9"/>
      <point x="111" y="36"/>
      <point x="46" y="110"/>
      <point x="14" y="205"/>
      <point x="14" y="254" type="qcurve"/>
      <point x="15" y="311"/>
      <point x="54" y="403"/>
      <point x="122" y="469"/>
      <point x="216" y="504"/>
      <point x="271" y="504" type="qcurve"/>
      <point x="329" y="504"/>
      <point x="420" y="466"/>
      <point x="484" y="397"/>
      <point x="518" y="302"/>
      <point x="518" y="246" type="qcurve"/>
      <point x="518" y="199"/>
      <point x="487" y="119"/>
    </contour>
    <contour>
      <point x="356" y="283" type="qcurve"/>
      <point x="356" y="304"/>
      <point x="349" y="352"/>
      <point x="331" y="392"/>
      <point x="297" y="418"/>
      <point x="269" y="418" type="qcurve"/>
      <point x="225" y="418"/>
      <point x="180" y="380"/>
      <point x="161" y="324"/>
      <point x="160" y="261"/>
      <point x="160" y="236" type="qcurve"/>
      <point x="160" y="212"/>
      <point x="162" y="162"/>
      <point x="169" y="139" type="qcurve"/>
      <point x="179" y="106"/>
      <point x="231" y="72"/>
      <point x="289" y="72"/>
      <point x="340" y="106"/>
      <point x="349" y="141" type="qcurve"/>
      <point x="357" y="174"/>
      <point x="357" y="248"/>
    </contour>
  </outline>
</glyph>
<glyph name="R" format="1">
  <advance width="538"/>
  <unicode hex="0052"/>
  <outline>
    <contour>
      <point x="439" y="0" type="line"/>
      <point x="428" y="0"/>
      <point x="404" y="1"/>
      <point x="381" y="7"/>
      <point x="362" y="18"/>
      <point x="357" y="29" type="qcurve"/>
      <point x="351" y="44"/>
      <point x="351" y="65" type="qcurve"/>
      <point x="351" y="75"/>
      <point x="352" y="98"/>
      <point x="352" y="110" type="qcurve"/>
      <point x="352" y="122"/>
      <point x="351" y="148"/>
      <point x="349" y="161" type="qcurve"/>
      <point x="344" y="187"/>
      <point x="309" y="228"/>
      <point x="270" y="228" type="qcurve"/>
      <point x="199" y="228" type="line"/>
      <point x="199" y="80" type="line"/>
      <point x="259" y="80" type="line"/>
      <point x="259" y="0" type="line"/>
      <point x="31" y="0" type="line" name="hr01"/>
      <point x="31" y="80" type="line"/>
      <point x="82" y="80" type="line"/>
      <point x="82" y="416" type="line"/>
      <point x="31" y="416" type="line" name="hr02"/>
      <point x="31" y="495" type="line" name="hr03"/>
      <point x="345" y="495" type="line"/>
      <point x="379" y="495"/>
      <point x="436" y="482"/>
      <point x="477" y="452"/>
      <point x="500" y="402"/>
      <point x="500" y="365" type="qcurve" name="hr04"/>
      <point x="500" y="343"/>
      <point x="487" y="300"/>
      <point x="454" y="266"/>
      <point x="396" y="245"/>
      <point x="351" y="246" type="qcurve"/>
      <point x="397" y="241"/>
      <point x="446" y="219"/>
      <point x="469" y="193"/>
      <point x="473" y="167"/>
      <point x="473" y="158" type="qcurve"/>
      <point x="472" y="145"/>
      <point x="472" y="119"/>
      <point x="479" y="107" type="qcurve"/>
      <point x="486" y="94"/>
      <point x="510" y="83"/>
      <point x="527" y="81" type="qcurve"/>
      <point x="527" y="0" type="line"/>
    </contour>
    <contour>
      <point x="276" y="416" type="qcurve"/>
      <point x="197" y="416" type="line"/>
      <point x="197" y="265" type="line"/>
      <point x="221" y="265"/>
      <point x="266" y="264"/>
      <point x="277" y="266" type="qcurve"/>
      <point x="288" y="267"/>
      <point x="310" y="272"/>
      <point x="321" y="278" type="qcurve"/>
      <point x="343" y="289"/>
      <point x="361" y="335"/>
      <point x="351" y="381"/>
      <point x="311" y="416"/>
    </contour>
  </outline>
</glyph>
<glyph name="S" format="1">
  <advance width="405"/>
  <unicode hex="0053"/>
  <outline>
    <contour>
      <point x="106" y="43" type="qcurve" name="hr00"/>
      <point x="106" y="43"/>
      <point x="91" y="1" type="qcurve"/>
      <point x="91" y="1"/>
      <point x="35" y="1" type="qcurve"/>
      <point x="35" y="1"/>
      <point x="35" y="133" type="qcurve"/>
      <point x="35" y="133"/>
      <point x="91" y="133" type="qcurve"/>
      <point x="104" y="106"/>
      <point x="160" y="76"/>
      <point x="217" y="71"/>
      <point x="259" y="93"/>
      <point x="259" y="119" type="qcurve"/>
      <point x="259" y="143"/>
      <point x="224" y="167"/>
      <point x="172" y="185"/>
      <point x="110" y="203"/>
      <point x="58" y="240"/>
      <point x="23" y="301"/>
      <point x="23" y="353" type="qcurve"/>
      <point x="23" y="410"/>
      <point x="72" y="482"/>
      <point x="147" y="511"/>
      <point x="237" y="496"/>
      <point x="279" y="466" type="qcurve"/>
      <point x="295" y="494" type="line"/>
      <point x="349" y="494" type="line"/>
      <point x="349" y="363" type="line"/>
      <point x="290" y="363" type="line"/>
      <point x="278" y="392"/>
      <point x="228" y="425"/>
      <point x="178" y="430"/>
      <point x="141" y="406"/>
      <point x="141" y="379" type="qcurve"/>
      <point x="141" y="357"/>
      <point x="177" y="334"/>
      <point x="232" y="316"/>
      <point x="295" y="296"/>
      <point x="350" y="260"/>
      <point x="388" y="198"/>
      <point x="389" y="148" type="qcurve"/>
      <point x="390" y="91"/>
      <point x="332" y="20"/>
      <point x="246" y="-7"/>
      <point x="146" y="11"/>
    </contour>
  </outline>
</glyph>
<glyph name="T" format="1">
  <advance width="468"/>
  <unicode hex="0054"/>
  <outline>
    <contour>
      <point x="398" y="316" type="qcurve" name="hr02"/>
      <point x="398" y="316"/>
      <point x="378" y="416" type="qcurve"/>
      <point x="378" y="416"/>
      <point x="307" y="416" type="qcurve"/>
      <point x="307" y="416"/>
      <point x="307" y="81" type="qcurve"/>
      <point x="307" y="81"/>
      <point x="362" y="81" type="qcurve"/>
      <point x="362" y="81"/>
      <point x="362" y="0" type="qcurve"/>
      <point x="362" y="0"/>
      <point x="105" y="0" type="qcurve" name="hr01"/>
      <point x="105" y="0"/>
      <point x="105" y="81" type="qcurve"/>
      <point x="105" y="81"/>
      <point x="160" y="81" type="qcurve"/>
      <point x="160" y="81"/>
      <point x="160" y="416" type="qcurve"/>
      <point x="160" y="416"/>
      <point x="91" y="416" type="qcurve"/>
      <point x="91" y="416"/>
      <point x="71" y="316" type="qcurve"/>
      <point x="71" y="316"/>
      <point x="12" y="316" type="qcurve"/>
      <point x="12" y="316"/>
      <point x="12" y="495" type="qcurve"/>
      <point x="12" y="495"/>
      <point x="456" y="495" type="qcurve"/>
      <point x="456" y="495"/>
      <point x="456" y="316" type="qcurve"/>
      <point x="456" y="316"/>
    </contour>
  </outline>
</glyph>
<glyph name="U" format="1">
  <advance width="513"/>
  <unicode hex="0055"/>
  <outline>
    <contour>
      <point x="449" y="152" type="line"/>
      <point x="449" y="111"/>
      <point x="411" y="46"/>
      <point x="355" y="15" type="qcurve" name="hr01"/>
      <point x="342" y="7"/>
      <point x="316" y="-7"/>
      <point x="303" y="-15" type="qcurve"/>
      <point x="293" y="-22"/>
      <point x="275" y="-36"/>
      <point x="266" y="-45" type="qcurve"/>
      <point x="244" y="-28"/>
      <point x="195" y="-7"/>
      <point x="170" y="4" type="qcurve"/>
      <point x="161" y="9"/>
      <point x="145" y="18"/>
      <point x="138" y="23" type="qcurve" name="hr02"/>
      <point x="105" y="46"/>
      <point x="67" y="119"/>
      <point x="67" y="163" type="qcurve"/>
      <point x="67" y="208" type="line"/>
      <point x="67" y="238"/>
      <point x="66" y="312"/>
      <point x="66" y="350" type="qcurve"/>
      <point x="66" y="417" type="line"/>
      <point x="13" y="417" type="line"/>
      <point x="13" y="495" type="line"/>
      <point x="261" y="495" type="line"/>
      <point x="261" y="417" type="line"/>
      <point x="212" y="417" type="line"/>
      <point x="212" y="180" type="line"/>
      <point x="212" y="165"/>
      <point x="219" y="129"/>
      <point x="237" y="99"/>
      <point x="269" y="79"/>
      <point x="294" y="79" type="qcurve"/>
      <point x="329" y="79"/>
      <point x="376" y="121"/>
      <point x="376" y="159" type="qcurve"/>
      <point x="376" y="417" type="line"/>
      <point x="322" y="417" type="line"/>
      <point x="322" y="495" type="line"/>
      <point x="500" y="495" type="line"/>
      <point x="500" y="417" type="line"/>
      <point x="449" y="417" type="line"/>
    </contour>
  </outline>
</glyph>
<glyph name="V" format="1">
  <advance width="509"/>
  <unicode hex="0056"/>
  <outline>
    <contour>
      <point x="329" y="0" type="line" name="hr00"/>
      <point x="329" y="0"/>
      <point x="166" y="0" type="qcurve"/>
      <point x="166" y="0"/>
      <point x="48" y="416" type="qcurve"/>
      <point x="48" y="416"/>
      <point x="-2" y="416" type="qcurve"/>
      <point x="-2" y="416"/>
      <point x="-2" y="495" type="qcurve"/>
      <point x="-2" y="495"/>
      <point x="244" y="495" type="qcurve"/>
      <point x="244" y="495"/>
      <point x="244" y="416" type="qcurve"/>
      <point x="244" y="416"/>
      <point x="200" y="416" type="qcurve"/>
      <point x="200" y="416"/>
      <point x="289" y="84" type="qcurve"/>
      <point x="289" y="84"/>
      <point x="366" y="331" type="qcurve"/>
      <point x="376" y="362"/>
      <point x="361" y="410"/>
      <point x="324" y="415" type="qcurve"/>
      <point x="324" y="495" type="line"/>
      <point x="514" y="495" type="line"/>
      <point x="514" y="415" type="line"/>
      <point x="494" y="412"/>
      <point x="471" y="396"/>
      <point x="456" y="372"/>
      <point x="447" y="342"/>
      <point x="441" y="326" type="qcurve"/>
    </contour>
  </outline>
</glyph>
<glyph name="W" format="1">
  <advance width="750"/>
  <unicode hex="0057"/>
  <outline>
    <contour>
      <point x="695" y="363" type="qcurve" name="hr00"/>
      <point x="695" y="363"/>
      <point x="596" y="0" type="qcurve"/>
      <point x="596" y="0"/>
      <point x="450" y="0" type="qcurve"/>
      <point x="450" y="0"/>
      <point x="374" y="283" type="qcurve"/>
      <point x="374" y="283"/>
      <point x="296" y="0" type="qcurve"/>
      <point x="296" y="0"/>
      <point x="152" y="0" type="qcurve"/>
      <point x="152" y="0"/>
      <point x="40" y="416" type="qcurve"/>
      <point x="40" y="416"/>
      <point x="-2" y="416" type="qcurve"/>
      <point x="-2" y="416"/>
      <point x="-1" y="495" type="qcurve"/>
      <point x="-1" y="495"/>
      <point x="237" y="495" type="qcurve"/>
      <point x="237" y="495"/>
      <point x="237" y="416" type="qcurve"/>
      <point x="237" y="416"/>
      <point x="186" y="416" type="qcurve"/>
      <point x="186" y="416"/>
      <point x="262" y="130" type="qcurve"/>
      <point x="262" y="130"/>
      <point x="359" y="495" type="qcurve"/>
      <point x="359" y="495"/>
      <point x="462" y="495" type="qcurve"/>
      <point x="462" y="495"/>
      <point x="556" y="140" type="qcurve"/>
      <point x="556" y="140"/>
      <point x="617" y="370" type="qcurve"/>
      <point x="623" y="392"/>
      <point x="611" y="414"/>
      <point x="583" y="416" type="qcurve"/>
      <point x="583" y="495" type="line"/>
      <point x="754" y="495" type="line"/>
      <point x="754" y="416" type="line"/>
      <point x="707" y="410"/>
    </contour>
  </outline>
</glyph>
<glyph name="X" format="1">
  <advance width="568"/>
  <unicode hex="0058"/>
  <outline>
    <contour>
      <point x="303" y="0" type="line"/>
      <point x="303" y="0"/>
      <point x="303" y="80" type="qcurve"/>
      <point x="303" y="80"/>
      <point x="366" y="80" type="qcurve"/>
      <point x="366" y="80"/>
      <point x="245" y="219" type="qcurve"/>
      <point x="232" y="202"/>
      <point x="207" y="170"/>
      <point x="197" y="152" type="qcurve"/>
      <point x="189" y="138"/>
      <point x="181" y="112"/>
      <point x="187" y="92"/>
      <point x="206" y="80"/>
      <point x="225" y="80" type="qcurve"/>
      <point x="233" y="80" type="line"/>
      <point x="234" y="0" type="line"/>
      <point x="2" y="0" type="line"/>
      <point x="2" y="80" type="line"/>
      <point x="32" y="82"/>
      <point x="75" y="101"/>
      <point x="98" y="131" type="qcurve"/>
      <point x="201" y="265" type="line"/>
      <point x="64" y="416" type="line"/>
      <point x="32" y="416" type="line"/>
      <point x="32" y="495" type="line"/>
      <point x="281" y="495" type="line"/>
      <point x="281" y="416" type="line"/>
      <point x="234" y="416" type="line"/>
      <point x="325" y="300" type="line"/>
      <point x="336" y="314"/>
      <point x="363" y="348"/>
      <point x="369" y="365" type="qcurve"/>
      <point x="375" y="382"/>
      <point x="363" y="409"/>
      <point x="346" y="414" type="qcurve"/>
      <point x="346" y="495" type="line"/>
      <point x="547" y="495" type="line"/>
      <point x="547" y="416" type="line"/>
      <point x="527" y="415"/>
      <point x="481" y="401"/>
      <point x="466" y="380" type="qcurve"/>
      <point x="373" y="252" type="line"/>
      <point x="529" y="80" type="line"/>
      <point x="558" y="80" type="line" name="hr01"/>
      <point x="558" y="0" type="line"/>
    </contour>
  </outline>
</glyph>
<glyph name="Y" format="1">
  <advance width="475"/>
  <unicode hex="0059"/>
  <outline>
    <contour>
      <point x="306" y="417" type="qcurve"/>
      <point x="306" y="417"/>
      <point x="306" y="495" type="qcurve" name="hr01"/>
      <point x="306" y="495"/>
      <point x="477" y="495" type="qcurve"/>
      <point x="477" y="495"/>
      <point x="477" y="416" type="qcurve"/>
      <point x="457" y="415"/>
      <point x="432" y="409"/>
      <point x="413" y="394"/>
      <point x="396" y="369"/>
      <point x="386" y="350" type="qcurve"/>
      <point x="316" y="224" type="line"/>
      <point x="316" y="80" type="line"/>
      <point x="368" y="80" type="line"/>
      <point x="368" y="0" type="line"/>
      <point x="120" y="0" type="line"/>
      <point x="120" y="80" type="line"/>
      <point x="171" y="80" type="line"/>
      <point x="171" y="208" type="line"/>
      <point x="24" y="416" type="line"/>
      <point x="-5" y="416" type="line"/>
      <point x="-5" y="495" type="line"/>
      <point x="238" y="495" type="line"/>
      <point x="238" y="416" type="line"/>
      <point x="172" y="416" type="line"/>
      <point x="182" y="399"/>
      <point x="206" y="356"/>
      <point x="231" y="311"/>
      <point x="257" y="266"/>
      <point x="269" y="246" type="qcurve" name="hr02"/>
      <point x="275" y="255"/>
      <point x="293" y="281"/>
      <point x="312" y="310"/>
      <point x="329" y="338"/>
      <point x="333" y="347" type="qcurve"/>
      <point x="345" y="372"/>
      <point x="337" y="412"/>
      <point x="316" y="416" type="qcurve"/>
      <point x="313" y="417"/>
    </contour>
  </outline>
</glyph>
<glyph name="Z" format="1">
  <advance width="490"/>
  <unicode hex="005A"/>
  <outline>
    <contour>
      <point x="32" y="0" type="qcurve" name="hr00"/>
      <point x="32" y="0"/>
      <point x="32" y="90" type="qcurve"/>
      <point x="32" y="90"/>
      <point x="276" y="416" type="qcurve"/>
      <point x="276" y="416"/>
      <point x="119" y="416" type="qcurve"/>
      <point x="119" y="416"/>
      <point x="93" y="308" type="qcurve"/>
      <point x="93" y="308"/>
      <point x="31" y="308" type="qcurve"/>
      <point x="31" y="308"/>
      <point x="31" y="495" type="qcurve"/>
      <point x="31" y="495"/>
      <point x="455" y="495" type="qcurve"/>
      <point x="455" y="495"/>
      <point x="455" y="411" type="qcurve"/>
      <point x="455" y="411"/>
      <point x="212" y="80" type="qcurve"/>
      <point x="212" y="80"/>
      <point x="367" y="80" type="qcurve"/>
      <point x="367" y="80"/>
      <point x="402" y="194" type="qcurve"/>
      <point x="402" y="194"/>
      <point x="462" y="194" type="qcurve"/>
      <point x="462" y="194"/>
      <point x="462" y="0" type="qcurve"/>
      <point x="462" y="0"/>
    </contour>
  </outline>
</glyph>
<glyph name="bracketleft" format="1">
  <advance width="278"/>
  <unicode hex="005B"/>
  <outline>
    <contour>
      <point x="151" y="434" type="qcurve"/>
      <point x="151" y="434"/>
      <point x="151" y="65" type="qcurve"/>
      <point x="151" y="65"/>
      <point x="261" y="65" type="qcurve"/>
      <point x="261" y="65"/>
      <point x="260" y="0" type="qcurve"/>
      <point x="260" y="0"/>
      <point x="44" y="0" type="qcurve"/>
      <point x="44" y="0"/>
      <point x="44" y="495" type="qcurve" name="hr01"/>
      <point x="44" y="495"/>
      <point x="262" y="495" type="qcurve"/>
      <point x="262" y="495"/>
      <point x="262" y="434" type="qcurve" name="hr02"/>
      <point x="262" y="434"/>
    </contour>
  </outline>
</glyph>
<glyph name="backslash" format="1">
  <advance width="314"/>
  <unicode hex="005C"/>
  <outline>
    <contour>
      <point x="133" y="0" type="qcurve" name="hr00"/>
      <point x="133" y="0"/>
      <point x="23" y="495" type="qcurve"/>
      <point x="23" y="495"/>
      <point x="182" y="495" type="qcurve"/>
      <point x="182" y="495"/>
      <point x="292" y="0" type="qcurve"/>
      <point x="292" y="0"/>
    </contour>
  </outline>
</glyph>
<glyph name="bracketright" format="1">
  <advance width="277"/>
  <unicode hex="005D"/>
  <outline>
    <contour>
      <point x="17" y="0" type="qcurve"/>
      <point x="17" y="0"/>
      <point x="16" y="65" type="qcurve"/>
      <point x="16" y="65"/>
      <point x="106" y="65" type="qcurve"/>
      <point x="106" y="65"/>
      <point x="106" y="434" type="qcurve"/>
      <point x="106" y="434"/>
      <point x="15" y="434" type="qcurve"/>
      <point x="15" y="434"/>
      <point x="15" y="495" type="qcurve" name="hr01"/>
      <point x="15" y="495"/>
      <point x="233" y="495" type="qcurve"/>
      <point x="233" y="495"/>
      <point x="233" y="0" type="qcurve" name="hr02"/>
      <point x="233" y="0"/>
    </contour>
  </outline>
</glyph>
<glyph name="asciicircum" format="1">
  <advance width="521"/>
  <unicode hex="005E"/>
  <outline>
    <contour>
      <point x="357" y="277" type="qcurve" name="hr00"/>
      <point x="357" y="277"/>
      <point x="275" y="416" type="qcurve"/>
      <point x="275" y="416"/>
      <point x="193" y="277" type="qcurve"/>
      <point x="193" y="277"/>
      <point x="85" y="277" type="qcurve"/>
      <point x="85" y="277"/>
      <point x="224" y="495" type="qcurve"/>
      <point x="224" y="495"/>
      <point x="327" y="495" type="qcurve"/>
      <point x="327" y="495"/>
      <point x="466" y="277" type="qcurve"/>
      <point x="466" y="277"/>
    </contour>
  </outline>
</glyph>
<glyph name="underscore" format="1">
  <advance width="355"/>
  <unicode hex="005F"/>
  <outline>
    <contour>
      <point x="-4" y="-68" type="qcurve" name="hr00"/>
      <point x="-4" y="-68"/>
      <point x="-4" y="0" type="qcurve"/>
      <point x="-4" y="0"/>
      <point x="360" y="0" type="qcurve"/>
      <point x="360" y="0"/>
      <point x="360" y="-68" type="qcurve"/>
      <point x="360" y="-68"/>
    </contour>
  </outline>
</glyph>
<glyph name="grave" format="1">
  <advance width="310"/>
  <unicode hex="0060"/>
  <outline>
    <contour>
      <point x="208" y="352" type="qcurve" name="hr00"/>
      <point x="208" y="352"/>
      <point x="39" y="449" type="qcurve"/>
      <point x="39" y="449"/>
      <point x="80" y="510" type="qcurve"/>
      <point x="80" y="510"/>
      <point x="223" y="374" type="qcurve"/>
      <point x="223" y="374"/>
    </contour>
  </outline>
</glyph>
<glyph name="a" format="1">
  <advance width="395"/>
  <unicode hex="0061"/>
  <outline>
    <contour>
      <point x="253" y="1" type="line" name="hr00"/>
      <point x="253" y="1"/>
      <point x="241" y="42" type="qcurve"/>
      <point x="215" y="25"/>
      <point x="153" y="-5"/>
      <point x="121" y="-5" type="qcurve"/>
      <point x="100" y="-5"/>
      <point x="60" y="6"/>
      <point x="28" y="28"/>
      <point x="9" y="62"/>
      <point x="9" y="86" type="qcurve"/>
      <point x="9" y="111"/>
      <point x="34" y="145"/>
      <point x="71" y="166"/>
      <point x="116" y="176"/>
      <point x="137" y="176" type="qcurve"/>
      <point x="160" y="176"/>
      <point x="207" y="167"/>
      <point x="242" y="156" type="qcurve"/>
      <point x="242" y="197" type="line"/>
      <point x="242" y="237"/>
      <point x="193" y="274"/>
      <point x="152" y="274" type="qcurve"/>
      <point x="102" y="274"/>
      <point x="70" y="242" type="qcurve"/>
      <point x="40" y="242" type="line"/>
      <point x="40" y="314" type="line"/>
      <point x="75" y="323"/>
      <point x="146" y="333"/>
      <point x="183" y="333" type="qcurve"/>
      <point x="207" y="333"/>
      <point x="267" y="327"/>
      <point x="320" y="307"/>
      <point x="355" y="269"/>
      <point x="355" y="237" type="qcurve"/>
      <point x="355" y="65" type="line"/>
      <point x="380" y="65" type="line"/>
      <point x="380" y="1" type="line"/>
    </contour>
    <contour>
      <point x="243" y="135" type="line"/>
      <point x="230" y="141"/>
      <point x="205" y="150"/>
      <point x="191" y="150" type="qcurve"/>
      <point x="167" y="150"/>
      <point x="136" y="114"/>
      <point x="136" y="91" type="qcurve"/>
      <point x="136" y="69"/>
      <point x="163" y="37"/>
      <point x="187" y="37" type="qcurve"/>
      <point x="205" y="37"/>
      <point x="232" y="53"/>
      <point x="243" y="64" type="qcurve"/>
    </contour>
  </outline>
</glyph>
<glyph name="b" format="1">
  <advance width="427"/>
  <unicode hex="0062"/>
  <outline>
    <contour>
      <point x="173" y="44" type="qcurve"/>
      <point x="173" y="44"/>
      <point x="156" y="0" type="qcurve"/>
      <point x="156" y="0"/>
      <point x="38" y="0" type="qcurve"/>
      <point x="38" y="0"/>
      <point x="38" y="435" type="qcurve"/>
      <point x="38" y="435"/>
      <point x="10" y="435" type="qcurve"/>
      <point x="10" y="435"/>
      <point x="10" y="497" type="qcurve"/>
      <point x="10" y="497"/>
      <point x="161" y="497" type="qcurve"/>
      <point x="161" y="497"/>
      <point x="161" y="258" type="qcurve"/>
      <point x="173" y="267"/>
      <point x="202" y="289"/>
      <point x="233" y="308"/>
      <point x="266" y="321"/>
      <point x="282" y="321" type="qcurve"/>
      <point x="325" y="321"/>
      <point x="384" y="273"/>
      <point x="414" y="200"/>
      <point x="414" y="116"/>
      <point x="384" y="43"/>
      <point x="322" y="-5"/>
      <point x="274" y="-5" type="qcurve" name="hr01"/>
      <point x="242" y="-5"/>
      <point x="198" y="27"/>
    </contour>
    <contour>
      <point x="162" y="205" type="qcurve"/>
      <point x="162" y="105" type="line"/>
      <point x="176" y="88"/>
      <point x="204" y="70"/>
      <point x="226" y="70" type="qcurve"/>
      <point x="250" y="70"/>
      <point x="282" y="97"/>
      <point x="297" y="136"/>
      <point x="297" y="183"/>
      <point x="281" y="222"/>
      <point x="249" y="249"/>
      <point x="226" y="249" type="qcurve"/>
      <point x="202" y="249"/>
      <point x="175" y="222"/>
    </contour>
  </outline>
</glyph>
<glyph name="c" format="1">
  <advance width="339"/>
  <unicode hex="0063"/>
  <outline>
    <contour>
      <point x="183" y="-5" type="qcurve" name="hr00"/>
      <point x="139" y="-5"/>
      <point x="75" y="24"/>
      <point x="33" y="71"/>
      <point x="12" y="132"/>
      <point x="12" y="164" type="qcurve"/>
      <point x="12" y="197"/>
      <point x="33" y="258"/>
      <point x="74" y="305"/>
      <point x="133" y="333"/>
      <point x="172" y="333" type="qcurve"/>
      <point x="192" y="333"/>
      <point x="236" y="314"/>
      <point x="267" y="289" type="qcurve"/>
      <point x="288" y="326" type="line"/>
      <point x="316" y="326" type="line"/>
      <point x="316" y="215" type="line"/>
      <point x="269" y="215" type="line"/>
      <point x="263" y="239"/>
      <point x="225" y="268"/>
      <point x="201" y="265" type="qcurve"/>
      <point x="172" y="260"/>
      <point x="136" y="203"/>
      <point x="136" y="155" type="qcurve"/>
      <point x="136" y="111"/>
      <point x="176" y="64"/>
      <point x="205" y="62" type="qcurve"/>
      <point x="226" y="61"/>
      <point x="264" y="85"/>
      <point x="271" y="107" type="qcurve"/>
      <point x="317" y="107" type="line"/>
      <point x="317" y="32" type="line"/>
      <point x="292" y="11"/>
      <point x="220" y="-5"/>
    </contour>
  </outline>
</glyph>
<glyph name="d" format="1">
  <advance width="440"/>
  <unicode hex="0064"/>
  <outline>
    <contour>
      <point x="266" y="0" type="line"/>
      <point x="266" y="0"/>
      <point x="266" y="82" type="qcurve"/>
      <point x="246" y="55"/>
      <point x="213" y="20"/>
      <point x="185" y="1"/>
      <point x="160" y="-6"/>
      <point x="148" y="-6" type="qcurve"/>
      <point x="116" y="-6"/>
      <point x="66" y="21"/>
      <point x="32" y="66"/>
      <point x="14" y="125"/>
      <point x="14" y="157" type="qcurve"/>
      <point x="14" y="189"/>
      <point x="31" y="248"/>
      <point x="64" y="293"/>
      <point x="114" y="320"/>
      <point x="146" y="320" type="qcurve"/>
      <point x="159" y="320"/>
      <point x="183" y="315"/>
      <point x="210" y="300"/>
      <point x="243" y="273"/>
      <point x="265" y="251" type="qcurve"/>
      <point x="265" y="438" type="line"/>
      <point x="235" y="438" type="line" name="hr01"/>
      <point x="235" y="500" type="line"/>
      <point x="392" y="500" type="line"/>
      <point x="392" y="63" type="line"/>
      <point x="418" y="63" type="line" name="hr02"/>
      <point x="418" y="0" type="line"/>
    </contour>
    <contour>
      <point x="266" y="211" type="line"/>
      <point x="243" y="241"/>
      <point x="187" y="251"/>
      <point x="164" y="234" type="qcurve"/>
      <point x="143" y="217"/>
      <point x="126" y="157"/>
      <point x="137" y="119" type="qcurve"/>
      <point x="147" y="87"/>
      <point x="189" y="64"/>
      <point x="212" y="69" type="qcurve"/>
      <point x="221" y="70"/>
      <point x="240" y="79"/>
      <point x="256" y="92"/>
      <point x="266" y="108"/>
      <point x="266" y="118" type="qcurve" name="hr03"/>
    </contour>
  </outline>
</glyph>
<glyph name="e" format="1">
  <advance width="373"/>
  <unicode hex="0065"/>
  <outline>
    <contour>
      <point x="359" y="144" type="qcurve" name="hr00"/>
      <point x="359" y="144"/>
      <point x="336" y="144" type="qcurve"/>
      <point x="319" y="144"/>
      <point x="274" y="145"/>
      <point x="224" y="145"/>
      <point x="180" y="146"/>
      <point x="163" y="146" type="qcurve"/>
      <point x="141" y="146" type="line"/>
      <point x="141" y="117"/>
      <point x="152" y="77"/>
      <point x="171" y="52"/>
      <point x="196" y="39"/>
      <point x="210" y="37" type="qcurve"/>
      <point x="233" y="33"/>
      <point x="277" y="56"/>
      <point x="285" y="81" type="qcurve"/>
      <point x="352" y="81" type="line"/>
      <point x="352" y="36" type="line"/>
      <point x="312" y="13"/>
      <point x="234" y="-5"/>
      <point x="186" y="-5" type="qcurve"/>
      <point x="140" y="-5"/>
      <point x="70" y="30"/>
      <point x="26" y="87"/>
      <point x="8" y="157"/>
      <point x="18" y="227"/>
      <point x="58" y="290"/>
      <point x="94" y="310" type="qcurve"/>
      <point x="145" y="338"/>
      <point x="244" y="336"/>
      <point x="321" y="288"/>
      <point x="364" y="201"/>
    </contour>
    <contour>
      <point x="196" y="279" type="qcurve"/>
      <point x="170" y="277"/>
      <point x="141" y="222"/>
      <point x="141" y="174" type="qcurve"/>
      <point x="253" y="174" type="line"/>
      <point x="253" y="225"/>
      <point x="225" y="281"/>
    </contour>
  </outline>
</glyph>
<glyph name="f" format="1">
  <advance width="267"/>
  <unicode hex="0066"/>
  <outline>
    <contour>
      <point x="180" y="314" type="qcurve"/>
      <point x="180" y="314"/>
      <point x="254" y="314" type="qcurve"/>
      <point x="254" y="314"/>
      <point x="254" y="250" type="qcurve"/>
      <point x="254" y="250"/>
      <point x="182" y="250" type="qcurve" name="hr01"/>
      <point x="182" y="250"/>
      <point x="182" y="62" type="qcurve" name="hr02"/>
      <point x="182" y="62"/>
      <point x="231" y="62" type="qcurve" name="hr03"/>
      <point x="231" y="62"/>
      <point x="231" y="0" type="qcurve"/>
      <point x="231" y="0"/>
      <point x="29" y="0" type="qcurve"/>
      <point x="29" y="0"/>
      <point x="29" y="62" type="qcurve"/>
      <point x="29" y="62"/>
      <point x="58" y="62" type="qcurve"/>
      <point x="58" y="62"/>
      <point x="58" y="250" type="qcurve"/>
      <point x="58" y="250"/>
      <point x="29" y="250" type="qcurve"/>
      <point x="29" y="250"/>
      <point x="29" y="314" type="qcurve"/>
      <point x="29" y="314"/>
      <point x="60" y="314" type="qcurve" name="hr04"/>
      <point x="57" y="357"/>
      <point x="62" y="424"/>
      <point x="86" y="468"/>
      <point x="134" y="491"/>
      <point x="173" y="491" type="qcurve"/>
      <point x="191" y="491"/>
      <point x="245" y="486"/>
      <point x="263" y="481" type="qcurve"/>
      <point x="263" y="415" type="line"/>
      <point x="220" y="419"/>
      <point x="177" y="370"/>
    </contour>
  </outline>
</glyph>
<glyph name="g" format="1">
  <advance width="431"/>
  <unicode hex="0067"/>
  <outline>
    <contour>
      <point x="381" y="261" type="line"/>
      <point x="381" y="261"/>
      <point x="381" y="35" type="qcurve"/>
      <point x="381" y="-10"/>
      <point x="348" y="-69"/>
      <point x="290" y="-105"/>
      <point x="213" y="-119"/>
      <point x="168" y="-119" type="qcurve"/>
      <point x="161" y="-119"/>
      <point x="132" y="-117"/>
      <point x="99" y="-114"/>
      <point x="67" y="-109"/>
      <point x="58" y="-106" type="qcurve"/>
      <point x="58" y="-41" type="line"/>
      <point x="87" y="-49"/>
      <point x="161" y="-57"/>
      <point x="226" y="-42"/>
      <point x="270" y="6"/>
      <point x="269" y="53" type="qcurve"/>
      <point x="249" y="39"/>
      <point x="216" y="25"/>
      <point x="189" y="20"/>
      <point x="177" y="20" type="qcurve"/>
      <point x="154" y="20" type="line"/>
      <point x="111" y="20"/>
      <point x="53" y="54"/>
      <point x="20" y="110"/>
      <point x="12" y="180"/>
      <point x="21" y="215" type="qcurve"/>
      <point x="29" y="248"/>
      <point x="69" y="304"/>
      <point x="132" y="332"/>
      <point x="219" y="324"/>
      <point x="276" y="294" type="qcurve"/>
      <point x="290" y="326" type="line"/>
      <point x="410" y="326" type="line"/>
      <point x="410" y="261" type="line"/>
    </contour>
    <contour>
      <point x="204" y="262" type="qcurve"/>
      <point x="172" y="264"/>
      <point x="137" y="209"/>
      <point x="137" y="167" type="qcurve"/>
      <point x="137" y="125"/>
      <point x="172" y="70"/>
      <point x="203" y="70" type="qcurve" name="hr01"/>
      <point x="233" y="70"/>
      <point x="268" y="124"/>
      <point x="268" y="164" type="qcurve" name="hr02"/>
      <point x="268" y="205"/>
      <point x="233" y="260"/>
    </contour>
  </outline>
</glyph>
<glyph name="h" format="1">
  <advance width="443"/>
  <unicode hex="0068"/>
  <outline>
    <contour>
      <point x="285" y="0" type="line"/>
      <point x="285" y="0"/>
      <point x="285" y="184" type="qcurve"/>
      <point x="285" y="211"/>
      <point x="247" y="246"/>
      <point x="224" y="245" type="qcurve" name="hr01"/>
      <point x="203" y="244"/>
      <point x="163" y="212"/>
      <point x="163" y="187" type="qcurve"/>
      <point x="163" y="62" type="line"/>
      <point x="202" y="62" type="line"/>
      <point x="202" y="0" type="line"/>
      <point x="22" y="0" type="line"/>
      <point x="22" y="62" type="line"/>
      <point x="48" y="62" type="line" name="hr02"/>
      <point x="48" y="437" type="line"/>
      <point x="20" y="437" type="line"/>
      <point x="20" y="500" type="line"/>
      <point x="163" y="500" type="line" name="hr03"/>
      <point x="161" y="249" type="line"/>
      <point x="186" y="276"/>
      <point x="223" y="305"/>
      <point x="254" y="318"/>
      <point x="283" y="319"/>
      <point x="299" y="319" type="qcurve"/>
      <point x="351" y="319"/>
      <point x="400" y="263"/>
      <point x="400" y="211" type="qcurve"/>
      <point x="400" y="62" type="line"/>
      <point x="428" y="62" type="line" name="hr04"/>
      <point x="428" y="0" type="line"/>
    </contour>
  </outline>
</glyph>
<glyph name="i" format="1">
  <advance width="248"/>
  <unicode hex="0069"/>
  <outline>
    <contour>
      <point x="32" y="435" type="qcurve"/>
      <point x="32" y="457"/>
      <point x="56" y="486"/>
      <point x="93" y="500"/>
      <point x="136" y="500"/>
      <point x="173" y="485"/>
      <point x="198" y="456"/>
      <point x="198" y="435" type="qcurve"/>
      <point x="198" y="400"/>
      <point x="147" y="367"/>
      <point x="84" y="368"/>
      <point x="32" y="402"/>
    </contour>
    <contour>
      <point x="30" y="0" type="line" name="hr01"/>
      <point x="30" y="62" type="line"/>
      <point x="71" y="62" type="line"/>
      <point x="71" y="250" type="line"/>
      <point x="28" y="250" type="line" name="hr02"/>
      <point x="28" y="314" type="line"/>
      <point x="187" y="314" type="line" name="hr03"/>
      <point x="187" y="62" type="line"/>
      <point x="227" y="62" type="line"/>
      <point x="227" y="0" type="line"/>
    </contour>
  </outline>
</glyph>
<glyph name="j" format="1">
  <advance width="235"/>
  <unicode hex="006A"/>
  <outline>
    <contour>
      <point x="32" y="436" type="qcurve"/>
      <point x="32" y="457"/>
      <point x="57" y="485"/>
      <point x="95" y="498"/>
      <point x="138" y="497"/>
      <point x="176" y="483"/>
      <point x="201" y="456"/>
      <point x="201" y="436" type="qcurve"/>
      <point x="201" y="416"/>
      <point x="176" y="389"/>
      <point x="138" y="375"/>
      <point x="95" y="374"/>
      <point x="57" y="387"/>
      <point x="32" y="414"/>
    </contour>
    <contour>
      <point x="16" y="-121" type="qcurve"/>
      <point x="15" y="-52" type="line"/>
      <point x="21" y="-51"/>
      <point x="39" y="-45"/>
      <point x="55" y="-35"/>
      <point x="66" y="-22"/>
      <point x="66" y="-14" type="qcurve"/>
      <point x="66" y="253" type="line" name="hr01"/>
      <point x="21" y="253" type="line"/>
      <point x="21" y="317" type="line" name="hr02"/>
      <point x="200" y="317" type="line"/>
      <point x="200" y="30" type="line" name="hr03"/>
      <point x="200" y="-17"/>
      <point x="173" y="-74"/>
      <point x="125" y="-107"/>
      <point x="57" y="-120"/>
    </contour>
  </outline>
</glyph>
<glyph name="k" format="1">
  <advance width="421"/>
  <unicode hex="006B"/>
  <outline>
    <contour>
      <point x="280" y="0" type="line"/>
      <point x="280" y="0"/>
      <point x="165" y="152" type="qcurve"/>
      <point x="165" y="152"/>
      <point x="165" y="0" type="qcurve"/>
      <point x="165" y="0"/>
      <point x="21" y="0" type="qcurve"/>
      <point x="21" y="0"/>
      <point x="21" y="62" type="qcurve"/>
      <point x="21" y="62"/>
      <point x="48" y="62" type="qcurve"/>
      <point x="48" y="62"/>
      <point x="48" y="437" type="qcurve"/>
      <point x="48" y="437"/>
      <point x="21" y="437" type="qcurve"/>
      <point x="21" y="437"/>
      <point x="21" y="498" type="qcurve"/>
      <point x="21" y="498"/>
      <point x="165" y="498" type="qcurve"/>
      <point x="165" y="498"/>
      <point x="165" y="188" type="qcurve"/>
      <point x="165" y="188"/>
      <point x="261" y="259" type="qcurve"/>
      <point x="261" y="259"/>
      <point x="229" y="259" type="qcurve"/>
      <point x="229" y="259"/>
      <point x="229" y="324" type="qcurve"/>
      <point x="229" y="324"/>
      <point x="386" y="324" type="qcurve"/>
      <point x="386" y="324"/>
      <point x="386" y="259" type="qcurve" name="hr01"/>
      <point x="386" y="259"/>
      <point x="347" y="259" type="qcurve"/>
      <point x="348" y="259"/>
      <point x="321" y="230"/>
      <point x="288" y="195"/>
      <point x="274" y="180" type="qcurve" name="hr02"/>
      <point x="261" y="166" type="line"/>
      <point x="363" y="62" type="line"/>
      <point x="402" y="62" type="line"/>
      <point x="402" y="0" type="line"/>
    </contour>
  </outline>
</glyph>
<glyph name="l" format="1">
  <advance width="242"/>
  <unicode hex="006C"/>
  <outline>
    <contour>
      <point x="24" y="0" type="qcurve" name="hr00"/>
      <point x="24" y="0"/>
      <point x="24" y="62" type="qcurve"/>
      <point x="24" y="62"/>
      <point x="60" y="62" type="qcurve"/>
      <point x="60" y="62"/>
      <point x="60" y="432" type="qcurve"/>
      <point x="60" y="432"/>
      <point x="20" y="432" type="qcurve"/>
      <point x="20" y="432"/>
      <point x="20" y="497" type="qcurve"/>
      <point x="20" y="497"/>
      <point x="181" y="497" type="qcurve"/>
      <point x="181" y="497"/>
      <point x="181" y="62" type="qcurve"/>
      <point x="181" y="62"/>
      <point x="220" y="62" type="qcurve"/>
      <point x="220" y="62"/>
      <point x="220" y="0" type="qcurve"/>
      <point x="220" y="0"/>
    </contour>
  </outline>
</glyph>
<glyph name="m" format="1">
  <advance width="632"/>
  <unicode hex="006D"/>
  <outline>
    <contour>
      <point x="491" y="0" type="line"/>
      <point x="491" y="0"/>
      <point x="491" y="197" type="qcurve"/>
      <point x="491" y="210"/>
      <point x="478" y="232"/>
      <point x="459" y="247"/>
      <point x="435" y="254"/>
      <point x="425" y="254" type="qcurve" name="hr01"/>
      <point x="402" y="252"/>
      <point x="369" y="213"/>
      <point x="369" y="178" type="qcurve"/>
      <point x="369" y="65" type="line"/>
      <point x="399" y="65" type="line"/>
      <point x="399" y="0" type="line"/>
      <point x="277" y="0" type="line"/>
      <point x="277" y="198" type="line"/>
      <point x="277" y="213"/>
      <point x="265" y="233"/>
      <point x="245" y="245"/>
      <point x="222" y="251"/>
      <point x="212" y="251" type="qcurve" name="hr02"/>
      <point x="188" y="251"/>
      <point x="161" y="204"/>
      <point x="159" y="169" type="qcurve"/>
      <point x="157" y="143"/>
      <point x="159" y="87"/>
      <point x="159" y="64" type="qcurve" name="hr03"/>
      <point x="184" y="64" type="line"/>
      <point x="184" y="0" type="line" name="hr04"/>
      <point x="29" y="0" type="line"/>
      <point x="29" y="63" type="line" name="hr05"/>
      <point x="62" y="63" type="line"/>
      <point x="62" y="259" type="line"/>
      <point x="29" y="259" type="line"/>
      <point x="29" y="326" type="line"/>
      <point x="159" y="326" type="line" name="hr06"/>
      <point x="159" y="242" type="line"/>
      <point x="178" y="285"/>
      <point x="236" y="330"/>
      <point x="296" y="331"/>
      <point x="352" y="290"/>
      <point x="369" y="248" type="qcurve" name="hr07"/>
      <point x="395" y="297"/>
      <point x="471" y="336"/>
      <point x="541" y="326"/>
      <point x="591" y="272"/>
      <point x="591" y="228" type="qcurve"/>
      <point x="591" y="65" type="line"/>
      <point x="615" y="65" type="line" name="hr08"/>
      <point x="615" y="0" type="line"/>
    </contour>
  </outline>
</glyph>
<glyph name="n" format="1">
  <advance width="452"/>
  <unicode hex="006E"/>
  <outline>
    <contour>
      <point x="293" y="0" type="line"/>
      <point x="293" y="0"/>
      <point x="293" y="194" type="qcurve"/>
      <point x="293" y="217"/>
      <point x="256" y="251"/>
      <point x="233" y="251" type="qcurve" name="hr01"/>
      <point x="207" y="251"/>
      <point x="180" y="216"/>
      <point x="180" y="193" type="qcurve"/>
      <point x="180" y="65" type="line"/>
      <point x="208" y="65" type="line"/>
      <point x="208" y="0" type="line"/>
      <point x="28" y="0" type="line"/>
      <point x="28" y="65" type="line"/>
      <point x="65" y="65" type="line" name="hr02"/>
      <point x="65" y="259" type="line"/>
      <point x="30" y="259" type="line"/>
      <point x="30" y="326" type="line"/>
      <point x="180" y="326" type="line" name="hr03"/>
      <point x="180" y="252" type="line"/>
      <point x="212" y="299"/>
      <point x="283" y="333"/>
      <point x="318" y="333" type="qcurve" name="hr04"/>
      <point x="363" y="333"/>
      <point x="409" y="278"/>
      <point x="409" y="212" type="qcurve"/>
      <point x="409" y="65" type="line"/>
      <point x="436" y="65" type="line" name="hr05"/>
      <point x="436" y="0" type="line"/>
    </contour>
  </outline>
</glyph>
<glyph name="o" format="1">
  <advance width="393"/>
  <unicode hex="006F"/>
  <outline>
    <contour>
      <point x="197" y="-5" type="qcurve" name="hr00"/>
      <point x="157" y="-5"/>
      <point x="89" y="18"/>
      <point x="40" y="61"/>
      <point x="13" y="125"/>
      <point x="13" y="167" type="qcurve"/>
      <point x="13" y="209"/>
      <point x="40" y="272"/>
      <point x="89" y="313"/>
      <point x="156" y="333"/>
      <point x="196" y="333" type="qcurve"/>
      <point x="236" y="333"/>
      <point x="303" y="313"/>
      <point x="352" y="272"/>
      <point x="380" y="210"/>
      <point x="380" y="167" type="qcurve"/>
      <point x="380" y="126"/>
      <point x="353" y="62"/>
      <point x="304" y="18"/>
      <point x="237" y="-5"/>
    </contour>
    <contour>
      <point x="131" y="166" type="qcurve"/>
      <point x="131" y="149"/>
      <point x="136" y="113"/>
      <point x="150" y="82"/>
      <point x="176" y="62"/>
      <point x="197" y="62" type="qcurve"/>
      <point x="218" y="62"/>
      <point x="243" y="82"/>
      <point x="258" y="113"/>
      <point x="263" y="150"/>
      <point x="263" y="166" type="qcurve"/>
      <point x="263" y="217"/>
      <point x="222" y="269"/>
      <point x="172" y="269"/>
      <point x="131" y="218"/>
    </contour>
  </outline>
</glyph>
<glyph name="p" format="1">
  <advance width="439"/>
  <unicode hex="0070"/>
  <outline>
    <contour>
      <point x="159" y="58" type="qcurve"/>
      <point x="159" y="58"/>
      <point x="159" y="-59" type="qcurve"/>
      <point x="159" y="-59"/>
      <point x="207" y="-59" type="qcurve"/>
      <point x="207" y="-59"/>
      <point x="207" y="-121" type="qcurve"/>
      <point x="207" y="-121"/>
      <point x="20" y="-121" type="qcurve"/>
      <point x="20" y="-121"/>
      <point x="20" y="-59" type="qcurve"/>
      <point x="20" y="-59"/>
      <point x="48" y="-59" type="qcurve"/>
      <point x="48" y="-59"/>
      <point x="48" y="261" type="qcurve"/>
      <point x="48" y="261"/>
      <point x="23" y="261" type="qcurve"/>
      <point x="23" y="261"/>
      <point x="23" y="326" type="qcurve"/>
      <point x="23" y="326"/>
      <point x="159" y="326" type="qcurve"/>
      <point x="159" y="326"/>
      <point x="159" y="277" type="qcurve" name="hr01"/>
      <point x="166" y="282"/>
      <point x="192" y="301"/>
      <point x="227" y="319"/>
      <point x="269" y="333"/>
      <point x="293" y="333" type="qcurve"/>
      <point x="338" y="333"/>
      <point x="398" y="284"/>
      <point x="428" y="212"/>
      <point x="428" y="126"/>
      <point x="398" y="54"/>
      <point x="338" y="5"/>
      <point x="293" y="5" type="qcurve" name="hr02"/>
      <point x="279" y="5"/>
      <point x="251" y="7"/>
      <point x="220" y="17"/>
      <point x="183" y="38"/>
    </contour>
    <contour>
      <point x="239" y="254" type="qcurve"/>
      <point x="229" y="254"/>
      <point x="201" y="249"/>
      <point x="176" y="237"/>
      <point x="159" y="218"/>
      <point x="159" y="205" type="qcurve"/>
      <point x="159" y="126" type="line"/>
      <point x="159" y="113"/>
      <point x="176" y="93"/>
      <point x="201" y="80"/>
      <point x="229" y="74"/>
      <point x="240" y="75" type="qcurve"/>
      <point x="269" y="77"/>
      <point x="317" y="125"/>
      <point x="317" y="171" type="qcurve"/>
      <point x="317" y="192"/>
      <point x="303" y="222"/>
      <point x="280" y="243"/>
      <point x="252" y="253"/>
    </contour>
  </outline>
</glyph>
<glyph name="q" format="1">
  <advance width="439"/>
  <unicode hex="0071"/>
  <outline>
    <contour>
      <point x="237" y="-121" type="line" name="hr00"/>
      <point x="237" y="-121"/>
      <point x="237" y="-59" type="qcurve"/>
      <point x="237" y="-59"/>
      <point x="284" y="-59" type="qcurve"/>
      <point x="284" y="-59"/>
      <point x="284" y="75" type="qcurve"/>
      <point x="284" y="73"/>
      <point x="267" y="50"/>
      <point x="234" y="25"/>
      <point x="184" y="5"/>
      <point x="151" y="5" type="qcurve"/>
      <point x="108" y="5"/>
      <point x="49" y="54"/>
      <point x="19" y="126"/>
      <point x="18" y="212"/>
      <point x="47" y="284"/>
      <point x="107" y="333"/>
      <point x="154" y="333" type="qcurve"/>
      <point x="184" y="333"/>
      <point x="230" y="321"/>
      <point x="262" y="308"/>
      <point x="270" y="302" type="qcurve"/>
      <point x="278" y="297" type="line"/>
      <point x="299" y="326" type="line"/>
      <point x="421" y="326" type="line"/>
      <point x="421" y="261" type="line"/>
      <point x="386" y="261" type="line"/>
      <point x="386" y="-59" type="line"/>
      <point x="424" y="-59" type="line"/>
      <point x="424" y="-121" type="line"/>
    </contour>
    <contour>
      <point x="211" y="264" type="qcurve"/>
      <point x="181" y="264"/>
      <point x="143" y="237"/>
      <point x="125" y="196"/>
      <point x="126" y="149"/>
      <point x="146" y="108"/>
      <point x="184" y="81"/>
      <point x="212" y="81" type="qcurve"/>
      <point x="233" y="81"/>
      <point x="261" y="108"/>
      <point x="274" y="149"/>
      <point x="275" y="196"/>
      <point x="260" y="237"/>
      <point x="232" y="264"/>
    </contour>
  </outline>
</glyph>
<glyph name="r" format="1">
  <advance width="305"/>
  <unicode hex="0072"/>
  <outline>
    <contour>
      <point x="281" y="230" type="line"/>
      <point x="257" y="232"/>
      <point x="215" y="218"/>
      <point x="184" y="190"/>
      <point x="166" y="150"/>
      <point x="166" y="126" type="qcurve"/>
      <point x="166" y="65" type="line" name="hr01"/>
      <point x="225" y="65" type="line"/>
      <point x="225" y="0" type="line"/>
      <point x="29" y="0" type="line"/>
      <point x="29" y="65" type="line" name="hr02"/>
      <point x="57" y="65" type="line"/>
      <point x="57" y="260" type="line" name="hr03"/>
      <point x="29" y="260" type="line"/>
      <point x="29" y="327" type="line" name="hr04"/>
      <point x="169" y="327" type="line"/>
      <point x="169" y="262" type="line"/>
      <point x="192" y="286"/>
      <point x="263" y="323"/>
      <point x="297" y="328" type="qcurve" name="hr05"/>
      <point x="297" y="229" type="line"/>
    </contour>
  </outline>
</glyph>
<glyph name="s" format="1">
  <advance width="322"/>
  <unicode hex="0073"/>
  <outline>
    <contour>
      <point x="180" y="-5" type="qcurve" name="hr00"/>
      <point x="153" y="-5"/>
      <point x="99" y="10"/>
      <point x="67" y="38" type="qcurve"/>
      <point x="49" y="4" type="line"/>
      <point x="20" y="4" type="line"/>
      <point x="22" y="93" type="line"/>
      <point x="64" y="93" type="line"/>
      <point x="74" y="64"/>
      <point x="110" y="35"/>
      <point x="132" y="33" type="qcurve"/>
      <point x="142" y="32"/>
      <point x="165" y="37"/>
      <point x="184" y="49"/>
      <point x="196" y="67"/>
      <point x="196" y="79" type="qcurve"/>
      <point x="196" y="96"/>
      <point x="174" y="119"/>
      <point x="143" y="134"/>
      <point x="109" y="143"/>
      <point x="97" y="148" type="qcurve"/>
      <point x="66" y="159"/>
      <point x="23" y="196"/>
      <point x="23" y="235" type="qcurve"/>
      <point x="23" y="268"/>
      <point x="53" y="309"/>
      <point x="97" y="330"/>
      <point x="147" y="336"/>
      <point x="167" y="335" type="qcurve"/>
      <point x="199" y="333"/>
      <point x="249" y="308"/>
      <point x="254" y="301" type="qcurve"/>
      <point x="270" y="330" type="line"/>
      <point x="297" y="330" type="line"/>
      <point x="297" y="259" type="line"/>
      <point x="261" y="259" type="line"/>
      <point x="259" y="269"/>
      <point x="240" y="287"/>
      <point x="215" y="300"/>
      <point x="186" y="307"/>
      <point x="174" y="306" type="qcurve"/>
      <point x="166" y="305"/>
      <point x="146" y="292"/>
      <point x="135" y="273"/>
      <point x="139" y="248"/>
      <point x="155" y="236" type="qcurve"/>
      <point x="173" y="222"/>
      <point x="214" y="213"/>
      <point x="234" y="207" type="qcurve"/>
      <point x="266" y="197"/>
      <point x="304" y="147"/>
      <point x="304" y="115" type="qcurve"/>
      <point x="304" y="-5"/>
    </contour>
  </outline>
</glyph>
<glyph name="t" format="1">
  <advance width="266"/>
  <unicode hex="0074"/>
  <outline>
    <contour>
      <point x="254" y="10" type="line" name="hr00"/>
      <point x="236" y="2"/>
      <point x="186" y="-5"/>
      <point x="166" y="-5" type="qcurve"/>
      <point x="106" y="-5"/>
      <point x="50" y="49"/>
      <point x="50" y="109" type="qcurve"/>
      <point x="52" y="253" type="line"/>
      <point x="13" y="253" type="line"/>
      <point x="13" y="318" type="line"/>
      <point x="49" y="318" type="line"/>
      <point x="49" y="398" type="line"/>
      <point x="173" y="424" type="line"/>
      <point x="173" y="318" type="line"/>
      <point x="236" y="318" type="line"/>
      <point x="236" y="253" type="line"/>
      <point x="173" y="253" type="line"/>
      <point x="171" y="127" type="line"/>
      <point x="171" y="107"/>
      <point x="186" y="84"/>
      <point x="210" y="74"/>
      <point x="240" y="72"/>
      <point x="255" y="74" type="qcurve"/>
      <point x="255" y="10" type="line"/>
    </contour>
  </outline>
</glyph>
<glyph name="u" format="1">
  <advance width="447"/>
  <unicode hex="0075"/>
  <outline>
    <contour>
      <point x="272" y="1" type="line"/>
      <point x="272" y="1"/>
      <point x="272" y="80" type="qcurve"/>
      <point x="258" y="38"/>
      <point x="195" y="-7"/>
      <point x="159" y="-7" type="qcurve" name="hr01"/>
      <point x="137" y="-7"/>
      <point x="95" y="6"/>
      <point x="63" y="35"/>
      <point x="43" y="80"/>
      <point x="43" y="112" type="qcurve"/>
      <point x="43" y="260" type="line"/>
      <point x="16" y="260" type="line"/>
      <point x="16" y="327" type="line" name="hr02"/>
      <point x="159" y="327" type="line"/>
      <point x="159" y="131" type="line"/>
      <point x="159" y="108"/>
      <point x="197" y="78"/>
      <point x="220" y="78" type="qcurve"/>
      <point x="233" y="78"/>
      <point x="253" y="91"/>
      <point x="266" y="112"/>
      <point x="272" y="137"/>
      <point x="272" y="148" type="qcurve"/>
      <point x="272" y="260" type="line"/>
      <point x="246" y="260" type="line"/>
      <point x="246" y="327" type="line" name="hr03"/>
      <point x="389" y="327" type="line"/>
      <point x="389" y="65" type="line"/>
      <point x="424" y="65" type="line" name="hr04"/>
      <point x="424" y="1" type="line"/>
    </contour>
  </outline>
</glyph>
<glyph name="v" format="1">
  <advance width="401"/>
  <unicode hex="0076"/>
  <outline>
    <contour>
      <point x="353" y="221" type="qcurve" name="hr00"/>
      <point x="353" y="221"/>
      <point x="261" y="0" type="qcurve"/>
      <point x="261" y="0"/>
      <point x="128" y="0" type="qcurve"/>
      <point x="128" y="0"/>
      <point x="21" y="260" type="qcurve"/>
      <point x="21" y="260"/>
      <point x="2" y="260" type="qcurve"/>
      <point x="2" y="260"/>
      <point x="2" y="327" type="qcurve"/>
      <point x="2" y="327"/>
      <point x="180" y="327" type="qcurve"/>
      <point x="180" y="327"/>
      <point x="180" y="260" type="qcurve"/>
      <point x="180" y="260"/>
      <point x="140" y="260" type="qcurve"/>
      <point x="140" y="260"/>
      <point x="226" y="42" type="qcurve"/>
      <point x="226" y="42"/>
      <point x="287" y="205" type="qcurve"/>
      <point x="304" y="250"/>
      <point x="254" y="258" type="qcurve"/>
      <point x="254" y="258"/>
      <point x="254" y="327" type="qcurve"/>
      <point x="254" y="327"/>
      <point x="399" y="327" type="qcurve"/>
      <point x="399" y="327"/>
      <point x="399" y="258" type="qcurve"/>
      <point x="382" y="256"/>
      <point x="361" y="238"/>
    </contour>
  </outline>
</glyph>
<glyph name="w" format="1">
  <advance width="588"/>
  <unicode hex="0077"/>
  <outline>
    <contour>
      <point x="538" y="218" type="qcurve" name="hr00"/>
      <point x="530" y="202"/>
      <point x="522" y="168"/>
      <point x="517" y="151" type="qcurve"/>
      <point x="472" y="0" type="line"/>
      <point x="345" y="0" type="line"/>
      <point x="290" y="190" type="line"/>
      <point x="226" y="0" type="line"/>
      <point x="109" y="0" type="line"/>
      <point x="25" y="260" type="line"/>
      <point x="8" y="260" type="line"/>
      <point x="8" y="327" type="line"/>
      <point x="186" y="327" type="line"/>
      <point x="186" y="260" type="line"/>
      <point x="143" y="260" type="line"/>
      <point x="204" y="48" type="line"/>
      <point x="286" y="327" type="line"/>
      <point x="345" y="327" type="line"/>
      <point x="353" y="299"/>
      <point x="369" y="241"/>
      <point x="389" y="174"/>
      <point x="415" y="97"/>
      <point x="433" y="50" type="qcurve"/>
      <point x="476" y="208" type="line"/>
      <point x="483" y="234"/>
      <point x="460" y="256"/>
      <point x="442" y="259" type="qcurve"/>
      <point x="442" y="327" type="line"/>
      <point x="586" y="327" type="line"/>
      <point x="586" y="258" type="line"/>
      <point x="569" y="253"/>
      <point x="546" y="232"/>
    </contour>
  </outline>
</glyph>
<glyph name="x" format="1">
  <advance width="366"/>
  <unicode hex="0078"/>
  <outline>
    <contour>
      <point x="231" y="0" type="qcurve" name="hr00"/>
      <point x="231" y="0"/>
      <point x="158" y="108" type="qcurve"/>
      <point x="158" y="108"/>
      <point x="77" y="0" type="qcurve"/>
      <point x="77" y="0"/>
      <point x="12" y="0" type="qcurve"/>
      <point x="12" y="0"/>
      <point x="12" y="65" type="qcurve"/>
      <point x="12" y="65"/>
      <point x="46" y="65" type="qcurve"/>
      <point x="46" y="65"/>
      <point x="123" y="154" type="qcurve"/>
      <point x="123" y="154"/>
      <point x="47" y="260" type="qcurve"/>
      <point x="47" y="260"/>
      <point x="19" y="260" type="qcurve"/>
      <point x="19" y="260"/>
      <point x="19" y="327" type="qcurve"/>
      <point x="19" y="327"/>
      <point x="150" y="327" type="qcurve"/>
      <point x="150" y="327"/>
      <point x="214" y="226" type="qcurve"/>
      <point x="214" y="226"/>
      <point x="288" y="327" type="qcurve"/>
      <point x="288" y="327"/>
      <point x="345" y="327" type="qcurve"/>
      <point x="345" y="327"/>
      <point x="345" y="260" type="qcurve"/>
      <point x="345" y="260"/>
      <point x="319" y="260" type="qcurve"/>
      <point x="319" y="260"/>
      <point x="247" y="180" type="qcurve"/>
      <point x="247" y="180"/>
      <point x="328" y="65" type="qcurve"/>
      <point x="328" y="65"/>
      <point x="356" y="65" type="qcurve"/>
      <point x="356" y="65"/>
      <point x="356" y="0" type="qcurve"/>
      <point x="356" y="0"/>
    </contour>
  </outline>
</glyph>
<glyph name="y" format="1">
  <advance width="420"/>
  <unicode hex="0079"/>
  <outline>
    <contour>
      <point x="385" y="243" type="qcurve" name="hr00"/>
      <point x="385" y="243"/>
      <point x="375" y="229" type="qcurve"/>
      <point x="371" y="225"/>
      <point x="366" y="215"/>
      <point x="362" y="208" type="qcurve"/>
      <point x="222" y="-55" type="line"/>
      <point x="312" y="-55" type="line"/>
      <point x="312" y="-115" type="line"/>
      <point x="131" y="-115" type="line"/>
      <point x="188" y="2" type="line"/>
      <point x="22" y="262" type="line"/>
      <point x="1" y="262" type="line"/>
      <point x="1" y="327" type="line"/>
      <point x="189" y="327" type="line"/>
      <point x="189" y="262" type="line"/>
      <point x="153" y="262" type="line"/>
      <point x="245" y="99" type="line"/>
      <point x="294" y="202" type="line"/>
      <point x="297" y="208"/>
      <point x="301" y="223"/>
      <point x="300" y="238"/>
      <point x="292" y="252"/>
      <point x="283" y="257" type="qcurve"/>
      <point x="280" y="258"/>
      <point x="271" y="260"/>
      <point x="264" y="261" type="qcurve"/>
      <point x="264" y="327" type="line"/>
      <point x="419" y="327" type="line"/>
      <point x="419" y="260" type="line"/>
      <point x="399" y="257"/>
    </contour>
  </outline>
</glyph>
<glyph name="z" format="1">
  <advance width="370"/>
  <unicode hex="007A"/>
  <outline>
    <contour>
      <point x="149" y="65" type="line" name="hr00"/>
      <point x="160" y="65"/>
      <point x="194" y="66"/>
      <point x="230" y="66"/>
      <point x="263" y="67"/>
      <point x="274" y="67" type="qcurve"/>
      <point x="292" y="67"/>
      <point x="315" y="95"/>
      <point x="322" y="115" type="qcurve"/>
      <point x="350" y="115" type="line"/>
      <point x="350" y="0" type="line"/>
      <point x="20" y="0" type="line"/>
      <point x="20" y="68" type="line"/>
      <point x="70" y="116"/>
      <point x="169" y="211"/>
      <point x="218" y="260" type="qcurve"/>
      <point x="190" y="258"/>
      <point x="162" y="258" type="qcurve"/>
      <point x="104" y="258" type="line"/>
      <point x="88" y="258"/>
      <point x="64" y="235"/>
      <point x="59" y="217" type="qcurve"/>
      <point x="28" y="217" type="line"/>
      <point x="28" y="327" type="line"/>
      <point x="338" y="327" type="line"/>
      <point x="338" y="259" type="line"/>
      <point x="333" y="254"/>
      <point x="302" y="222"/>
      <point x="260" y="179"/>
      <point x="213" y="131"/>
      <point x="174" y="91"/>
      <point x="162" y="78" type="qcurve"/>
    </contour>
  </outline>
</glyph>
<glyph name="braceleft" format="1">
  <advance width="266"/>
  <unicode hex="007B"/>
  <outline>
    <contour>
      <point x="109" y="45" type="qcurve" name="hr00"/>
      <point x="85" y="68"/>
      <point x="60" y="129"/>
      <point x="60" y="164" type="qcurve"/>
      <point x="60" y="178"/>
      <point x="54" y="197"/>
      <point x="47" y="208" type="qcurve"/>
      <point x="40" y="219"/>
      <point x="16" y="232"/>
      <point x="1" y="234" type="qcurve"/>
      <point x="1" y="280" type="line"/>
      <point x="33" y="286"/>
      <point x="47" y="306" type="qcurve"/>
      <point x="55" y="317"/>
      <point x="60" y="337"/>
      <point x="60" y="350" type="qcurve"/>
      <point x="60" y="422"/>
      <point x="109" y="469" type="qcurve"/>
      <point x="131" y="490"/>
      <point x="201" y="517"/>
      <point x="249" y="519" type="qcurve"/>
      <point x="249" y="447" type="line"/>
      <point x="218" y="440"/>
      <point x="178" y="386"/>
      <point x="178" y="349" type="qcurve"/>
      <point x="178" y="334"/>
      <point x="169" y="307"/>
      <point x="146" y="284"/>
      <point x="106" y="264"/>
      <point x="76" y="256" type="qcurve"/>
      <point x="108" y="248"/>
      <point x="148" y="226"/>
      <point x="171" y="202"/>
      <point x="179" y="177"/>
      <point x="179" y="165" type="qcurve"/>
      <point x="179" y="128"/>
      <point x="218" y="75"/>
      <point x="249" y="68" type="qcurve"/>
      <point x="249" y="-4" type="line"/>
      <point x="201" y="-2"/>
      <point x="130" y="25"/>
    </contour>
  </outline>
</glyph>
<glyph name="bar" format="1">
  <advance width="195"/>
  <unicode hex="007C"/>
  <outline>
    <contour>
      <point x="44" y="0" type="qcurve" name="hr00"/>
      <point x="44" y="0"/>
      <point x="44" y="495" type="qcurve"/>
      <point x="44" y="495"/>
      <point x="145" y="495" type="qcurve"/>
      <point x="145" y="495"/>
      <point x="145" y="0" type="qcurve"/>
      <point x="145" y="0"/>
    </contour>
  </outline>
</glyph>
<glyph name="braceright" format="1">
  <advance width="266"/>
  <unicode hex="007D"/>
  <outline>
    <contour>
      <point x="264" y="234" type="line" name="hr00"/>
      <point x="249" y="232"/>
      <point x="225" y="219"/>
      <point x="218" y="208" type="qcurve"/>
      <point x="211" y="197"/>
      <point x="205" y="178"/>
      <point x="205" y="164" type="qcurve"/>
      <point x="205" y="129"/>
      <point x="180" y="68"/>
      <point x="156" y="45" type="qcurve"/>
      <point x="135" y="25"/>
      <point x="64" y="-2"/>
      <point x="16" y="-4" type="qcurve"/>
      <point x="16" y="68" type="line"/>
      <point x="47" y="75"/>
      <point x="86" y="128"/>
      <point x="86" y="165" type="qcurve"/>
      <point x="86" y="177"/>
      <point x="94" y="202"/>
      <point x="117" y="226"/>
      <point x="157" y="248"/>
      <point x="189" y="256" type="qcurve"/>
      <point x="159" y="264"/>
      <point x="119" y="284"/>
      <point x="96" y="307"/>
      <point x="87" y="334"/>
      <point x="87" y="349" type="qcurve"/>
      <point x="87" y="386"/>
      <point x="47" y="440"/>
      <point x="16" y="447" type="qcurve"/>
      <point x="16" y="519" type="line"/>
      <point x="64" y="517"/>
      <point x="134" y="490"/>
      <point x="156" y="469" type="qcurve"/>
      <point x="205" y="422"/>
      <point x="205" y="350" type="qcurve"/>
      <point x="205" y="337"/>
      <point x="210" y="317"/>
      <point x="218" y="306" type="qcurve"/>
      <point x="232" y="286"/>
      <point x="264" y="280" type="qcurve"/>
    </contour>
  </outline>
</glyph>
<glyph name="asciitilde" format="1">
  <advance width="393"/>
  <unicode hex="007E"/>
  <outline>
    <contour>
      <point x="35" y="201" type="qcurve"/>
      <point x="35" y="201"/>
      <point x="21" y="213" type="qcurve"/>
      <point x="32" y="238"/>
      <point x="52" y="289"/>
      <point x="67" y="312" type="qcurve"/>
      <point x="81" y="334"/>
      <point x="115" y="344"/>
      <point x="153" y="334"/>
      <point x="194" y="309"/>
      <point x="235" y="283"/>
      <point x="274" y="264"/>
      <point x="292" y="264" type="qcurve"/>
      <point x="302" y="264"/>
      <point x="324" y="280"/>
      <point x="344" y="302"/>
      <point x="360" y="325"/>
      <point x="366" y="333" type="qcurve"/>
      <point x="380" y="322" type="line"/>
      <point x="366" y="298"/>
      <point x="348" y="245"/>
      <point x="333" y="222" type="qcurve"/>
      <point x="319" y="200"/>
      <point x="285" y="190"/>
      <point x="248" y="201"/>
      <point x="207" y="227"/>
      <point x="167" y="253"/>
      <point x="127" y="273"/>
      <point x="109" y="273" type="qcurve"/>
      <point x="100" y="273"/>
      <point x="78" y="256"/>
      <point x="58" y="232"/>
      <point x="40" y="208"/>
    </contour>
  </outline>
</glyph>
<glyph name="cent" format="1">
  <advance width="350"/>
  <unicode hex="00A2"/>
  <outline>
    <contour>
      <point x="271" y="285" type="qcurve"/>
      <point x="271" y="285"/>
      <point x="292" y="320" type="qcurve"/>
      <point x="292" y="320"/>
      <point x="320" y="320" type="qcurve"/>
      <point x="320" y="320"/>
      <point x="320" y="213" type="qcurve"/>
      <point x="320" y="213"/>
      <point x="273" y="213" type="qcurve" name="hr01"/>
      <point x="271" y="219"/>
      <point x="268" y="231"/>
      <point x="258" y="245"/>
      <point x="238" y="260"/>
      <point x="220" y="269" type="qcurve"/>
      <point x="220" y="56" type="line" name="hr02"/>
      <point x="249" y="69"/>
      <point x="267" y="96"/>
      <point x="272" y="108" type="qcurve"/>
      <point x="321" y="108" type="line"/>
      <point x="321" y="36" type="line"/>
      <point x="303" y="22"/>
      <point x="248" y="2"/>
      <point x="211" y="0" type="qcurve"/>
      <point x="211" y="1" type="line"/>
      <point x="158" y="1"/>
      <point x="84" y="29"/>
      <point x="37" y="74"/>
      <point x="16" y="133"/>
      <point x="16" y="164" type="qcurve"/>
      <point x="16" y="195"/>
      <point x="38" y="254"/>
      <point x="78" y="299"/>
      <point x="138" y="327"/>
      <point x="176" y="327" type="qcurve" name="hr03"/>
      <point x="191" y="327"/>
      <point x="223" y="317"/>
      <point x="250" y="304"/>
      <point x="269" y="289"/>
    </contour>
    <contour>
      <point x="200" y="269" type="line"/>
      <point x="154" y="258"/>
      <point x="112" y="191"/>
      <point x="115" y="119"/>
      <point x="159" y="60"/>
      <point x="200" y="56" type="qcurve"/>
    </contour>
  </outline>
</glyph>
<glyph name="copyright" format="1">
  <advance width="551"/>
  <unicode hex="00A9"/>
  <outline>
    <contour>
      <point x="19" y="242" type="qcurve" name="hr00"/>
      <point x="19" y="324"/>
      <point x="95" y="433"/>
      <point x="209" y="486"/>
      <point x="342" y="485"/>
      <point x="456" y="430"/>
      <point x="532" y="322"/>
      <point x="532" y="242" type="qcurve"/>
      <point x="532" y="162"/>
      <point x="456" y="53"/>
      <point x="342" y="-2"/>
      <point x="209" y="-3"/>
      <point x="95" y="50"/>
      <point x="19" y="159"/>
    </contour>
    <contour>
      <point x="352" y="179" type="qcurve"/>
      <point x="379" y="179" type="line"/>
      <point x="379" y="122" type="line"/>
      <point x="364" y="113"/>
      <point x="339" y="99"/>
      <point x="313" y="88"/>
      <point x="284" y="83"/>
      <point x="266" y="83" type="qcurve"/>
      <point x="229" y="83"/>
      <point x="175" y="109"/>
      <point x="139" y="152"/>
      <point x="123" y="209"/>
      <point x="123" y="239" type="qcurve"/>
      <point x="124" y="270"/>
      <point x="142" y="327"/>
      <point x="175" y="370"/>
      <point x="220" y="395"/>
      <point x="249" y="395" type="qcurve"/>
      <point x="269" y="395"/>
      <point x="320" y="377"/>
      <point x="335" y="357" type="qcurve"/>
      <point x="342" y="389" type="line"/>
      <point x="376" y="389" type="line"/>
      <point x="376" y="295" type="line"/>
      <point x="351" y="295" type="line"/>
      <point x="347" y="321"/>
      <point x="315" y="354"/>
      <point x="293" y="358" type="qcurve"/>
      <point x="266" y="361"/>
      <point x="223" y="325"/>
      <point x="219" y="289" type="qcurve"/>
      <point x="217" y="270"/>
      <point x="216" y="213"/>
      <point x="229" y="161"/>
      <point x="259" y="123"/>
      <point x="288" y="123" type="qcurve"/>
      <point x="314" y="123"/>
      <point x="349" y="154"/>
    </contour>
    <contour>
      <point x="480" y="354" type="qcurve"/>
      <point x="450" y="403"/>
      <point x="361" y="456"/>
      <point x="263" y="469"/>
      <point x="165" y="445"/>
      <point x="87" y="388"/>
      <point x="38" y="300"/>
      <point x="38" y="243" type="qcurve"/>
      <point x="38" y="186"/>
      <point x="87" y="98"/>
      <point x="165" y="40"/>
      <point x="263" y="15"/>
      <point x="361" y="28"/>
      <point x="450" y="81"/>
      <point x="480" y="130" type="qcurve"/>
      <point x="512" y="183"/>
      <point x="512" y="301"/>
    </contour>
  </outline>
</glyph>
<glyph name="registered" format="1">
  <advance width="551"/>
  <unicode hex="00AE"/>
  <outline>
    <contour>
      <point x="281" y="-5" type="qcurve"/>
      <point x="225" y="-7"/>
      <point x="127" y="33"/>
      <point x="55" y="105"/>
      <point x="16" y="201"/>
      <point x="20" y="257" type="qcurve"/>
      <point x="23" y="306"/>
      <point x="69" y="390"/>
      <point x="140" y="452"/>
      <point x="230" y="488"/>
      <point x="278" y="489" type="qcurve"/>
      <point x="331" y="490"/>
      <point x="425" y="451"/>
      <point x="494" y="382"/>
      <point x="534" y="290"/>
      <point x="533" y="238" type="qcurve"/>
      <point x="531" y="187"/>
      <point x="490" y="100"/>
      <point x="421" y="35"/>
      <point x="331" y="-4"/>
    </contour>
    <contour>
      <point x="278" y="471" type="qcurve" name="hr01"/>
      <point x="234" y="471"/>
      <point x="154" y="439"/>
      <point x="90" y="383"/>
      <point x="48" y="307"/>
      <point x="44" y="264" type="qcurve"/>
      <point x="39" y="213"/>
      <point x="74" y="119"/>
      <point x="141" y="48"/>
      <point x="232" y="8"/>
      <point x="283" y="11" type="qcurve"/>
      <point x="338" y="14"/>
      <point x="423" y="56"/>
      <point x="479" y="121"/>
      <point x="508" y="200"/>
      <point x="508" y="240" type="qcurve" name="hr02"/>
      <point x="508" y="281"/>
      <point x="479" y="363"/>
      <point x="421" y="429"/>
      <point x="335" y="471"/>
    </contour>
    <contour>
      <point x="241" y="238" type="line"/>
      <point x="241" y="149" type="line" name="hr03"/>
      <point x="264" y="149" type="line"/>
      <point x="264" y="120" type="line"/>
      <point x="208" y="120" type="line"/>
      <point x="181" y="120"/>
      <point x="153" y="119" type="qcurve"/>
      <point x="153" y="148" type="line"/>
      <point x="181" y="148" type="line"/>
      <point x="181" y="349" type="line"/>
      <point x="153" y="349" type="line" name="hr04"/>
      <point x="153" y="378" type="line"/>
      <point x="319" y="378" type="line"/>
      <point x="348" y="378"/>
      <point x="384" y="359"/>
      <point x="400" y="330"/>
      <point x="397" y="297"/>
      <point x="377" y="268"/>
      <point x="341" y="250"/>
      <point x="317" y="251" type="qcurve"/>
      <point x="345" y="246"/>
      <point x="372" y="229"/>
      <point x="382" y="208"/>
      <point x="382" y="185"/>
      <point x="384" y="166"/>
      <point x="395" y="151"/>
      <point x="412" y="148" type="qcurve" name="hr05"/>
      <point x="412" y="120" type="line"/>
      <point x="396" y="120"/>
      <point x="363" y="118"/>
      <point x="347" y="122" type="qcurve"/>
      <point x="338" y="124"/>
      <point x="330" y="138"/>
      <point x="328" y="156"/>
      <point x="330" y="175"/>
      <point x="330" y="183" type="qcurve"/>
      <point x="330" y="206"/>
      <point x="316" y="229"/>
      <point x="292" y="238"/>
      <point x="276" y="238" type="qcurve"/>
    </contour>
    <contour>
      <point x="240" y="352" type="line"/>
      <point x="240" y="257" type="line"/>
      <point x="270" y="257" type="line"/>
      <point x="308" y="257"/>
      <point x="338" y="287"/>
      <point x="334" y="322"/>
      <point x="303" y="352"/>
      <point x="281" y="352" type="qcurve" name="hr06"/>
    </contour>
  </outline>
</glyph>
<glyph name="onequarter" format="1">
  <advance width="462"/>
  <unicode hex="00BC"/>
  <outline>
    <contour>
      <point x="394" y="77" type="qcurve" name="hr00"/>
      <point x="394" y="77"/>
      <point x="395" y="18" type="qcurve"/>
      <point x="395" y="18"/>
      <point x="419" y="18" type="qcurve"/>
      <point x="419" y="18"/>
      <point x="419" y="0" type="qcurve"/>
      <point x="419" y="0"/>
      <point x="321" y="0" type="qcurve"/>
      <point x="321" y="0"/>
      <point x="321" y="18" type="qcurve"/>
      <point x="321" y="18"/>
      <point x="345" y="18" type="qcurve"/>
      <point x="345" y="18"/>
      <point x="344" y="77" type="qcurve"/>
      <point x="344" y="77"/>
      <point x="241" y="77" type="qcurve"/>
      <point x="241" y="77"/>
      <point x="242" y="108" type="qcurve"/>
      <point x="242" y="108"/>
      <point x="338" y="222" type="qcurve"/>
      <point x="338" y="222"/>
      <point x="396" y="221" type="qcurve"/>
      <point x="396" y="221"/>
      <point x="396" y="95" type="qcurve"/>
      <point x="396" y="95"/>
      <point x="439" y="95" type="qcurve"/>
      <point x="439" y="95"/>
      <point x="438" y="77" type="qcurve"/>
      <point x="438" y="77"/>
    </contour>
    <contour>
      <point x="156" y="0" type="qcurve"/>
      <point x="156" y="0"/>
      <point x="89" y="0" type="qcurve"/>
      <point x="89" y="0"/>
      <point x="239" y="495" type="qcurve"/>
      <point x="239" y="495"/>
      <point x="309" y="495" type="qcurve"/>
      <point x="309" y="495"/>
    </contour>
    <contour>
      <point x="35" y="293" type="qcurve"/>
      <point x="35" y="293"/>
      <point x="52" y="293" type="qcurve"/>
      <point x="52" y="293"/>
      <point x="52" y="451" type="qcurve"/>
      <point x="52" y="451"/>
      <point x="20" y="451" type="qcurve"/>
      <point x="20" y="451"/>
      <point x="20" y="467" type="qcurve"/>
      <point x="20" y="467"/>
      <point x="110" y="490" type="qcurve"/>
      <point x="110" y="490"/>
      <point x="112" y="293" type="qcurve"/>
      <point x="112" y="293"/>
      <point x="130" y="293" type="qcurve"/>
      <point x="130" y="293"/>
      <point x="130" y="268" type="qcurve"/>
      <point x="130" y="268"/>
      <point x="35" y="268" type="qcurve"/>
      <point x="35" y="268"/>
    </contour>
    <contour>
      <point x="345" y="196" type="qcurve"/>
      <point x="345" y="196"/>
      <point x="260" y="95" type="qcurve"/>
      <point x="260" y="95"/>
      <point x="345" y="95" type="qcurve"/>
      <point x="345" y="95"/>
    </contour>
  </outline>
</glyph>
<glyph name="onehalf" format="1">
  <advance width="467"/>
  <unicode hex="00BD"/>
  <outline>
    <contour>
      <point x="260" y="0" type="line"/>
      <point x="260" y="0"/>
      <point x="260" y="28" type="qcurve"/>
      <point x="278" y="36"/>
      <point x="316" y="60"/>
      <point x="348" y="91"/>
      <point x="368" y="128"/>
      <point x="367" y="151" type="qcurve"/>
      <point x="367" y="170"/>
      <point x="343" y="203"/>
      <point x="322" y="203" type="qcurve"/>
      <point x="294" y="203"/>
      <point x="270" y="158"/>
      <point x="281" y="134" type="qcurve"/>
      <point x="265" y="122" type="line"/>
      <point x="257" y="132"/>
      <point x="252" y="156"/>
      <point x="253" y="168" type="qcurve"/>
      <point x="253" y="190"/>
      <point x="280" y="221"/>
      <point x="320" y="236"/>
      <point x="366" y="236"/>
      <point x="405" y="221"/>
      <point x="431" y="188"/>
      <point x="431" y="164" type="qcurve"/>
      <point x="431" y="140"/>
      <point x="415" y="119" type="qcurve"/>
      <point x="395" y="93"/>
      <point x="332" y="44"/>
      <point x="306" y="24" type="qcurve"/>
      <point x="389" y="26" type="line"/>
      <point x="406" y="26"/>
      <point x="441" y="38"/>
      <point x="448" y="55" type="qcurve"/>
      <point x="448" y="0" type="line"/>
    </contour>
    <contour>
      <point x="157" y="0" type="line"/>
      <point x="90" y="0" type="line"/>
      <point x="240" y="495" type="line"/>
      <point x="309" y="495" type="line"/>
    </contour>
    <contour>
      <point x="33" y="293" type="line"/>
      <point x="50" y="293" type="line"/>
      <point x="50" y="451" type="line"/>
      <point x="19" y="451" type="line"/>
      <point x="19" y="467" type="line"/>
      <point x="108" y="490" type="line"/>
      <point x="109" y="293" type="line"/>
      <point x="129" y="293" type="line" name="hr01"/>
      <point x="129" y="268" type="line"/>
      <point x="34" y="268" type="line"/>
    </contour>
  </outline>
</glyph>
<glyph name="threequarters" format="1">
  <advance width="502"/>
  <unicode hex="00BE"/>
  <outline>
    <contour>
      <point x="437" y="78" type="qcurve" name="hr00"/>
      <point x="437" y="78"/>
      <point x="438" y="17" type="qcurve"/>
      <point x="438" y="17"/>
      <point x="462" y="17" type="qcurve"/>
      <point x="462" y="17"/>
      <point x="462" y="0" type="qcurve"/>
      <point x="462" y="0"/>
      <point x="364" y="0" type="qcurve"/>
      <point x="364" y="0"/>
      <point x="364" y="17" type="qcurve"/>
      <point x="364" y="17"/>
      <point x="388" y="17" type="qcurve"/>
      <point x="388" y="17"/>
      <point x="387" y="78" type="qcurve"/>
      <point x="387" y="78"/>
      <point x="285" y="78" type="qcurve"/>
      <point x="285" y="78"/>
      <point x="285" y="107" type="qcurve"/>
      <point x="285" y="107"/>
      <point x="381" y="221" type="qcurve"/>
      <point x="381" y="221"/>
      <point x="438" y="221" type="qcurve"/>
      <point x="438" y="221"/>
      <point x="438" y="96" type="qcurve"/>
      <point x="438" y="96"/>
      <point x="481" y="96" type="qcurve"/>
      <point x="481" y="96"/>
      <point x="481" y="78" type="qcurve"/>
      <point x="481" y="78"/>
    </contour>
    <contour>
      <point x="206" y="0" type="qcurve"/>
      <point x="206" y="0"/>
      <point x="139" y="0" type="qcurve"/>
      <point x="139" y="0"/>
      <point x="288" y="495" type="qcurve"/>
      <point x="288" y="495"/>
      <point x="358" y="495" type="qcurve"/>
      <point x="358" y="495"/>
    </contour>
    <contour>
      <point x="63" y="387" type="qcurve"/>
      <point x="63" y="387"/>
      <point x="63" y="388" type="qcurve"/>
      <point x="92" y="413"/>
      <point x="117" y="434"/>
      <point x="130" y="446"/>
      <point x="141" y="458"/>
      <point x="156" y="472" type="qcurve"/>
      <point x="143" y="472"/>
      <point x="104" y="474"/>
      <point x="65" y="470"/>
      <point x="33" y="458"/>
      <point x="27" y="445" type="qcurve"/>
      <point x="23" y="445" type="line"/>
      <point x="23" y="495" type="line"/>
      <point x="190" y="495" type="line"/>
      <point x="190" y="472" type="line"/>
      <point x="108" y="404" type="line"/>
      <point x="121" y="402"/>
      <point x="155" y="398"/>
      <point x="184" y="386"/>
      <point x="204" y="364"/>
      <point x="203" y="346" type="qcurve"/>
      <point x="202" y="326"/>
      <point x="184" y="298"/>
      <point x="154" y="280"/>
      <point x="118" y="270"/>
      <point x="99" y="269" type="qcurve"/>
      <point x="87" y="268"/>
      <point x="41" y="272"/>
      <point x="25" y="280" type="qcurve"/>
      <point x="25" y="301" type="line"/>
      <point x="61" y="283"/>
      <point x="115" y="294"/>
      <point x="142" y="326"/>
      <point x="136" y="366"/>
      <point x="114" y="378" type="qcurve"/>
      <point x="103" y="383"/>
      <point x="75" y="389"/>
    </contour>
    <contour>
      <point x="388" y="204" type="line"/>
      <point x="300" y="96" type="line"/>
      <point x="388" y="96" type="line"/>
    </contour>
  </outline>
</glyph>
<glyph name="multiply" format="1">
  <advance width="522"/>
  <unicode hex="00D7"/>
  <outline>
    <contour>
      <point x="444" y="351" type="qcurve" name="hr00"/>
      <point x="444" y="351"/>
      <point x="300" y="206" type="qcurve"/>
      <point x="300" y="206"/>
      <point x="442" y="61" type="qcurve"/>
      <point x="442" y="61"/>
      <point x="401" y="19" type="qcurve"/>
      <point x="401" y="19"/>
      <point x="257" y="162" type="qcurve"/>
      <point x="257" y="162"/>
      <point x="113" y="19" type="qcurve"/>
      <point x="113" y="19"/>
      <point x="70" y="61" type="qcurve"/>
      <point x="70" y="61"/>
      <point x="214" y="206" type="qcurve"/>
      <point x="214" y="206"/>
      <point x="69" y="351" type="qcurve"/>
      <point x="69" y="351"/>
      <point x="113" y="393" type="qcurve"/>
      <point x="113" y="393"/>
      <point x="257" y="249" type="qcurve"/>
      <point x="257" y="249"/>
      <point x="402" y="393" type="qcurve"/>
      <point x="402" y="393"/>
    </contour>
  </outline>
</glyph>
<glyph name="divide" format="1">
  <advance width="642"/>
  <unicode hex="00F7"/>
  <outline>
    <contour>
      <point x="372" y="393" type="qcurve" name="hr00"/>
      <point x="372" y="370"/>
      <point x="341" y="340"/>
      <point x="319" y="340" type="qcurve"/>
      <point x="295" y="340"/>
      <point x="265" y="369"/>
      <point x="265" y="393" type="qcurve"/>
      <point x="265" y="416"/>
      <point x="296" y="447"/>
      <point x="319" y="447" type="qcurve"/>
      <point x="341" y="447"/>
      <point x="372" y="416"/>
    </contour>
    <contour>
      <point x="567" y="192" type="line"/>
      <point x="69" y="192" type="line"/>
      <point x="69" y="254" type="line"/>
      <point x="567" y="254" type="line"/>
    </contour>
    <contour>
      <point x="372" y="61" type="qcurve"/>
      <point x="372" y="40"/>
      <point x="341" y="8"/>
      <point x="319" y="8" type="qcurve"/>
      <point x="296" y="8"/>
      <point x="265" y="40"/>
      <point x="265" y="61" type="qcurve"/>
      <point x="265" y="84"/>
      <point x="296" y="115"/>
      <point x="319" y="115" type="qcurve"/>
      <point x="341" y="115"/>
      <point x="372" y="84"/>
    </contour>
  </outline>
</glyph>
<glyph name="uni0950" format="1">
  <advance width="798"/>
  <unicode hex="0950"/>
  <outline>
    <contour>
      <point x="746" y="325" type="qcurve"/>
      <point x="746" y="222"/>
      <point x="670" y="102"/>
      <point x="602" y="102" type="qcurve"/>
      <point x="557" y="102"/>
      <point x="518" y="160"/>
      <point x="518" y="229" type="qcurve"/>
      <point x="518" y="264" type="line"/>
      <point x="518" y="333"/>
      <point x="483" y="333" type="qcurve"/>
      <point x="454" y="333"/>
      <point x="405" y="301" type="qcurve"/>
      <point x="469" y="216"/>
      <point x="469" y="140" type="qcurve"/>
      <point x="469" y="77"/>
      <point x="388" y="1"/>
      <point x="320" y="1" type="qcurve"/>
      <point x="210" y="1"/>
      <point x="130" y="99" type="qcurve"/>
      <point x="51" y="196"/>
      <point x="37" y="343" type="qcurve"/>
      <point x="62" y="351" type="line"/>
      <point x="81" y="224"/>
      <point x="147" y="142" type="qcurve"/>
      <point x="213" y="61"/>
      <point x="298" y="61" type="qcurve"/>
      <point x="342" y="61"/>
      <point x="374" y="94" type="qcurve"/>
      <point x="406" y="129"/>
      <point x="406" y="175" type="qcurve"/>
      <point x="406" y="263"/>
      <point x="336" y="334" type="qcurve"/>
      <point x="299" y="283"/>
      <point x="251" y="261" type="qcurve"/>
      <point x="220" y="337" type="line"/>
      <point x="330" y="369"/>
      <point x="330" y="445" type="qcurve"/>
      <point x="330" y="503"/>
      <point x="261" y="503" type="qcurve"/>
      <point x="212" y="503"/>
      <point x="156" y="473" type="qcurve"/>
      <point x="156" y="473"/>
      <point x="125" y="548" type="qcurve"/>
      <point x="168" y="569"/>
      <point x="218" y="569" type="qcurve"/>
      <point x="283" y="569"/>
      <point x="364" y="486"/>
      <point x="364" y="420" type="qcurve"/>
      <point x="364" y="391"/>
      <point x="351" y="366" type="qcurve"/>
      <point x="368" y="351" type="line"/>
      <point x="430" y="412"/>
      <point x="489" y="412" type="qcurve" name="hr01"/>
      <point x="498" y="412"/>
      <point x="505" y="411" type="qcurve"/>
      <point x="528" y="528"/>
      <point x="622" y="528" type="qcurve"/>
      <point x="746" y="528"/>
    </contour>
    <contour>
      <point x="712" y="320" type="qcurve"/>
      <point x="712" y="382"/>
      <point x="657" y="461"/>
      <point x="613" y="461" type="qcurve"/>
      <point x="552" y="461"/>
      <point x="524" y="403" type="qcurve"/>
      <point x="552" y="390"/>
      <point x="552" y="343" type="qcurve"/>
      <point x="552" y="257" type="line"/>
      <point x="552" y="167"/>
      <point x="606" y="167" type="qcurve"/>
      <point x="651" y="167"/>
      <point x="712" y="254"/>
    </contour>
    <contour>
      <point x="567" y="611" type="qcurve"/>
      <point x="506" y="544"/>
      <point x="440" y="544" type="qcurve"/>
      <point x="342" y="544"/>
      <point x="276" y="647" type="qcurve"/>
      <point x="296" y="662" type="line"/>
      <point x="342" y="604"/>
      <point x="403" y="604" type="qcurve"/>
      <point x="462" y="604"/>
      <point x="504" y="662" type="qcurve"/>
      <point x="504" y="662"/>
    </contour>
    <contour>
      <point x="461" y="691" type="qcurve"/>
      <point x="461" y="691"/>
      <point x="413" y="646" type="qcurve"/>
      <point x="413" y="646"/>
      <point x="366" y="695" type="qcurve"/>
      <point x="366" y="695"/>
      <point x="413" y="740" type="qcurve" name="hr02"/>
      <point x="413" y="740"/>
    </contour>
  </outline>
</glyph>
<glyph name="uni0951" format="1">
  <advance width="0"/>
  <unicode hex="0951"/>
  <outline>
    <contour>
      <point x="-213" y="971" type="qcurve" name="hr00"/>
      <point x="-213" y="971"/>
      <point x="-273" y="971" type="qcurve"/>
      <point x="-273" y="971"/>
      <point x="-273" y="1409" type="qcurve"/>
      <point x="-273" y="1409"/>
      <point x="-213" y="1409" type="qcurve"/>
      <point x="-213" y="1409"/>
    </contour>
  </outline>
</glyph>
<glyph name="uni0952" format="1">
  <advance width="0"/>
  <unicode hex="0952"/>
  <outline>
    <contour>
      <point x="-61" y="-432" type="qcurve" name="hr00"/>
      <point x="-61" y="-432"/>
      <point x="-675" y="-432" type="qcurve"/>
      <point x="-675" y="-432"/>
      <point x="-675" y="-378" type="qcurve"/>
      <point x="-675" y="-378"/>
      <point x="-61" y="-378" type="qcurve"/>
      <point x="-61" y="-378"/>
    </contour>
  </outline>
</glyph>
<glyph name="uni0C01" format="1">
  <advance width="382"/>
  <unicode hex="0C01"/>
  <outline>
    <contour>
      <point x="20" y="228" type="line" name="hr00"/>
      <point x="40" y="208"/>
      <point x="64" y="161"/>
      <point x="96" y="86" type="curve" smooth="yes"/>
      <point x="120" y="29"/>
      <point x="164" y="0"/>
      <point x="227" y="0" type="curve" smooth="yes"/>
      <point x="234" y="0" type="line" smooth="yes"/>
      <point x="252" y="0"/>
      <point x="275" y="4"/>
      <point x="302" y="12" type="curve"/>
      <point x="244" y="26"/>
      <point x="204" y="57"/>
      <point x="178" y="103" type="curve" smooth="yes"/>
      <point x="152" y="149"/>
      <point x="134" y="195"/>
      <point x="133" y="242" type="curve" smooth="yes"/>
      <point x="132" y="302"/>
      <point x="146" y="350"/>
      <point x="166" y="385" type="curve" smooth="yes"/>
      <point x="198" y="440"/>
      <point x="242" y="468"/>
      <point x="300" y="469" type="curve"/>
      <point x="295" y="474"/>
      <point x="290" y="477"/>
      <point x="283" y="480" type="curve" smooth="yes"/>
      <point x="250" y="496"/>
      <point x="211" y="496"/>
      <point x="166" y="480" type="curve" smooth="yes"/>
      <point x="133" y="468"/>
      <point x="106" y="447"/>
      <point x="85" y="416" type="curve"/>
      <point x="70" y="389"/>
      <point x="58" y="362"/>
      <point x="50" y="333" type="curve" smooth="yes"/>
      <point x="42" y="304"/>
      <point x="35" y="284"/>
      <point x="29" y="273" type="curve" smooth="yes"/>
      <point x="22" y="260"/>
      <point x="12" y="249"/>
      <point x="0" y="242" type="curve"/>
    </contour>
  </outline>
</glyph>
<glyph name="uni0C02" format="1">
  <advance width="622"/>
  <unicode hex="0C02"/>
  <outline>
    <contour>
      <point x="542" y="246" type="qcurve" name="hr00"/>
      <point x="542" y="178"/>
      <point x="467" y="64"/>
      <point x="403" y="31" type="qcurve"/>
      <point x="327" y="2" type="line"/>
      <point x="279" y="-16"/>
      <point x="270" y="-41" type="qcurve"/>
      <point x="261" y="-17"/>
      <point x="208" y="4" type="qcurve"/>
      <point x="208" y="4"/>
      <point x="125" y="37" type="qcurve"/>
      <point x="0" y="111"/>
      <point x="0" y="246" type="qcurve"/>
      <point x="0" y="354"/>
      <point x="83" y="425" type="qcurve"/>
      <point x="162" y="493"/>
      <point x="270" y="493" type="qcurve"/>
      <point x="379" y="493"/>
      <point x="459" y="425" type="qcurve"/>
      <point x="542" y="353"/>
    </contour>
    <contour>
      <point x="431" y="309" type="qcurve"/>
      <point x="431" y="372"/>
      <point x="383" y="411" type="qcurve"/>
      <point x="335" y="450"/>
      <point x="270" y="450" type="qcurve"/>
      <point x="206" y="450"/>
      <point x="159" y="412" type="qcurve"/>
      <point x="109" y="371"/>
      <point x="109" y="247"/>
      <point x="159" y="203" type="qcurve"/>
      <point x="205" y="163"/>
      <point x="270" y="163" type="qcurve"/>
      <point x="334" y="163"/>
      <point x="383" y="204" type="qcurve"/>
      <point x="431" y="246"/>
    </contour>
  </outline>
</glyph>
<glyph name="uni0C03" format="1">
  <advance width="265"/>
  <unicode hex="0C03"/>
  <outline>
    <contour>
      <point x="185" y="350" type="qcurve"/>
      <point x="185" y="299"/>
      <point x="137" y="277" type="qcurve"/>
      <point x="125" y="272"/>
      <point x="111" y="267" type="qcurve"/>
      <point x="95" y="260"/>
      <point x="92" y="252" type="qcurve"/>
      <point x="89" y="260"/>
      <point x="71" y="267" type="qcurve"/>
      <point x="45" y="277"/>
      <point x="43" y="279" type="qcurve"/>
      <point x="0" y="304"/>
      <point x="0" y="350" type="qcurve"/>
      <point x="0" y="386"/>
      <point x="28" y="410" type="qcurve"/>
      <point x="55" y="434"/>
      <point x="129" y="434"/>
      <point x="156" y="410" type="qcurve"/>
      <point x="185" y="386"/>
    </contour>
    <contour>
      <point x="185" y="140" type="qcurve"/>
      <point x="185" y="89"/>
      <point x="137" y="67" type="qcurve"/>
      <point x="125" y="62"/>
      <point x="111" y="57" type="qcurve"/>
      <point x="95" y="50"/>
      <point x="92" y="42" type="qcurve"/>
      <point x="89" y="50"/>
      <point x="71" y="57" type="qcurve" name="hr01"/>
      <point x="45" y="67"/>
      <point x="43" y="69" type="qcurve"/>
      <point x="0" y="94"/>
      <point x="0" y="140" type="qcurve"/>
      <point x="0" y="176"/>
      <point x="28" y="200" type="qcurve"/>
      <point x="55" y="224"/>
      <point x="129" y="224"/>
      <point x="156" y="200" type="qcurve"/>
      <point x="185" y="176"/>
    </contour>
    <contour>
      <point x="147" y="371" type="qcurve"/>
      <point x="147" y="392"/>
      <point x="114" y="419"/>
      <point x="70" y="419"/>
      <point x="54" y="406" type="qcurve"/>
      <point x="37" y="392"/>
      <point x="37" y="350"/>
      <point x="54" y="335" type="qcurve"/>
      <point x="71" y="321"/>
      <point x="92" y="321" type="qcurve"/>
      <point x="114" y="321"/>
      <point x="147" y="350"/>
    </contour>
    <contour>
      <point x="147" y="161" type="qcurve"/>
      <point x="147" y="182"/>
      <point x="114" y="209"/>
      <point x="70" y="209"/>
      <point x="54" y="196" type="qcurve"/>
      <point x="37" y="182"/>
      <point x="37" y="140"/>
      <point x="54" y="125" type="qcurve"/>
      <point x="71" y="111"/>
      <point x="92" y="111" type="qcurve"/>
      <point x="114" y="111"/>
      <point x="147" y="140"/>
    </contour>
  </outline>
</glyph>
<glyph name="uni0C05" format="1">
  <advance width="669"/>
  <unicode hex="0C05"/>
  <outline>
    <contour>
      <point x="449" y="286" type="line" name="hr00"/>
      <point x="446" y="283"/>
      <point x="441" y="282"/>
      <point x="434" y="284" type="curve"/>
      <point x="395" y="289"/>
      <point x="375" y="309"/>
      <point x="375" y="344" type="curve" smooth="yes"/>
      <point x="375" y="380"/>
      <point x="401" y="411"/>
      <point x="437" y="411" type="curve" smooth="yes"/>
      <point x="503" y="411"/>
      <point x="536" y="378"/>
      <point x="536" y="312" type="curve" smooth="yes"/>
      <point x="536" y="264"/>
      <point x="505" y="226"/>
      <point x="442" y="197" type="curve" smooth="yes"/>
      <point x="391" y="174"/>
      <point x="339" y="162"/>
      <point x="285" y="162" type="curve" smooth="yes"/>
      <point x="224" y="162"/>
      <point x="172" y="175"/>
      <point x="131" y="202" type="curve" smooth="yes"/>
      <point x="82" y="234"/>
      <point x="57" y="279"/>
      <point x="57" y="337" type="curve" smooth="yes"/>
      <point x="57" y="361"/>
      <point x="62" y="378"/>
      <point x="72" y="389" type="curve"/>
      <point x="73" y="361"/>
      <point x="84" y="337"/>
      <point x="106" y="316" type="curve" smooth="yes"/>
      <point x="129" y="295"/>
      <point x="154" y="285"/>
      <point x="182" y="285" type="curve" smooth="yes"/>
      <point x="262" y="285"/>
      <point x="312" y="330"/>
      <point x="312" y="399" type="curve" smooth="yes"/>
      <point x="312" y="428"/>
      <point x="299" y="451"/>
      <point x="274" y="468" type="curve" smooth="yes"/>
      <point x="251" y="484"/>
      <point x="225" y="492"/>
      <point x="194" y="492" type="curve" smooth="yes"/>
      <point x="137" y="492"/>
      <point x="89" y="470"/>
      <point x="52" y="425" type="curve" smooth="yes"/>
      <point x="17" y="382"/>
      <point x="0" y="332"/>
      <point x="0" y="273" type="curve" smooth="yes"/>
      <point x="0" y="170"/>
      <point x="41" y="93"/>
      <point x="124" y="44" type="curve" smooth="yes"/>
      <point x="132" y="39"/>
      <point x="165" y="27"/>
      <point x="224" y="6" type="curve" smooth="yes"/>
      <point x="267" y="-9"/>
      <point x="292" y="-25"/>
      <point x="299" y="-42" type="curve"/>
      <point x="304" y="-25"/>
      <point x="325" y="-9"/>
      <point x="361" y="7" type="curve" smooth="yes"/>
      <point x="414" y="30"/>
      <point x="443" y="42"/>
      <point x="447" y="45" type="curve" smooth="yes"/>
      <point x="532" y="101"/>
      <point x="589" y="200"/>
      <point x="589" y="303" type="curve" smooth="yes"/>
      <point x="589" y="352"/>
      <point x="576" y="395"/>
      <point x="551" y="430" type="curve" smooth="yes"/>
      <point x="522" y="470"/>
      <point x="484" y="490"/>
      <point x="437" y="490" type="curve" smooth="yes"/>
      <point x="373" y="490"/>
      <point x="329" y="438"/>
      <point x="329" y="373" type="curve" smooth="yes"/>
      <point x="329" y="334"/>
      <point x="341" y="300"/>
      <point x="366" y="271" type="curve"/>
      <point x="173" y="271" type="line"/>
      <point x="173" y="205" type="line"/>
      <point x="207" y="205" type="line"/>
      <point x="207" y="216"/>
      <point x="216" y="219"/>
      <point x="234" y="219" type="curve" smooth="yes"/>
      <point x="449" y="219" type="line"/>
    </contour>
    <contour>
      <point x="234" y="393" type="curve" smooth="yes"/>
      <point x="234" y="362"/>
      <point x="218" y="347"/>
      <point x="187" y="347" type="curve" smooth="yes"/>
      <point x="159" y="347"/>
      <point x="138" y="365"/>
      <point x="138" y="393" type="curve" smooth="yes"/>
      <point x="138" y="418"/>
      <point x="158" y="440"/>
      <point x="187" y="440" type="curve" smooth="yes"/>
      <point x="212" y="440"/>
      <point x="234" y="422"/>
    </contour>
  </outline>
</glyph>
<glyph name="uni0C06" format="1">
  <advance width="656"/>
  <unicode hex="0C06"/>
  <outline>
    <contour>
      <point x="514" y="369" type="curve" smooth="yes" name="hr00"/>
      <point x="514" y="350"/>
      <point x="507" y="336"/>
      <point x="492" y="325" type="curve"/>
      <point x="426" y="328"/>
      <point x="393" y="346"/>
      <point x="393" y="379" type="curve" smooth="yes"/>
      <point x="393" y="410"/>
      <point x="412" y="426"/>
      <point x="451" y="426" type="curve" smooth="yes"/>
      <point x="482" y="426"/>
      <point x="514" y="400"/>
    </contour>
    <contour>
      <point x="206" y="399" type="curve" smooth="yes"/>
      <point x="206" y="372"/>
      <point x="183" y="349"/>
      <point x="156" y="349" type="curve" smooth="yes"/>
      <point x="128" y="349"/>
      <point x="106" y="372"/>
      <point x="106" y="399" type="curve" smooth="yes"/>
      <point x="106" y="427"/>
      <point x="128" y="449"/>
      <point x="156" y="449" type="curve" smooth="yes"/>
      <point x="183" y="449"/>
      <point x="206" y="427"/>
    </contour>
    <contour>
      <point x="404" y="229" type="line" smooth="yes"/>
      <point x="418" y="229"/>
      <point x="435" y="233"/>
      <point x="455" y="242" type="curve" smooth="yes"/>
      <point x="472" y="250"/>
      <point x="485" y="258"/>
      <point x="492" y="265" type="curve"/>
      <point x="481" y="197"/>
      <point x="408" y="163"/>
      <point x="273" y="163" type="curve" smooth="yes"/>
      <point x="215" y="163"/>
      <point x="167" y="176"/>
      <point x="130" y="203" type="curve" smooth="yes"/>
      <point x="88" y="234"/>
      <point x="67" y="277"/>
      <point x="67" y="333" type="curve" smooth="yes"/>
      <point x="67" y="365"/>
      <point x="68" y="383"/>
      <point x="70" y="388" type="curve"/>
      <point x="71" y="363"/>
      <point x="80" y="341"/>
      <point x="97" y="320" type="curve" smooth="yes"/>
      <point x="118" y="295"/>
      <point x="146" y="283"/>
      <point x="182" y="283" type="curve" smooth="yes"/>
      <point x="209" y="283"/>
      <point x="233" y="290"/>
      <point x="252" y="305" type="curve" smooth="yes"/>
      <point x="279" y="325"/>
      <point x="293" y="354"/>
      <point x="293" y="393" type="curve" smooth="yes"/>
      <point x="293" y="456"/>
      <point x="245" y="494"/>
      <point x="182" y="494" type="curve" smooth="yes"/>
      <point x="123" y="494"/>
      <point x="77" y="468"/>
      <point x="42" y="415" type="curve" smooth="yes"/>
      <point x="14" y="373"/>
      <point x="0" y="317"/>
      <point x="0" y="248" type="curve" smooth="yes"/>
      <point x="0" y="152"/>
      <point x="61" y="70"/>
      <point x="156" y="27" type="curve"/>
      <point x="239" y="0" type="line" smooth="yes"/>
      <point x="272" y="-11"/>
      <point x="292" y="-25"/>
      <point x="299" y="-42" type="curve"/>
      <point x="304" y="-26"/>
      <point x="323" y="-11"/>
      <point x="356" y="0" type="curve" smooth="yes"/>
      <point x="434" y="27" type="line" smooth="yes"/>
      <point x="532" y="61"/>
      <point x="576" y="130"/>
      <point x="576" y="211" type="curve" smooth="yes"/>
      <point x="576" y="254"/>
      <point x="562" y="284"/>
      <point x="534" y="300" type="curve"/>
      <point x="552" y="323"/>
      <point x="562" y="337"/>
      <point x="564" y="342" type="curve" smooth="yes"/>
      <point x="571" y="354"/>
      <point x="574" y="371"/>
      <point x="574" y="393" type="curve" smooth="yes"/>
      <point x="574" y="418"/>
      <point x="563" y="441"/>
      <point x="541" y="461" type="curve" smooth="yes"/>
      <point x="516" y="483"/>
      <point x="482" y="494"/>
      <point x="440" y="494" type="curve" smooth="yes"/>
      <point x="407" y="494"/>
      <point x="379" y="486"/>
      <point x="357" y="471" type="curve" smooth="yes"/>
      <point x="333" y="454"/>
      <point x="321" y="431"/>
      <point x="321" y="402" type="curve" smooth="yes"/>
      <point x="321" y="347"/>
      <point x="361" y="313"/>
      <point x="416" y="309" type="curve"/>
      <point x="409" y="302"/>
      <point x="380" y="292"/>
      <point x="372" y="292" type="curve" smooth="yes"/>
      <point x="260" y="292" type="line"/>
      <point x="260" y="206" type="line"/>
      <point x="292" y="206" type="line"/>
      <point x="292" y="226"/>
      <point x="297" y="228"/>
      <point x="318" y="228" type="curve" smooth="yes"/>
    </contour>
  </outline>
</glyph>
<glyph name="uni0C07" format="1">
  <advance width="627"/>
  <unicode hex="0C07"/>
  <outline>
    <contour>
      <point x="163" y="433" type="curve" smooth="yes" name="hr00"/>
      <point x="195" y="433"/>
      <point x="223" y="404"/>
      <point x="223" y="371" type="curve" smooth="yes"/>
      <point x="223" y="367"/>
      <point x="223" y="363"/>
      <point x="222" y="358" type="curve"/>
      <point x="271" y="358" type="line"/>
      <point x="278" y="389"/>
      <point x="291" y="409"/>
      <point x="310" y="416" type="curve" smooth="yes"/>
      <point x="318" y="419"/>
      <point x="334" y="421"/>
      <point x="359" y="421" type="curve" smooth="yes"/>
      <point x="396" y="421"/>
      <point x="428" y="406"/>
      <point x="456" y="376" type="curve" smooth="yes"/>
      <point x="481" y="349"/>
      <point x="494" y="329"/>
      <point x="494" y="317" type="curve" smooth="yes"/>
      <point x="494" y="315" type="line"/>
      <point x="494" y="305" type="line"/>
      <point x="494" y="300" type="line"/>
      <point x="494" y="289" type="line"/>
      <point x="494" y="282" type="line"/>
      <point x="494" y="274" type="line" smooth="yes"/>
      <point x="494" y="255"/>
      <point x="486" y="231"/>
      <point x="469" y="204" type="curve"/>
      <point x="445" y="231"/>
      <point x="410" y="254"/>
      <point x="363" y="274" type="curve"/>
      <point x="316" y="289"/>
      <point x="272" y="297"/>
      <point x="233" y="297" type="curve" smooth="yes"/>
      <point x="177" y="297"/>
      <point x="129" y="287"/>
      <point x="90" y="267" type="curve" smooth="yes"/>
      <point x="39" y="242"/>
      <point x="13" y="205"/>
      <point x="13" y="154" type="curve" smooth="yes"/>
      <point x="13" y="111"/>
      <point x="35" y="75"/>
      <point x="78" y="44" type="curve" smooth="yes"/>
      <point x="83" y="41"/>
      <point x="109" y="29"/>
      <point x="156" y="6" type="curve" smooth="yes"/>
      <point x="189" y="-10"/>
      <point x="209" y="-26"/>
      <point x="214" y="-41" type="curve"/>
      <point x="220" y="-26"/>
      <point x="245" y="-10"/>
      <point x="290" y="6" type="curve" smooth="yes"/>
      <point x="352" y="28"/>
      <point x="387" y="41"/>
      <point x="394" y="45" type="curve" smooth="yes"/>
      <point x="408" y="53"/>
      <point x="422" y="62"/>
      <point x="435" y="73" type="curve"/>
      <point x="437" y="70"/>
      <point x="438" y="66"/>
      <point x="438" y="61" type="curve" smooth="yes"/>
      <point x="438" y="52"/>
      <point x="435" y="38"/>
      <point x="429" y="21" type="curve" smooth="yes"/>
      <point x="424" y="4"/>
      <point x="418" y="-8"/>
      <point x="412" y="-14" type="curve"/>
      <point x="543" y="-15" type="line"/>
      <point x="546" y="-1"/>
      <point x="547" y="14"/>
      <point x="547" y="30" type="curve" smooth="yes"/>
      <point x="547" y="51"/>
      <point x="545" y="74"/>
      <point x="539" y="97" type="curve" smooth="yes"/>
      <point x="533" y="121"/>
      <point x="523" y="140"/>
      <point x="510" y="155" type="curve"/>
      <point x="529" y="193"/>
      <point x="538" y="238"/>
      <point x="538" y="291" type="curve" smooth="yes"/>
      <point x="538" y="348"/>
      <point x="524" y="395"/>
      <point x="496" y="431" type="curve" smooth="yes"/>
      <point x="465" y="470"/>
      <point x="421" y="490"/>
      <point x="366" y="490" type="curve" smooth="yes"/>
      <point x="336" y="490"/>
      <point x="313" y="486"/>
      <point x="296" y="478" type="curve" smooth="yes"/>
      <point x="279" y="471"/>
      <point x="262" y="456"/>
      <point x="243" y="433" type="curve"/>
      <point x="212" y="468"/>
      <point x="172" y="485"/>
      <point x="124" y="485" type="curve" smooth="yes"/>
      <point x="91" y="485"/>
      <point x="62" y="472"/>
      <point x="37" y="445" type="curve" smooth="yes"/>
      <point x="12" y="419"/>
      <point x="0" y="390"/>
      <point x="0" y="357" type="curve" smooth="yes"/>
      <point x="0" y="349"/>
      <point x="1" y="341"/>
      <point x="2" y="334" type="curve"/>
      <point x="164" y="334" type="line"/>
      <point x="164" y="360" type="line"/>
      <point x="148" y="360" type="line"/>
      <point x="147" y="354"/>
      <point x="144" y="351"/>
      <point x="137" y="351" type="curve" smooth="yes"/>
      <point x="123" y="351"/>
      <point x="116" y="363"/>
      <point x="116" y="387" type="curve" smooth="yes"/>
      <point x="116" y="418"/>
      <point x="132" y="433"/>
    </contour>
    <contour>
      <point x="416" y="155" type="curve"/>
      <point x="377" y="113"/>
      <point x="333" y="92"/>
      <point x="282" y="92" type="curve" smooth="yes"/>
      <point x="259" y="92"/>
      <point x="236" y="100"/>
      <point x="214" y="117" type="curve" smooth="yes"/>
      <point x="193" y="134"/>
      <point x="182" y="154"/>
      <point x="182" y="177" type="curve" smooth="yes"/>
      <point x="182" y="224"/>
      <point x="214" y="248"/>
      <point x="279" y="248" type="curve" smooth="yes"/>
      <point x="302" y="248"/>
      <point x="327" y="240"/>
      <point x="356" y="223" type="curve"/>
      <point x="381" y="205"/>
      <point x="401" y="182"/>
    </contour>
  </outline>
</glyph>
<glyph name="uni0C08" format="1">
  <advance width="1008"/>
  <unicode hex="0C08"/>
  <outline>
    <contour>
      <point x="928" y="238" type="qcurve"/>
      <point x="928" y="180"/>
      <point x="887" y="139" type="qcurve"/>
      <point x="844" y="96"/>
      <point x="786" y="99" type="qcurve"/>
      <point x="670" y="104"/>
      <point x="667" y="210" type="qcurve"/>
      <point x="666" y="228"/>
      <point x="679" y="255" type="qcurve"/>
      <point x="692" y="274"/>
      <point x="709" y="282" type="qcurve"/>
      <point x="709" y="282"/>
      <point x="609" y="282" type="qcurve"/>
      <point x="612" y="264"/>
      <point x="612" y="246" type="qcurve"/>
      <point x="612" y="178"/>
      <point x="537" y="64"/>
      <point x="473" y="31" type="qcurve"/>
      <point x="397" y="2" type="line"/>
      <point x="349" y="-16"/>
      <point x="340" y="-41" type="qcurve"/>
      <point x="331" y="-17"/>
      <point x="278" y="4" type="qcurve"/>
      <point x="278" y="4"/>
      <point x="195" y="37" type="qcurve"/>
      <point x="70" y="111"/>
      <point x="70" y="246" type="qcurve"/>
      <point x="70" y="258"/>
      <point x="72" y="282" type="qcurve"/>
      <point x="72" y="282"/>
      <point x="0" y="282" type="qcurve"/>
      <point x="0" y="282"/>
      <point x="0" y="360" type="qcurve"/>
      <point x="0" y="360"/>
      <point x="98" y="360" type="qcurve"/>
      <point x="118" y="395"/>
      <point x="153" y="425" type="qcurve"/>
      <point x="176" y="444"/>
      <point x="194" y="454" type="qcurve" name="hr01"/>
      <point x="151" y="467"/>
      <point x="110" y="508" type="qcurve" name="hr02"/>
      <point x="130" y="555"/>
      <point x="154" y="605" type="qcurve"/>
      <point x="162" y="622"/>
      <point x="186" y="622"/>
      <point x="191" y="608" type="qcurve"/>
      <point x="194" y="594"/>
      <point x="175" y="590" type="qcurve"/>
      <point x="180" y="544"/>
      <point x="250" y="534" type="qcurve"/>
      <point x="264" y="532"/>
      <point x="271" y="532" type="qcurve"/>
      <point x="298" y="532"/>
      <point x="318" y="547" type="qcurve"/>
      <point x="338" y="563"/>
      <point x="375" y="615" type="qcurve"/>
      <point x="414" y="668"/>
      <point x="437" y="687" type="qcurve"/>
      <point x="479" y="720"/>
      <point x="536" y="720" type="qcurve"/>
      <point x="562" y="720"/>
      <point x="611" y="702" type="qcurve"/>
      <point x="553" y="569" type="line"/>
      <point x="543" y="547"/>
      <point x="529" y="547" type="qcurve" name="hr03"/>
      <point x="525" y="547" type="line"/>
      <point x="509" y="550"/>
      <point x="509" y="566" type="qcurve"/>
      <point x="509" y="580"/>
      <point x="528" y="586" type="qcurve"/>
      <point x="513" y="603"/>
      <point x="494" y="603" type="qcurve"/>
      <point x="454" y="603"/>
      <point x="410" y="555" type="qcurve"/>
      <point x="374" y="514"/>
      <point x="351" y="493" type="qcurve"/>
      <point x="450" y="490"/>
      <point x="529" y="425" type="qcurve" name="hr04"/>
      <point x="564" y="393"/>
      <point x="582" y="360" type="qcurve"/>
      <point x="753" y="361" type="line"/>
      <point x="756" y="361" type="line"/>
      <point x="778" y="361"/>
      <point x="800" y="374" type="qcurve"/>
      <point x="836" y="395"/>
      <point x="836" y="423" type="qcurve"/>
      <point x="836" y="452"/>
      <point x="795" y="491"/>
      <point x="765" y="491" type="qcurve"/>
      <point x="709" y="491"/>
      <point x="709" y="455" type="qcurve"/>
      <point x="709" y="449" type="line"/>
      <point x="709" y="433"/>
      <point x="716" y="425" type="qcurve"/>
      <point x="717" y="421"/>
      <point x="733" y="421" type="qcurve"/>
      <point x="737" y="421"/>
      <point x="742" y="429" type="qcurve"/>
      <point x="747" y="441"/>
      <point x="761" y="441" type="qcurve"/>
      <point x="785" y="441"/>
      <point x="785" y="417" type="qcurve"/>
      <point x="785" y="404"/>
      <point x="757" y="388"/>
      <point x="740" y="388" type="qcurve"/>
      <point x="729" y="388"/>
      <point x="707" y="393" type="qcurve"/>
      <point x="666" y="404"/>
      <point x="666" y="459" type="qcurve"/>
      <point x="666" y="502"/>
      <point x="700" y="527" type="qcurve"/>
      <point x="730" y="551"/>
      <point x="774" y="551" type="qcurve"/>
      <point x="821" y="551"/>
      <point x="883" y="495"/>
      <point x="883" y="450" type="qcurve"/>
      <point x="883" y="396"/>
      <point x="835" y="362" type="qcurve"/>
      <point x="928" y="321"/>
    </contour>
    <contour>
      <point x="229" y="203" type="qcurve"/>
      <point x="275" y="163"/>
      <point x="340" y="163" type="qcurve"/>
      <point x="404" y="163"/>
      <point x="453" y="204" type="qcurve"/>
      <point x="491" y="237"/>
      <point x="498" y="282" type="qcurve"/>
      <point x="181" y="282" type="line"/>
      <point x="190" y="236"/>
    </contour>
    <contour>
      <point x="453" y="411" type="qcurve"/>
      <point x="405" y="450"/>
      <point x="340" y="450" type="qcurve"/>
      <point x="276" y="450"/>
      <point x="229" y="412" type="qcurve"/>
      <point x="203" y="391"/>
      <point x="188" y="360" type="qcurve"/>
      <point x="491" y="360" type="line"/>
      <point x="480" y="387"/>
    </contour>
    <contour>
      <point x="869" y="219" type="qcurve"/>
      <point x="867" y="285"/>
      <point x="793" y="282" type="qcurve"/>
      <point x="733" y="280"/>
      <point x="733" y="222" type="qcurve"/>
      <point x="742" y="163"/>
      <point x="803" y="163" type="qcurve"/>
      <point x="838" y="162"/>
      <point x="870" y="195"/>
    </contour>
  </outline>
</glyph>
